  0
SECTION
  2
HEADER
  9
$ACADVER
  1
AC1015
  9
$ACADMAINTVER
 70
     6
  9
$DWGCODEPAGE
  3
ANSI_1254
  9
$INSBASE
 10
0.0
 20
0.0
 30
0.0
  9
$EXTMIN
 10
0.0
 20
0.0
 30
0.0
  9
$EXTMAX
 10
210.0
 20
297.0
 30
0.0
  9
$LIMMIN
 10
0.0
 20
0.0
  9
$LIMMAX
 10
210.0
 20
297.0
  9
$ORTHOMODE
 70
     0
  9
$REGENMODE
 70
     1
  9
$FILLMODE
 70
     1
  9
$QTEXTMODE
 70
     0
  9
$MIRRTEXT
 70
     1
  9
$LTSCALE
 40
1.0
  9
$ATTMODE
 70
     1
  9
$TEXTSIZE
 40
3.5
  9
$TRACEWID
 40
1.0
  9
$TEXTSTYLE
  7
Standard
  9
$CLAYER
  8
0
  9
$CELTYPE
  6
ByLayer
  9
$CECOLOR
 62
   256
  9
$CELTSCALE
 40
1.0
  9
$DISPSILH
 70
     0
  9
$DIMSCALE
 40
1.0
  9
$DIMASZ
 40
3.302
  9
$DIMEXO
 40
1.0
  9
$DIMDLI
 40
3.75
  9
$DIMRND
 40
0.0
  9
$DIMDLE
 40
0.0
  9
$DIMEXE
 40
1.0
  9
$DIMTP
 40
0.0
  9
$DIMTM
 40
0.0
  9
$DIMTXT
 40
3.5
  9
$DIMCEN
 40
2.5
  9
$DIMTSZ
 40
0.0
  9
$DIMTOL
 70
     0
  9
$DIMLIM
 70
     0
  9
$DIMTIH
 70
     1
  9
$DIMTOH
 70
     1
  9
$DIMSE1
 70
     0
  9
$DIMSE2
 70
     0
  9
$DIMTAD
 70
     1
  9
$DIMZIN
 70
     1
  9
$DIMBLK
  1

  9
$DIMASO
 70
     1
  9
$DIMSHO
 70
     1
  9
$DIMPOST
  1

  9
$DIMAPOST
  1

  9
$DIMALT
 70
     0
  9
$DIMALTD
 70
     3
  9
$DIMALTF
 40
0.0393700787
  9
$DIMLFAC
 40
1.0
  9
$DIMTOFL
 70
     1
  9
$DIMTVP
 40
0.0
  9
$DIMTIX
 70
     0
  9
$DIMSOXD
 70
     0
  9
$DIMSAH
 70
     0
  9
$DIMBLK1
  1

  9
$DIMBLK2
  1

  9
$DIMSTYLE
  2
ISO-25
  9
$DIMCLRD
 70
     0
  9
$DIMCLRE
 70
     0
  9
$DIMCLRT
 70
     0
  9
$DIMTFAC
 40
1.0
  9
$DIMGAP
 40
1.524
  9
$DIMJUST
 70
     0
  9
$DIMSD1
 70
     0
  9
$DIMSD2
 70
     0
  9
$DIMTOLJ
 70
     0
  9
$DIMTZIN
 70
     1
  9
$DIMALTZ
 70
     0
  9
$DIMALTTZ
 70
     0
  9
$DIMUPT
 70
     0
  9
$DIMDEC
 70
     0
  9
$DIMTDEC
 70
     4
  9
$DIMALTU
 70
     2
  9
$DIMALTTD
 70
     3
  9
$DIMTXSTY
  7
Standard
  9
$DIMAUNIT
 70
     0
  9
$DIMADEC
 70
     0
  9
$DIMALTRND
 40
0.0
  9
$DIMAZIN
 70
     0
  9
$DIMDSEP
 70
    44
  9
$DIMATFIT
 70
     3
  9
$DIMFRAC
 70
     0
  9
$DIMLDRBLK
  1

  9
$DIMLUNIT
 70
     2
  9
$DIMLWD
 70
    -2
  9
$DIMLWE
 70
    -2
  9
$DIMTMOVE
 70
     0
  9
$LUNITS
 70
     2
  9
$LUPREC
 70
     4
  9
$SKETCHINC
 40
1.0
  9
$FILLETRAD
 40
10.0
  9
$AUNITS
 70
     0
  9
$AUPREC
 70
     0
  9
$MENU
  1
.
  9
$ELEVATION
 40
0.0
  9
$PELEVATION
 40
0.0
  9
$THICKNESS
 40
0.0
  9
$LIMCHECK
 70
     0
  9
$CHAMFERA
 40
10.0
  9
$CHAMFERB
 40
10.0
  9
$CHAMFERC
 40
20.0
  9
$CHAMFERD
 40
0.0
  9
$SKPOLY
 70
     0
  9
$TDCREATE
 40
2457075.851867685
  9
$TDUCREATE
 40
2457075.768534352
  9
$TDUPDATE
 40
2457075.851867766
  9
$TDUUPDATE
 40
2457075.768534433
  9
$TDINDWG
 40
0.0000000116
  9
$TDUSRTIMER
 40
0.0000000116
  9
$USRTIMER
 70
     1
  9
$ANGBASE
 50
0.0
  9
$ANGDIR
 70
     0
  9
$PDMODE
 70
     0
  9
$PDSIZE
 40
-1.0
  9
$PLINEWID
 40
0.0
  9
$SPLFRAME
 70
     0
  9
$SPLINETYPE
 70
     6
  9
$SPLINESEGS
 70
     8
  9
$HANDSEED
  5
6F
  9
$SURFTAB1
 70
     6
  9
$SURFTAB2
 70
     6
  9
$SURFTYPE
 70
     6
  9
$SURFU
 70
     6
  9
$SURFV
 70
     6
  9
$UCSBASE
  2

  9
$UCSNAME
  2

  9
$UCSORG
 10
0.0
 20
0.0
 30
0.0
  9
$UCSXDIR
 10
1.0
 20
0.0
 30
0.0
  9
$UCSYDIR
 10
0.0
 20
1.0
 30
0.0
  9
$UCSORTHOREF
  2

  9
$UCSORTHOVIEW
 70
     0
  9
$UCSORGTOP
 10
0.0
 20
0.0
 30
0.0
  9
$UCSORGBOTTOM
 10
0.0
 20
0.0
 30
0.0
  9
$UCSORGLEFT
 10
0.0
 20
0.0
 30
0.0
  9
$UCSORGRIGHT
 10
0.0
 20
0.0
 30
0.0
  9
$UCSORGFRONT
 10
0.0
 20
0.0
 30
0.0
  9
$UCSORGBACK
 10
0.0
 20
0.0
 30
0.0
  9
$PUCSBASE
  2

  9
$PUCSNAME
  2

  9
$PUCSORG
 10
0.0
 20
0.0
 30
0.0
  9
$PUCSXDIR
 10
1.0
 20
0.0
 30
0.0
  9
$PUCSYDIR
 10
0.0
 20
1.0
 30
0.0
  9
$PUCSORTHOREF
  2

  9
$PUCSORTHOVIEW
 70
     0
  9
$PUCSORGTOP
 10
0.0
 20
0.0
 30
0.0
  9
$PUCSORGBOTTOM
 10
0.0
 20
0.0
 30
0.0
  9
$PUCSORGLEFT
 10
0.0
 20
0.0
 30
0.0
  9
$PUCSORGRIGHT
 10
0.0
 20
0.0
 30
0.0
  9
$PUCSORGFRONT
 10
0.0
 20
0.0
 30
0.0
  9
$PUCSORGBACK
 10
0.0
 20
0.0
 30
0.0
  9
$USERI1
 70
     0
  9
$USERI2
 70
     0
  9
$USERI3
 70
     0
  9
$USERI4
 70
     0
  9
$USERI5
 70
     0
  9
$USERR1
 40
0.0
  9
$USERR2
 40
0.0
  9
$USERR3
 40
0.0
  9
$USERR4
 40
0.0
  9
$USERR5
 40
0.0
  9
$WORLDVIEW
 70
     1
  9
$SHADEDGE
 70
     3
  9
$SHADEDIF
 70
    70
  9
$TILEMODE
 70
     1
  9
$MAXACTVP
 70
    64
  9
$PINSBASE
 10
0.0
 20
0.0
 30
0.0
  9
$PLIMCHECK
 70
     0
  9
$PEXTMIN
 10
1.0000000000E+20
 20
1.0000000000E+20
 30
1.0000000000E+20
  9
$PEXTMAX
 10
-1.0000000000E+20
 20
-1.0000000000E+20
 30
-1.0000000000E+20
  9
$PLIMMIN
 10
0.0
 20
0.0
  9
$PLIMMAX
 10
420.0
 20
297.0
  9
$UNITMODE
 70
     0
  9
$VISRETAIN
 70
     1
  9
$PLINEGEN
 70
     0
  9
$PSLTSCALE
 70
     1
  9
$TREEDEPTH
 70
  3020
  9
$CMLSTYLE
  2
Standard
  9
$CMLJUST
 70
     0
  9
$CMLSCALE
 40
20.0
  9
$PROXYGRAPHICS
 70
     1
  9
$MEASUREMENT
 70
     1
  9
$CELWEIGHT
370
    -1
  9
$ENDCAPS
280
     0
  9
$JOINSTYLE
280
     0
  9
$LWDISPLAY
290
     1
  9
$INSUNITS
 70
     4
  9
$HYPERLINKBASE
  1

  9
$STYLESHEET
  1

  9
$XEDIT
290
     1
  9
$CEPSNTYPE
380
     0
  9
$PSTYLEMODE
290
     1
  9
$FINGERPRINTGUID
  2
{D309F072-1C7E-4B0E-9CFA-B689CED3664B}
  9
$VERSIONGUID
  2
{FAEB1C32-E019-11D5-929B-00C0DF256EC4}
  9
$EXTNAMES
290
     1
  9
$PSVPSCALE
 40
0.0
  9
$OLESTARTUP
290
     0
  0
ENDSEC
  0
SECTION
  2
CLASSES
  0
CLASS
  1
ACDBDICTIONARYWDFLT
  2
AcDbDictionaryWithDefault
  3
ObjectDBX Classes
 90
        0
280
     0
281
     0
  0
CLASS
  1
VISUALSTYLE
  2
AcDbVisualStyle
  3
ObjectDBX Classes
 90
     4095
280
     0
281
     0
  0
CLASS
  1
MATERIAL
  2
AcDbMaterial
  3
ObjectDBX Classes
 90
     1153
280
     0
281
     0
  0
CLASS
  1
ACDBPLACEHOLDER
  2
AcDbPlaceHolder
  3
ObjectDBX Classes
 90
        0
280
     0
281
     0
  0
CLASS
  1
LAYOUT
  2
AcDbLayout
  3
ObjectDBX Classes
 90
        0
280
     0
281
     0
  0
ENDSEC
  0
SECTION
  2
TABLES
  0
TABLE
  2
VPORT
  5
8
330
0
100
AcDbSymbolTable
 70
     1
  0
VPORT
  5
29
330
8
100
AcDbSymbolTableRecord
100
AcDbViewportTableRecord
  2
*Active
 70
     0
 10
0.0
 20
0.0
 11
1.0
 21
1.0
 12
105.0
 22
148.5
 13
0.0
 23
0.0
 14
10.0
 24
10.0
 15
10.0
 25
10.0
 16
0.0
 26
0.0
 36
1.0
 17
0.0
 27
0.0
 37
0.0
 40
297.0
 41
0.7070707071
 42
50.0
 43
0.0
 44
0.0
 50
0.0
 51
0.0
 71
     0
 72
  2000
 73
     1
 74
     3
 75
     0
 76
     0
 77
     0
 78
     0
281
     0
 65
     1
110
0.0
120
0.0
130
0.0
111
1.0
121
0.0
131
0.0
112
0.0
122
1.0
132
0.0
 79
     0
146
0.0
  0
ENDTAB
  0
TABLE
  2
LTYPE
  5
5
330
0
100
AcDbSymbolTable
 70
     6
  0
LTYPE
  5
14
330
5
100
AcDbSymbolTableRecord
100
AcDbLinetypeTableRecord
  2
ByBlock
 70
     0
  3

 72
    65
 73
     0
 40
0.0
  0
LTYPE
  5
15
330
5
100
AcDbSymbolTableRecord
100
AcDbLinetypeTableRecord
  2
ByLayer
 70
     0
  3

 72
    65
 73
     0
 40
0.0
  0
LTYPE
  5
16
330
5
100
AcDbSymbolTableRecord
100
AcDbLinetypeTableRecord
  2
Continuous
 70
     0
  3
Solid line
 72
    65
 73
     0
 40
0.0
  0
LTYPE
  5
3F
330
5
100
AcDbSymbolTableRecord
100
AcDbLinetypeTableRecord
  2
HIDDEN
 70
     0
  3
Hidden __ __ __ __ __ __ __ __ __ __ __ __ __ __
 72
    65
 73
     2
 40
1.905
 49
1.27
 74
     0
 49
-0.635
 74
     0
  0
LTYPE
  5
40
330
5
100
AcDbSymbolTableRecord
100
AcDbLinetypeTableRecord
  2
PHANTOM
 70
     0
  3
Phantom ______  __  __  ______  __  __  ______
 72
    65
 73
     6
 40
12.7
 49
6.35
 74
     0
 49
-1.27
 74
     0
 49
1.27
 74
     0
 49
-1.27
 74
     0
 49
1.27
 74
     0
 49
-1.27
 74
     0
  0
LTYPE
  5
41
330
5
100
AcDbSymbolTableRecord
100
AcDbLinetypeTableRecord
  2
CENTER
 70
     0
  3
Center ____ _ ____ _ ____ _ ____ _ ____ _ ____
 72
    65
 73
     4
 40
10.16
 49
6.35
 74
     0
 49
-1.27
 74
     0
 49
1.27
 74
     0
 49
-1.27
 74
     0
  0
LTYPE
  5
42
330
5
100
AcDbSymbolTableRecord
100
AcDbLinetypeTableRecord
  2
CENTERX2
 70
     0
  3
Center (2x) ________  __  ________  __  _____
 72
    65
 73
     4
 40
20.32
 49
12.7
 74
     0
 49
-2.54
 74
     0
 49
2.54
 74
     0
 49
-2.54
 74
     0
  0
LTYPE
  5
43
330
5
100
AcDbSymbolTableRecord
100
AcDbLinetypeTableRecord
  2
DOT2
 70
     0
  3
Dot (.5x) ........................................
 72
    65
 73
     2
 40
0.635
 49
0.0
 74
     0
 49
-0.635
 74
     0
  0
ENDTAB
  0
TABLE
  2
LAYER
  5
2
330
0
100
AcDbSymbolTable
 70
     3
  0
LAYER
  5
10
330
2
100
AcDbSymbolTableRecord
100
AcDbLayerTableRecord
  2
0
 70
     0
 62
     7
  6
Continuous
370
    -3
390
F
  0
LAYER
  5
44
330
2
100
AcDbSymbolTableRecord
100
AcDbLayerTableRecord
  2
SLD-0
 70
     0
 62
   179
  6
Continuous
370
    -3
390
F
  0
LAYER
  5
45
330
2
100
AcDbSymbolTableRecord
100
AcDbLayerTableRecord
  2
FORMAT
 70
     0
 62
     7
  6
Continuous
370
    -3
390
F
  0
ENDTAB
  0
TABLE
  2
STYLE
  5
3
330
0
100
AcDbSymbolTable
 70
     1
  0
STYLE
  5
11
330
3
100
AcDbSymbolTableRecord
100
AcDbTextStyleTableRecord
  2
Standard
 70
     0
 40
0.0
 41
1.0
 50
0.0
 71
     0
 42
3.5
  3
txt
  4

  0
ENDTAB
  0
TABLE
  2
VIEW
  5
6
330
0
100
AcDbSymbolTable
 70
     0
  0
ENDTAB
  0
TABLE
  2
UCS
  5
7
330
0
100
AcDbSymbolTable
 70
     0
  0
ENDTAB
  0
TABLE
  2
APPID
  5
9
330
0
100
AcDbSymbolTable
 70
     1
  0
APPID
  5
12
330
9
100
AcDbSymbolTableRecord
100
AcDbRegAppTableRecord
  2
ACAD
 70
     0
  0
ENDTAB
  0
TABLE
  2
DIMSTYLE
  5
A
330
0
100
AcDbSymbolTable
 70
     1
100
AcDbDimStyleTable
  0
DIMSTYLE
105
27
330
A
100
AcDbSymbolTableRecord
100
AcDbDimStyleTableRecord
  2
ISO-25
 70
     0
 41
2.5
 42
0.625
 43
3.75
 44
1.25
 73
     0
 74
     0
 77
     1
 78
     8
140
2.5
141
2.5
143
0.0393700787
147
0.625
171
     3
172
     1
178
     0
271
     2
272
     2
274
     3
278
    44
283
     0
284
     8
340
11
  0
ENDTAB
  0
TABLE
  2
BLOCK_RECORD
  5
1
330
0
100
AcDbSymbolTable
 70
     1
  0
BLOCK_RECORD
  5
1F
330
1
100
AcDbSymbolTableRecord
100
AcDbBlockTableRecord
  2
*Model_Space
340
22
  0
BLOCK_RECORD
  5
1B
330
1
100
AcDbSymbolTableRecord
100
AcDbBlockTableRecord
  2
*Paper_Space
340
1E
  0
BLOCK_RECORD
  5
23
330
1
100
AcDbSymbolTableRecord
100
AcDbBlockTableRecord
  2
*Paper_Space0
340
26
  0
ENDTAB
  0
ENDSEC
  0
SECTION
  2
BLOCKS
  0
BLOCK
  5
20
330
1F
100
AcDbEntity
  8
0
100
AcDbBlockBegin
  2
*Model_Space
 70
     0
 10
0.0
 20
0.0
 30
0.0
  3
*Model_Space
  1

  0
ENDBLK
  5
21
330
1F
100
AcDbEntity
  8
0
100
AcDbBlockEnd
  0
BLOCK
  5
1C
330
1B
100
AcDbEntity
 67
     1
  8
0
100
AcDbBlockBegin
  2
*Paper_Space
 70
     0
 10
0.0
 20
0.0
 30
0.0
  3
*Paper_Space
  1

  0
ENDBLK
  5
1D
330
1B
100
AcDbEntity
 67
     1
  8
0
100
AcDbBlockEnd
  0
BLOCK
  5
24
330
23
100
AcDbEntity
  8
0
100
AcDbBlockBegin
  2
*Paper_Space0
 70
     0
 10
0.0
 20
0.0
 30
0.0
  3
*Paper_Space0
  1

  0
ENDBLK
  5
25
330
23
100
AcDbEntity
  8
0
100
AcDbBlockEnd
  0
ENDSEC
  0
SECTION
  2
ENTITIES
  0
LINE
  5
46
330
1F
100
AcDbEntity
  8
SLD-0
 62
   179
100
AcDbLine
 10
14.1067961165
 20
6.5825242718
 30
0.0
 11
15.4174757282
 21
6.5825242718
 31
0.0
  0
LINE
  5
47
330
1F
100
AcDbEntity
  8
SLD-0
 62
   179
100
AcDbLine
 10
15.4174757282
 20
6.5825242718
 30
0.0
 11
15.4174757282
 21
5.5145631068
 31
0.0
  0
LINE
  5
48
330
1F
100
AcDbEntity
  8
SLD-0
 62
   179
100
AcDbLine
 10
15.4174757282
 20
5.5145631068
 30
0.0
 11
14.0097087379
 21
5.5145631068
 31
0.0
  0
LINE
  5
49
330
1F
100
AcDbEntity
  8
SLD-0
100
AcDbLine
 10
1.0
 20
1.0
 30
0.0
 11
1.0
 21
11.0
 31
0.0
  0
LINE
  5
4A
330
1F
100
AcDbEntity
  8
SLD-0
100
AcDbLine
 10
14.2936226649
 20
1.0
 30
0.0
 11
15.5557585872
 21
1.0
 31
0.0
  0
LINE
  5
4B
330
1F
100
AcDbEntity
  8
SLD-0
100
AcDbLine
 10
14.3009708738
 20
11.0
 30
0.0
 11
15.5631067961
 21
11.0
 31
0.0
  0
LINE
  5
4C
330
1F
100
AcDbEntity
  8
SLD-0
100
AcDbLine
 10
23.6897645193
 20
11.0
 30
0.0
 11
23.6897644818
 21
5.9924880318
 31
0.0
  0
LINE
  5
4D
330
1F
100
AcDbEntity
  8
SLD-0
100
AcDbLine
 10
24.962735411
 20
11.0
 30
0.0
 11
24.962735411
 21
5.9916645284
 31
0.0
  0
LINE
  5
4E
330
1F
100
AcDbEntity
  8
SLD-0
100
AcDbLine
 10
1.0
 20
11.0
 30
0.0
 11
13.0388349515
 21
11.0
 31
0.0
  0
LINE
  5
4F
330
1F
100
AcDbEntity
  8
SLD-0
 62
   179
100
AcDbLine
 10
1.0
 20
11.0
 30
0.0
 11
1.0
 21
1.0
 31
0.0
  0
LINE
  5
50
330
1F
100
AcDbEntity
  8
SLD-0
 62
   179
100
AcDbLine
 10
1.0
 20
1.0
 30
0.0
 11
13.0388349515
 21
1.0
 31
0.0
  0
LINE
  5
51
330
1F
100
AcDbEntity
  8
SLD-0
100
AcDbLine
 10
27.5291559979
 20
1.0
 30
0.0
 11
38.3786407767
 21
1.0
 31
0.0
  0
LINE
  5
52
330
1F
100
AcDbEntity
  8
SLD-0
  6
CENTERX2
 62
   179
100
AcDbLine
 10
20.4298814687
 20
1.0
 30
0.0
 11
21.6559310338
 21
1.0
 31
0.0
  0
LINE
  5
53
330
1F
100
AcDbEntity
  8
SLD-0
 62
   179
100
AcDbLine
 10
21.6559310338
 20
1.0
 30
0.0
 11
21.6559310338
 21
5.5327631649
 31
0.0
  0
LINE
  5
54
330
1F
100
AcDbEntity
  8
SLD-0
  6
CENTERX2
 62
   179
100
AcDbLine
 10
21.6559310338
 20
5.5327631649
 30
0.0
 11
22.9578881795
 21
5.5327631649
 31
0.0
  0
LINE
  5
55
330
1F
100
AcDbEntity
  8
SLD-0
  6
CENTERX2
 62
   179
100
AcDbLine
 10
22.9578881795
 20
5.5327631649
 30
0.0
 11
22.9578881795
 21
6.5688661552
 31
0.0
  0
LINE
  5
56
330
1F
100
AcDbEntity
  8
SLD-0
  6
CENTERX2
 62
   179
100
AcDbLine
 10
22.9578881795
 20
6.5688661552
 30
0.0
 11
21.6763052863
 21
6.5688661552
 31
0.0
  0
LINE
  5
57
330
1F
100
AcDbEntity
  8
SLD-0
  6
CENTERX2
 62
   179
100
AcDbLine
 10
21.814098618
 20
11.0
 30
0.0
 11
23.1140907814
 21
11.0
 31
0.0
  0
LINE
  5
58
330
1F
100
AcDbEntity
  8
SLD-0
 62
   179
100
AcDbLine
 10
20.4298814687
 20
1.0
 30
0.0
 11
20.4298814687
 21
5.9893498106
 31
0.0
  0
LINE
  5
59
330
1F
100
AcDbEntity
  8
SLD-0
  6
CENTERX2
 62
   179
100
AcDbLine
 10
25.1005760051
 20
1.0
 30
0.0
 11
26.37437683
 21
1.0
 31
0.0
  0
LINE
  5
5A
330
1F
100
AcDbEntity
  8
SLD-0
 62
   179
100
AcDbLine
 10
23.6897645193
 20
11.0
 30
0.0
 11
24.962735411
 21
11.0
 31
0.0
  0
LINE
  5
5B
330
1F
100
AcDbEntity
  8
SLD-0
 62
   179
100
AcDbLine
 10
26.117514579
 20
6.0263565969
 30
0.0
 11
26.117514579
 21
11.0
 31
0.0
  0
LINE
  5
5C
330
1F
100
AcDbEntity
  8
SLD-0
 62
   179
100
AcDbLine
 10
26.117514579
 20
11.0
 30
0.0
 11
38.3786407767
 21
11.0
 31
0.0
  0
LINE
  5
5D
330
1F
100
AcDbEntity
  8
SLD-0
 62
   179
100
AcDbLine
 10
38.3786407767
 20
11.0
 30
0.0
 11
38.3786407767
 21
1.0
 31
0.0
  0
LINE
  5
5E
330
1F
100
AcDbEntity
  8
SLD-0
 62
   179
100
AcDbLine
 10
17.6019417476
 20
11.0
 30
0.0
 11
16.3883495146
 21
11.0
 31
0.0
  0
LINE
  5
5F
330
1F
100
AcDbEntity
  8
SLD-0
 62
   179
100
AcDbLine
 10
16.3883495146
 20
11.0
 30
0.0
 11
16.3883495146
 21
1.0
 31
0.0
  0
LINE
  5
60
330
1F
100
AcDbEntity
  8
SLD-0
 62
   179
100
AcDbLine
 10
16.3883495146
 20
1.0
 30
0.0
 11
17.6019417476
 21
1.0
 31
0.0
  0
LINE
  5
61
330
1F
100
AcDbEntity
  8
SLD-0
 62
   179
100
AcDbLine
 10
17.6019417476
 20
1.0
 30
0.0
 11
17.6019417476
 21
11.0
 31
0.0
  0
LINE
  5
62
330
1F
100
AcDbEntity
  8
SLD-0
 62
   179
100
AcDbLine
 10
19.2090195678
 20
11.0
 30
0.0
 11
17.9286351601
 21
11.0
 31
0.0
  0
LINE
  5
63
330
1F
100
AcDbEntity
  8
SLD-0
 62
   179
100
AcDbLine
 10
17.9286351601
 20
5.9893565241
 30
0.0
 11
19.2090195678
 21
5.9893565241
 31
0.0
  0
LWPOLYLINE
  5
64
330
1F
100
AcDbEntity
  8
SLD-0
100
AcDbPolyline
 90
       31
 70
   128
 43
0.0
 10
13.0388349514
 20
1.0
 10
12.8528655009
 20
1.2726607758
 10
12.6792940138
 20
1.548649543
 10
12.5181204901
 20
1.8279663014
 10
12.3693449297
 20
2.1106110511
 10
12.2329673327
 20
2.3965837921
 10
12.108987699
 20
2.6858845244
 10
11.9974060287
 20
2.978513248
 10
11.8982223218
 20
3.2744699628
 10
11.8114365782
 20
3.573754669
 10
11.737048798
 20
3.8763673664
 10
11.6750589812
 20
4.1823080551
 10
11.6254671277
 20
4.4915767351
 10
11.5882732376
 20
4.8041734064
 10
11.5634773109
 20
5.120098069
 10
11.5510793475
 20
5.4393507229
 10
11.5510793475
 20
5.761931368
 10
11.5634773109
 20
6.0878400045
 10
11.5882732376
 20
6.4170766322
 10
11.6254671277
 20
6.7496412513
 10
11.6750589812
 20
7.0855338616
 10
11.737048798
 20
7.4247544632
 10
11.8114365782
 20
7.7673030561
 10
11.8982223218
 20
8.1131796402
 10
11.9974060287
 20
8.4623842157
 10
12.108987699
 20
8.8149167824
 10
12.2329673327
 20
9.1707773405
 10
12.3693449297
 20
9.5299658898
 10
12.5181204901
 20
9.8924824304
 10
12.6792940138
 20
10.2583269623
 10
12.8528655009
 20
10.6274994855
  0
LWPOLYLINE
  5
65
330
1F
100
AcDbEntity
  8
SLD-0
100
AcDbPolyline
 90
       31
 70
   128
 43
0.0
 10
14.3009708738
 20
1.0
 10
14.1150014233
 20
1.2726607758
 10
13.9414299362
 20
1.548649543
 10
13.7802564124
 20
1.8279663014
 10
13.631480852
 20
2.1106110511
 10
13.495103255
 20
2.3965837921
 10
13.3711236213
 20
2.6858845244
 10
13.259541951
 20
2.9785132479
 10
13.1603582441
 20
3.2744699628
 10
13.0735725006
 20
3.5737546689
 10
12.9991847204
 20
3.8763673664
 10
12.9371949035
 20
4.1823080551
 10
12.8876030501
 20
4.4915767351
 10
12.85040916
 20
4.8041734064
 10
12.8256132332
 20
5.120098069
 10
12.8132152699
 20
5.4393507229
 10
12.8132152699
 20
5.761931368
 10
12.8256132332
 20
6.0878400045
 10
12.85040916
 20
6.4170766322
 10
12.8876030501
 20
6.7496412512
 10
12.9371949035
 20
7.0855338616
 10
12.9991847204
 20
7.4247544632
 10
13.0735725005
 20
7.767303056
 10
13.1603582441
 20
8.1131796402
 10
13.259541951
 20
8.4623842157
 10
13.3711236213
 20
8.8149167824
 10
13.495103255
 20
9.1707773405
 10
13.631480852
 20
9.5299658898
 10
13.7802564124
 20
9.8924824304
 10
13.9414299362
 20
10.2583269623
 10
14.1150014233
 20
10.6274994855
  0
LWPOLYLINE
  5
66
330
1F
100
AcDbEntity
  8
SLD-0
100
AcDbPolyline
 90
       15
 70
   128
 43
0.0
 10
15.563106796
 20
1.0
 10
15.3709775631
 20
1.2701749179
 10
15.1915010963
 20
1.544749258
 10
15.0246773955
 20
1.8237230205
 10
14.8705064608
 20
2.1070962052
 10
14.7289882921
 20
2.3948688122
 10
14.6001228894
 20
2.6870408414
 10
14.4839102528
 20
2.9836122929
 10
14.3803503823
 20
3.2845831667
 10
14.2894432778
 20
3.5899534628
 10
14.2111889393
 20
3.8997231811
 10
14.1455873669
 20
4.2138923217
 10
14.0926385605
 20
4.5324608846
 10
14.0523425202
 20
4.8554288697
 10
14.024699246
 20
5.1827962771
  0
LWPOLYLINE
  5
67
330
1F
100
AcDbEntity
  8
SLD-0
100
AcDbPolyline
 90
       11
 70
   128
 43
0.0
 10
15.5631067961
 20
11.0
 10
15.3435486659
 20
10.6232266289
 10
15.1414237858
 20
10.2414901915
 10
14.9567321557
 20
9.8547906878
 10
14.7894737757
 20
9.4631281179
 10
14.6396486457
 20
9.0665024816
 10
14.5072567657
 20
8.664913779
 10
14.3922981358
 20
8.2583620102
 10
14.2947727559
 20
7.846847175
 10
14.214680626
 20
7.4303692736
 10
14.1520217462
 20
7.0089283059
  0
LWPOLYLINE
  5
68
330
1F
100
AcDbEntity
  8
SLD-0
100
AcDbPolyline
 90
       40
 70
   128
 43
0.0
 10
17.9286351601
 20
11.0
 10
18.0266647659
 20
10.8722778522
 10
18.1196672126
 20
10.7446816563
 10
18.2076424999
 20
10.6172114121
 10
18.290590628
 20
10.4898671199
 10
18.3685115967
 20
10.3626487794
 10
18.4414054062
 20
10.2355563908
 10
18.5092720565
 20
10.1085899541
 10
18.5721115474
 20
9.9817494692
 10
18.6299238791
 20
9.8550349361
 10
18.6827090515
 20
9.7284463549
 10
18.7304670646
 20
9.6019837255
 10
18.7731979185
 20
9.475647048
 10
18.8109016131
 20
9.3494363223
 10
18.8435781484
 20
9.2233515484
 10
18.8712275244
 20
9.0973927264
 10
18.8938497411
 20
8.9715598562
 10
18.9114447986
 20
8.8458529378
 10
18.9240126968
 20
8.7202719713
 10
18.9315534357
 20
8.5948169567
 10
18.9340670153
 20
8.4694878939
 10
18.9315534357
 20
8.3442847829
 10
18.9240126968
 20
8.2192076238
 10
18.9114447986
 20
8.0942564165
 10
18.8938497411
 20
7.969431161
 10
18.8712275244
 20
7.8447318574
 10
18.8435781484
 20
7.7201585056
 10
18.8109016131
 20
7.5957111057
 10
18.7731979185
 20
7.4713896576
 10
18.7304670646
 20
7.3471941614
 10
18.6827090515
 20
7.2231246169
 10
18.6299238791
 20
7.0991810244
 10
18.5721115474
 20
6.9753633836
 10
18.5092720565
 20
6.8516716948
 10
18.4414054063
 20
6.7281059577
 10
18.3685115967
 20
6.6046661725
 10
18.290590628
 20
6.4813523392
 10
18.2076424999
 20
6.3581644576
 10
18.1196672126
 20
6.2351025279
 10
18.026664766
 20
6.1121665501
  0
LWPOLYLINE
  5
69
330
1F
100
AcDbEntity
  8
SLD-0
100
AcDbPolyline
 90
       37
 70
   128
 43
0.0
 10
19.2090195678
 20
11.0
 10
19.3088008519
 20
10.8637753637
 10
19.4030387314
 20
10.7275952741
 10
19.4917332061
 20
10.5914597311
 10
19.5748842762
 20
10.4553687348
 10
19.6524919416
 20
10.3193222851
 10
19.7245562024
 20
10.1833203821
 10
19.7910770584
 20
10.0473630257
 10
19.8520545098
 20
9.9114502159
 10
19.9074885566
 20
9.7755819528
 10
19.9573791986
 20
9.6397582364
 10
20.001726436
 20
9.5039790666
 10
20.0405302687
 20
9.3682444434
 10
20.0737906967
 20
9.2325543669
 10
20.1015077201
 20
9.096908837
 10
20.1236813388
 20
8.9613078538
 10
20.1403115528
 20
8.8257514172
 10
20.1513983622
 20
8.6902395273
 10
20.1569417668
 20
8.554772184
 10
20.1569417668
 20
8.4193493873
 10
20.1513983622
 20
8.2839711373
 10
20.1403115528
 20
8.148637434
 10
20.1236813388
 20
8.0133482773
 10
20.1015077201
 20
7.8781036672
 10
20.0737906968
 20
7.7429036038
 10
20.0405302687
 20
7.607748087
 10
20.001726436
 20
7.4726371169
 10
19.9573791986
 20
7.3375706934
 10
19.9074885566
 20
7.2025488166
 10
19.8520545099
 20
7.0675714864
 10
19.7910770585
 20
6.9326387028
 10
19.7245562024
 20
6.7977504659
 10
19.6524919416
 20
6.6629067757
 10
19.5748842762
 20
6.5281076321
 10
19.4917332061
 20
6.3933530351
 10
19.4030387314
 20
6.2586429848
 10
19.3088008519
 20
6.1239774811
  0
LWPOLYLINE
  5
6A
330
1F
100
AcDbEntity
  8
SLD-0
100
AcDbPolyline
 90
       11
 70
   128
 43
0.0
 10
21.814098618
 20
11.0
 10
21.5893557899
 20
10.5691108104
 10
21.3843939428
 20
10.133296728
 10
21.1992130769
 20
9.6925577528
 10
21.033813192
 20
9.2468938848
 10
20.8881942883
 20
8.796305124
 10
20.7623563656
 20
8.3407914704
 10
20.6562994241
 20
7.880352924
 10
20.5700234636
 20
7.4149894849
 10
20.5035284842
 20
6.9447011529
 10
20.4568144859
 20
6.4694879281
  0
LWPOLYLINE
  5
6B
330
1F
100
AcDbEntity
  8
SLD-0
100
AcDbPolyline
 90
       12
 70
   128
 43
0.0
 10
23.1140907814
 20
11.0
 10
22.9078313604
 20
10.6605904208
 10
22.7172890236
 20
10.3157532825
 10
22.542463771
 20
9.9654885853
 10
22.3833556026
 20
9.6097963291
 10
22.2399645183
 20
9.2486765139
 10
22.1122905183
 20
8.8821291396
 10
22.0003336025
 20
8.5101542064
 10
21.9040937708
 20
8.1327517141
 10
21.8235710234
 20
7.7499216629
 10
21.7587653602
 20
7.3616640527
 10
21.7096767811
 20
6.9679788834
  0
LWPOLYLINE
  5
6C
330
1F
100
AcDbEntity
  8
SLD-0
100
AcDbPolyline
 90
       14
 70
   128
 43
0.0
 10
23.6897644818
 20
5.9924880318
 10
23.6969624998
 20
5.6131779181
 10
23.7185565537
 20
5.2373607007
 10
23.7545466436
 20
4.8650363795
 10
23.8049327694
 20
4.4962049546
 10
23.8697149312
 20
4.130866426
 10
23.948893129
 20
3.7690207936
 10
24.0424673627
 20
3.4106680575
 10
24.1504376323
 20
3.0558082176
 10
24.2728039379
 20
2.704441274
 10
24.4095662794
 20
2.3565672267
 10
24.5607246569
 20
2.0121860756
 10
24.7262790704
 20
1.6712978208
 10
24.9062295198
 20
1.3339024623
  0
LWPOLYLINE
  5
6D
330
1F
100
AcDbEntity
  8
SLD-0
100
AcDbPolyline
 90
       14
 70
   128
 43
0.0
 10
24.962735411
 20
5.9916645284
 10
24.9667229102
 20
5.6140484716
 10
24.9856094911
 20
5.2396737364
 10
25.0193951536
 20
4.8685403229
 10
25.0680798977
 20
4.5006482309
 10
25.1316637235
 20
4.1359974606
 10
25.210146631
 20
3.7745880118
 10
25.3035286201
 20
3.4164198847
 10
25.4118096908
 20
3.0614930792
 10
25.5349898432
 20
2.7098075953
 10
25.6730690773
 20
2.361363433
 10
25.826047393
 20
2.0161605923
 10
25.9939247903
 20
1.6741990733
 10
26.1767012693
 20
1.3354788758
  0
LWPOLYLINE
  5
6E
330
1F
100
AcDbEntity
  8
SLD-0
100
AcDbPolyline
 90
       13
 70
   128
 43
0.0
 10
26.117514579
 20
6.0263565969
 10
26.1270394918
 20
5.6138567542
 10
26.1530748861
 20
5.2056664161
 10
26.1956207618
 20
4.8017855826
 10
26.2546771189
 20
4.4022142536
 10
26.3302439575
 20
4.0069524293
 10
26.4223212775
 20
3.6160001095
 10
26.530909079
 20
3.2293572944
 10
26.6560073619
 20
2.8470239838
 10
26.7976161262
 20
2.4690001779
 10
26.955735372
 20
2.0952858765
 10
27.1303650992
 20
1.7258810797
 10
27.3215053078
 20
1.3607857876
  0
ENDSEC
  0
SECTION
  2
OBJECTS
  0
DICTIONARY
  5
C
330
0
100
AcDbDictionary
281
     1
  3
ACAD_GROUP
350
D
  3
ACAD_LAYOUT
350
1A
  3
ACAD_MLINESTYLE
350
17
  3
ACAD_PLOTSETTINGS
350
19
  3
ACAD_PLOTSTYLENAME
350
E
  0
DICTIONARY
  5
D
102
{ACAD_REACTORS
330
C
102
}
330
C
100
AcDbDictionary
281
     1
  0
DICTIONARY
  5
1A
102
{ACAD_REACTORS
330
C
102
}
330
C
100
AcDbDictionary
281
     1
  3
Layout1
350
1E
  3
Layout2
350
26
  3
Model
350
22
  0
DICTIONARY
  5
17
102
{ACAD_REACTORS
330
C
102
}
330
C
100
AcDbDictionary
281
     1
  3
Standard
350
18
  0
DICTIONARY
  5
19
102
{ACAD_REACTORS
330
C
102
}
330
C
100
AcDbDictionary
281
     1
  0
ACDBDICTIONARYWDFLT
  5
E
102
{ACAD_REACTORS
330
C
102
}
330
C
100
AcDbDictionary
281
     1
  3
Normal
350
F
100
AcDbDictionaryWithDefault
340
F
  0
LAYOUT
  5
1E
102
{ACAD_REACTORS
330
1A
102
}
330
1A
100
AcDbPlotSettings
  1

  2
none_device
  4

  6

 40
0.0
 41
0.0
 42
0.0
 43
0.0
 44
0.0
 45
0.0
 46
0.0
 47
0.0
 48
0.0
 49
0.0
140
0.0
141
0.0
142
1.0
143
1.0
 70
   688
 72
     0
 73
     0
 74
     5
  7

 75
    16
147
1.0
148
0.0
149
0.0
100
AcDbLayout
  1
Layout1
 70
     1
 71
     1
 10
0.0
 20
0.0
 11
420.0
 21
297.0
 12
0.0
 22
0.0
 32
0.0
 14
1.0000000000E+20
 24
1.0000000000E+20
 34
1.0000000000E+20
 15
-1.0000000000E+20
 25
-1.0000000000E+20
 35
-1.0000000000E+20
146
0.0
 13
0.0
 23
0.0
 33
0.0
 16
1.0
 26
0.0
 36
0.0
 17
0.0
 27
1.0
 37
0.0
 76
     0
330
1B
  0
LAYOUT
  5
26
102
{ACAD_REACTORS
330
1A
102
}
330
1A
100
AcDbPlotSettings
  1

  2
none_device
  4

  6

 40
0.0
 41
0.0
 42
0.0
 43
0.0
 44
0.0
 45
0.0
 46
0.0
 47
0.0
 48
0.0
 49
0.0
140
0.0
141
0.0
142
1.0
143
1.0
 70
   688
 72
     0
 73
     0
 74
     5
  7

 75
    16
147
1.0
148
0.0
149
0.0
100
AcDbLayout
  1
Layout2
 70
     1
 71
     2
 10
0.0
 20
0.0
 11
0.0
 21
0.0
 12
0.0
 22
0.0
 32
0.0
 14
0.0
 24
0.0
 34
0.0
 15
0.0
 25
0.0
 35
0.0
146
0.0
 13
0.0
 23
0.0
 33
0.0
 16
1.0
 26
0.0
 36
0.0
 17
0.0
 27
1.0
 37
0.0
 76
     0
330
23
  0
LAYOUT
  5
22
102
{ACAD_REACTORS
330
1A
102
}
330
1A
100
AcDbPlotSettings
  1

  2
none_device
  4

  6

 40
0.0
 41
0.0
 42
0.0
 43
0.0
 44
0.0
 45
0.0
 46
0.0
 47
0.0
 48
0.0
 49
0.0
140
0.0
141
0.0
142
1.0
143
1.0
 70
  1712
 72
     0
 73
     0
 74
     0
  7

 75
     0
147
1.0
148
0.0
149
0.0
100
AcDbLayout
  1
Model
 70
     1
 71
     0
 10
0.0
 20
0.0
 11
210.0
 21
297.0
 12
0.0
 22
0.0
 32
0.0
 14
0.0
 24
0.0
 34
0.0
 15
210.0
 25
297.0
 35
0.0
146
0.0
 13
0.0
 23
0.0
 33
0.0
 16
1.0
 26
0.0
 36
0.0
 17
0.0
 27
1.0
 37
0.0
 76
     0
330
1F
331
29
  0
MLINESTYLE
  5
18
102
{ACAD_REACTORS
330
17
102
}
330
17
100
AcDbMlineStyle
  2
Standard
 70
     0
  3

 62
   256
 51
90.0
 52
90.0
 71
     2
 49
0.5
 62
   256
  6
BYLAYER
 49
-0.5
 62
   256
  6
BYLAYER
  0
ACDBPLACEHOLDER
  5
F
102
{ACAD_REACTORS
330
E
102
}
330
E
  0
ENDSEC
  0
EOF
