  0
SECTION
  2
HEADER
  9
$ACADVER
  1
AC1015
  9
$ACADMAINTVER
 70
     6
  9
$DWGCODEPAGE
  3
ANSI_1254
  9
$INSBASE
 10
0.0
 20
0.0
 30
0.0
  9
$EXTMIN
 10
0.0
 20
0.0
 30
0.0
  9
$EXTMAX
 10
210.0
 20
297.0
 30
0.0
  9
$LIMMIN
 10
0.0
 20
0.0
  9
$LIMMAX
 10
210.0
 20
297.0
  9
$ORTHOMODE
 70
     0
  9
$REGENMODE
 70
     1
  9
$FILLMODE
 70
     1
  9
$QTEXTMODE
 70
     0
  9
$MIRRTEXT
 70
     1
  9
$LTSCALE
 40
1.0
  9
$ATTMODE
 70
     1
  9
$TEXTSIZE
 40
3.5
  9
$TRACEWID
 40
1.0
  9
$TEXTSTYLE
  7
Standard
  9
$CLAYER
  8
0
  9
$CELTYPE
  6
ByLayer
  9
$CECOLOR
 62
   256
  9
$CELTSCALE
 40
1.0
  9
$DISPSILH
 70
     0
  9
$DIMSCALE
 40
1.0
  9
$DIMASZ
 40
3.302
  9
$DIMEXO
 40
1.0
  9
$DIMDLI
 40
3.75
  9
$DIMRND
 40
0.0
  9
$DIMDLE
 40
0.0
  9
$DIMEXE
 40
1.0
  9
$DIMTP
 40
0.0
  9
$DIMTM
 40
0.0
  9
$DIMTXT
 40
3.5
  9
$DIMCEN
 40
2.5
  9
$DIMTSZ
 40
0.0
  9
$DIMTOL
 70
     0
  9
$DIMLIM
 70
     0
  9
$DIMTIH
 70
     1
  9
$DIMTOH
 70
     1
  9
$DIMSE1
 70
     0
  9
$DIMSE2
 70
     0
  9
$DIMTAD
 70
     1
  9
$DIMZIN
 70
     1
  9
$DIMBLK
  1

  9
$DIMASO
 70
     1
  9
$DIMSHO
 70
     1
  9
$DIMPOST
  1

  9
$DIMAPOST
  1

  9
$DIMALT
 70
     0
  9
$DIMALTD
 70
     3
  9
$DIMALTF
 40
0.0393700787
  9
$DIMLFAC
 40
1.0
  9
$DIMTOFL
 70
     1
  9
$DIMTVP
 40
0.0
  9
$DIMTIX
 70
     0
  9
$DIMSOXD
 70
     0
  9
$DIMSAH
 70
     0
  9
$DIMBLK1
  1

  9
$DIMBLK2
  1

  9
$DIMSTYLE
  2
ISO-25
  9
$DIMCLRD
 70
     0
  9
$DIMCLRE
 70
     0
  9
$DIMCLRT
 70
     0
  9
$DIMTFAC
 40
1.0
  9
$DIMGAP
 40
1.524
  9
$DIMJUST
 70
     0
  9
$DIMSD1
 70
     0
  9
$DIMSD2
 70
     0
  9
$DIMTOLJ
 70
     0
  9
$DIMTZIN
 70
     1
  9
$DIMALTZ
 70
     0
  9
$DIMALTTZ
 70
     0
  9
$DIMUPT
 70
     0
  9
$DIMDEC
 70
     0
  9
$DIMTDEC
 70
     4
  9
$DIMALTU
 70
     2
  9
$DIMALTTD
 70
     3
  9
$DIMTXSTY
  7
Standard
  9
$DIMAUNIT
 70
     0
  9
$DIMADEC
 70
     0
  9
$DIMALTRND
 40
0.0
  9
$DIMAZIN
 70
     0
  9
$DIMDSEP
 70
    44
  9
$DIMATFIT
 70
     3
  9
$DIMFRAC
 70
     0
  9
$DIMLDRBLK
  1

  9
$DIMLUNIT
 70
     2
  9
$DIMLWD
 70
    -2
  9
$DIMLWE
 70
    -2
  9
$DIMTMOVE
 70
     0
  9
$LUNITS
 70
     2
  9
$LUPREC
 70
     4
  9
$SKETCHINC
 40
1.0
  9
$FILLETRAD
 40
10.0
  9
$AUNITS
 70
     0
  9
$AUPREC
 70
     0
  9
$MENU
  1
.
  9
$ELEVATION
 40
0.0
  9
$PELEVATION
 40
0.0
  9
$THICKNESS
 40
0.0
  9
$LIMCHECK
 70
     0
  9
$CHAMFERA
 40
10.0
  9
$CHAMFERB
 40
10.0
  9
$CHAMFERC
 40
20.0
  9
$CHAMFERD
 40
0.0
  9
$SKPOLY
 70
     0
  9
$TDCREATE
 40
2457075.855674386
  9
$TDUCREATE
 40
2457075.772341053
  9
$TDUPDATE
 40
2457075.855674468
  9
$TDUUPDATE
 40
2457075.772341134
  9
$TDINDWG
 40
0.0000000116
  9
$TDUSRTIMER
 40
0.0000000116
  9
$USRTIMER
 70
     1
  9
$ANGBASE
 50
0.0
  9
$ANGDIR
 70
     0
  9
$PDMODE
 70
     0
  9
$PDSIZE
 40
-1.0
  9
$PLINEWID
 40
0.0
  9
$SPLFRAME
 70
     0
  9
$SPLINETYPE
 70
     6
  9
$SPLINESEGS
 70
     8
  9
$HANDSEED
  5
6F
  9
$SURFTAB1
 70
     6
  9
$SURFTAB2
 70
     6
  9
$SURFTYPE
 70
     6
  9
$SURFU
 70
     6
  9
$SURFV
 70
     6
  9
$UCSBASE
  2

  9
$UCSNAME
  2

  9
$UCSORG
 10
0.0
 20
0.0
 30
0.0
  9
$UCSXDIR
 10
1.0
 20
0.0
 30
0.0
  9
$UCSYDIR
 10
0.0
 20
1.0
 30
0.0
  9
$UCSORTHOREF
  2

  9
$UCSORTHOVIEW
 70
     0
  9
$UCSORGTOP
 10
0.0
 20
0.0
 30
0.0
  9
$UCSORGBOTTOM
 10
0.0
 20
0.0
 30
0.0
  9
$UCSORGLEFT
 10
0.0
 20
0.0
 30
0.0
  9
$UCSORGRIGHT
 10
0.0
 20
0.0
 30
0.0
  9
$UCSORGFRONT
 10
0.0
 20
0.0
 30
0.0
  9
$UCSORGBACK
 10
0.0
 20
0.0
 30
0.0
  9
$PUCSBASE
  2

  9
$PUCSNAME
  2

  9
$PUCSORG
 10
0.0
 20
0.0
 30
0.0
  9
$PUCSXDIR
 10
1.0
 20
0.0
 30
0.0
  9
$PUCSYDIR
 10
0.0
 20
1.0
 30
0.0
  9
$PUCSORTHOREF
  2

  9
$PUCSORTHOVIEW
 70
     0
  9
$PUCSORGTOP
 10
0.0
 20
0.0
 30
0.0
  9
$PUCSORGBOTTOM
 10
0.0
 20
0.0
 30
0.0
  9
$PUCSORGLEFT
 10
0.0
 20
0.0
 30
0.0
  9
$PUCSORGRIGHT
 10
0.0
 20
0.0
 30
0.0
  9
$PUCSORGFRONT
 10
0.0
 20
0.0
 30
0.0
  9
$PUCSORGBACK
 10
0.0
 20
0.0
 30
0.0
  9
$USERI1
 70
     0
  9
$USERI2
 70
     0
  9
$USERI3
 70
     0
  9
$USERI4
 70
     0
  9
$USERI5
 70
     0
  9
$USERR1
 40
0.0
  9
$USERR2
 40
0.0
  9
$USERR3
 40
0.0
  9
$USERR4
 40
0.0
  9
$USERR5
 40
0.0
  9
$WORLDVIEW
 70
     1
  9
$SHADEDGE
 70
     3
  9
$SHADEDIF
 70
    70
  9
$TILEMODE
 70
     1
  9
$MAXACTVP
 70
    64
  9
$PINSBASE
 10
0.0
 20
0.0
 30
0.0
  9
$PLIMCHECK
 70
     0
  9
$PEXTMIN
 10
1.0000000000E+20
 20
1.0000000000E+20
 30
1.0000000000E+20
  9
$PEXTMAX
 10
-1.0000000000E+20
 20
-1.0000000000E+20
 30
-1.0000000000E+20
  9
$PLIMMIN
 10
0.0
 20
0.0
  9
$PLIMMAX
 10
420.0
 20
297.0
  9
$UNITMODE
 70
     0
  9
$VISRETAIN
 70
     1
  9
$PLINEGEN
 70
     0
  9
$PSLTSCALE
 70
     1
  9
$TREEDEPTH
 70
  3020
  9
$CMLSTYLE
  2
Standard
  9
$CMLJUST
 70
     0
  9
$CMLSCALE
 40
20.0
  9
$PROXYGRAPHICS
 70
     1
  9
$MEASUREMENT
 70
     1
  9
$CELWEIGHT
370
    -1
  9
$ENDCAPS
280
     0
  9
$JOINSTYLE
280
     0
  9
$LWDISPLAY
290
     1
  9
$INSUNITS
 70
     4
  9
$HYPERLINKBASE
  1

  9
$STYLESHEET
  1

  9
$XEDIT
290
     1
  9
$CEPSNTYPE
380
     0
  9
$PSTYLEMODE
290
     1
  9
$FINGERPRINTGUID
  2
{3962ED36-CF28-4901-8595-4531446C54B0}
  9
$VERSIONGUID
  2
{FAEB1C32-E019-11D5-929B-00C0DF256EC4}
  9
$EXTNAMES
290
     1
  9
$PSVPSCALE
 40
0.0
  9
$OLESTARTUP
290
     0
  0
ENDSEC
  0
SECTION
  2
CLASSES
  0
CLASS
  1
ACDBDICTIONARYWDFLT
  2
AcDbDictionaryWithDefault
  3
ObjectDBX Classes
 90
        0
280
     0
281
     0
  0
CLASS
  1
VISUALSTYLE
  2
AcDbVisualStyle
  3
ObjectDBX Classes
 90
     4095
280
     0
281
     0
  0
CLASS
  1
MATERIAL
  2
AcDbMaterial
  3
ObjectDBX Classes
 90
     1153
280
     0
281
     0
  0
CLASS
  1
ACDBPLACEHOLDER
  2
AcDbPlaceHolder
  3
ObjectDBX Classes
 90
        0
280
     0
281
     0
  0
CLASS
  1
LAYOUT
  2
AcDbLayout
  3
ObjectDBX Classes
 90
        0
280
     0
281
     0
  0
ENDSEC
  0
SECTION
  2
TABLES
  0
TABLE
  2
VPORT
  5
8
330
0
100
AcDbSymbolTable
 70
     1
  0
VPORT
  5
29
330
8
100
AcDbSymbolTableRecord
100
AcDbViewportTableRecord
  2
*Active
 70
     0
 10
0.0
 20
0.0
 11
1.0
 21
1.0
 12
105.0
 22
148.5
 13
0.0
 23
0.0
 14
10.0
 24
10.0
 15
10.0
 25
10.0
 16
0.0
 26
0.0
 36
1.0
 17
0.0
 27
0.0
 37
0.0
 40
297.0
 41
0.7070707071
 42
50.0
 43
0.0
 44
0.0
 50
0.0
 51
0.0
 71
     0
 72
  2000
 73
     1
 74
     3
 75
     0
 76
     0
 77
     0
 78
     0
281
     0
 65
     1
110
0.0
120
0.0
130
0.0
111
1.0
121
0.0
131
0.0
112
0.0
122
1.0
132
0.0
 79
     0
146
0.0
  0
ENDTAB
  0
TABLE
  2
LTYPE
  5
5
330
0
100
AcDbSymbolTable
 70
     6
  0
LTYPE
  5
14
330
5
100
AcDbSymbolTableRecord
100
AcDbLinetypeTableRecord
  2
ByBlock
 70
     0
  3

 72
    65
 73
     0
 40
0.0
  0
LTYPE
  5
15
330
5
100
AcDbSymbolTableRecord
100
AcDbLinetypeTableRecord
  2
ByLayer
 70
     0
  3

 72
    65
 73
     0
 40
0.0
  0
LTYPE
  5
16
330
5
100
AcDbSymbolTableRecord
100
AcDbLinetypeTableRecord
  2
Continuous
 70
     0
  3
Solid line
 72
    65
 73
     0
 40
0.0
  0
LTYPE
  5
3F
330
5
100
AcDbSymbolTableRecord
100
AcDbLinetypeTableRecord
  2
HIDDEN
 70
     0
  3
Hidden __ __ __ __ __ __ __ __ __ __ __ __ __ __
 72
    65
 73
     2
 40
1.905
 49
1.27
 74
     0
 49
-0.635
 74
     0
  0
LTYPE
  5
40
330
5
100
AcDbSymbolTableRecord
100
AcDbLinetypeTableRecord
  2
PHANTOM
 70
     0
  3
Phantom ______  __  __  ______  __  __  ______
 72
    65
 73
     6
 40
12.7
 49
6.35
 74
     0
 49
-1.27
 74
     0
 49
1.27
 74
     0
 49
-1.27
 74
     0
 49
1.27
 74
     0
 49
-1.27
 74
     0
  0
LTYPE
  5
41
330
5
100
AcDbSymbolTableRecord
100
AcDbLinetypeTableRecord
  2
CENTER
 70
     0
  3
Center ____ _ ____ _ ____ _ ____ _ ____ _ ____
 72
    65
 73
     4
 40
10.16
 49
6.35
 74
     0
 49
-1.27
 74
     0
 49
1.27
 74
     0
 49
-1.27
 74
     0
  0
LTYPE
  5
42
330
5
100
AcDbSymbolTableRecord
100
AcDbLinetypeTableRecord
  2
CENTERX2
 70
     0
  3
Center (2x) ________  __  ________  __  _____
 72
    65
 73
     4
 40
20.32
 49
12.7
 74
     0
 49
-2.54
 74
     0
 49
2.54
 74
     0
 49
-2.54
 74
     0
  0
LTYPE
  5
43
330
5
100
AcDbSymbolTableRecord
100
AcDbLinetypeTableRecord
  2
DOT2
 70
     0
  3
Dot (.5x) ........................................
 72
    65
 73
     2
 40
0.635
 49
0.0
 74
     0
 49
-0.635
 74
     0
  0
ENDTAB
  0
TABLE
  2
LAYER
  5
2
330
0
100
AcDbSymbolTable
 70
     3
  0
LAYER
  5
10
330
2
100
AcDbSymbolTableRecord
100
AcDbLayerTableRecord
  2
0
 70
     0
 62
     7
  6
Continuous
370
    -3
390
F
  0
LAYER
  5
44
330
2
100
AcDbSymbolTableRecord
100
AcDbLayerTableRecord
  2
SLD-0
 70
     0
 62
   179
  6
Continuous
370
    -3
390
F
  0
LAYER
  5
45
330
2
100
AcDbSymbolTableRecord
100
AcDbLayerTableRecord
  2
FORMAT
 70
     0
 62
     7
  6
Continuous
370
    -3
390
F
  0
ENDTAB
  0
TABLE
  2
STYLE
  5
3
330
0
100
AcDbSymbolTable
 70
     1
  0
STYLE
  5
11
330
3
100
AcDbSymbolTableRecord
100
AcDbTextStyleTableRecord
  2
Standard
 70
     0
 40
0.0
 41
1.0
 50
0.0
 71
     0
 42
3.5
  3
txt
  4

  0
ENDTAB
  0
TABLE
  2
VIEW
  5
6
330
0
100
AcDbSymbolTable
 70
     0
  0
ENDTAB
  0
TABLE
  2
UCS
  5
7
330
0
100
AcDbSymbolTable
 70
     0
  0
ENDTAB
  0
TABLE
  2
APPID
  5
9
330
0
100
AcDbSymbolTable
 70
     1
  0
APPID
  5
12
330
9
100
AcDbSymbolTableRecord
100
AcDbRegAppTableRecord
  2
ACAD
 70
     0
  0
ENDTAB
  0
TABLE
  2
DIMSTYLE
  5
A
330
0
100
AcDbSymbolTable
 70
     1
100
AcDbDimStyleTable
  0
DIMSTYLE
105
27
330
A
100
AcDbSymbolTableRecord
100
AcDbDimStyleTableRecord
  2
ISO-25
 70
     0
 41
2.5
 42
0.625
 43
3.75
 44
1.25
 73
     0
 74
     0
 77
     1
 78
     8
140
2.5
141
2.5
143
0.0393700787
147
0.625
171
     3
172
     1
178
     0
271
     2
272
     2
274
     3
278
    44
283
     0
284
     8
340
11
  0
ENDTAB
  0
TABLE
  2
BLOCK_RECORD
  5
1
330
0
100
AcDbSymbolTable
 70
     1
  0
BLOCK_RECORD
  5
1F
330
1
100
AcDbSymbolTableRecord
100
AcDbBlockTableRecord
  2
*Model_Space
340
22
  0
BLOCK_RECORD
  5
1B
330
1
100
AcDbSymbolTableRecord
100
AcDbBlockTableRecord
  2
*Paper_Space
340
1E
  0
BLOCK_RECORD
  5
23
330
1
100
AcDbSymbolTableRecord
100
AcDbBlockTableRecord
  2
*Paper_Space0
340
26
  0
ENDTAB
  0
ENDSEC
  0
SECTION
  2
BLOCKS
  0
BLOCK
  5
20
330
1F
100
AcDbEntity
  8
0
100
AcDbBlockBegin
  2
*Model_Space
 70
     0
 10
0.0
 20
0.0
 30
0.0
  3
*Model_Space
  1

  0
ENDBLK
  5
21
330
1F
100
AcDbEntity
  8
0
100
AcDbBlockEnd
  0
BLOCK
  5
1C
330
1B
100
AcDbEntity
 67
     1
  8
0
100
AcDbBlockBegin
  2
*Paper_Space
 70
     0
 10
0.0
 20
0.0
 30
0.0
  3
*Paper_Space
  1

  0
ENDBLK
  5
1D
330
1B
100
AcDbEntity
 67
     1
  8
0
100
AcDbBlockEnd
  0
BLOCK
  5
24
330
23
100
AcDbEntity
  8
0
100
AcDbBlockBegin
  2
*Paper_Space0
 70
     0
 10
0.0
 20
0.0
 30
0.0
  3
*Paper_Space0
  1

  0
ENDBLK
  5
25
330
23
100
AcDbEntity
  8
0
100
AcDbBlockEnd
  0
ENDSEC
  0
SECTION
  2
ENTITIES
  0
LINE
  5
46
330
1F
100
AcDbEntity
  8
SLD-0
 62
   179
100
AcDbLine
 10
7.5533980583
 20
3.7912621359
 30
0.0
 11
8.2087378641
 21
3.7912621359
 31
0.0
  0
LINE
  5
47
330
1F
100
AcDbEntity
  8
SLD-0
 62
   179
100
AcDbLine
 10
8.2087378641
 20
3.7912621359
 30
0.0
 11
8.2087378641
 21
3.2572815534
 31
0.0
  0
LINE
  5
48
330
1F
100
AcDbEntity
  8
SLD-0
 62
   179
100
AcDbLine
 10
8.2087378641
 20
3.2572815534
 30
0.0
 11
7.5048543689
 21
3.2572815534
 31
0.0
  0
LINE
  5
49
330
1F
100
AcDbEntity
  8
SLD-0
100
AcDbLine
 10
1.0
 20
1.0
 30
0.0
 11
1.0
 21
6.0
 31
0.0
  0
LINE
  5
4A
330
1F
100
AcDbEntity
  8
SLD-0
100
AcDbLine
 10
7.6468113325
 20
1.0
 30
0.0
 11
8.2778792936
 21
1.0
 31
0.0
  0
LINE
  5
4B
330
1F
100
AcDbEntity
  8
SLD-0
100
AcDbLine
 10
7.6504854369
 20
6.0
 30
0.0
 11
8.2815533981
 21
6.0
 31
0.0
  0
LINE
  5
4C
330
1F
100
AcDbEntity
  8
SLD-0
100
AcDbLine
 10
12.3448822596
 20
6.0
 30
0.0
 11
12.3448822409
 21
3.4962440159
 31
0.0
  0
LINE
  5
4D
330
1F
100
AcDbEntity
  8
SLD-0
100
AcDbLine
 10
12.9813677055
 20
6.0
 30
0.0
 11
12.9813677055
 21
3.4958322642
 31
0.0
  0
LINE
  5
4E
330
1F
100
AcDbEntity
  8
SLD-0
100
AcDbLine
 10
1.0
 20
6.0
 30
0.0
 11
7.0194174757
 21
6.0
 31
0.0
  0
LINE
  5
4F
330
1F
100
AcDbEntity
  8
SLD-0
 62
   179
100
AcDbLine
 10
1.0
 20
6.0
 30
0.0
 11
1.0
 21
1.0
 31
0.0
  0
LINE
  5
50
330
1F
100
AcDbEntity
  8
SLD-0
 62
   179
100
AcDbLine
 10
1.0
 20
1.0
 30
0.0
 11
7.0194174757
 21
1.0
 31
0.0
  0
LINE
  5
51
330
1F
100
AcDbEntity
  8
SLD-0
100
AcDbLine
 10
14.2645779989
 20
1.0
 30
0.0
 11
19.6893203883
 21
1.0
 31
0.0
  0
LINE
  5
52
330
1F
100
AcDbEntity
  8
SLD-0
  6
CENTERX2
 62
   179
100
AcDbLine
 10
10.7149407344
 20
1.0
 30
0.0
 11
11.3279655169
 21
1.0
 31
0.0
  0
LINE
  5
53
330
1F
100
AcDbEntity
  8
SLD-0
 62
   179
100
AcDbLine
 10
11.3279655169
 20
1.0
 30
0.0
 11
11.3279655169
 21
3.2663815824
 31
0.0
  0
LINE
  5
54
330
1F
100
AcDbEntity
  8
SLD-0
  6
CENTERX2
 62
   179
100
AcDbLine
 10
11.3279655169
 20
3.2663815824
 30
0.0
 11
11.9789440897
 21
3.2663815824
 31
0.0
  0
LINE
  5
55
330
1F
100
AcDbEntity
  8
SLD-0
  6
CENTERX2
 62
   179
100
AcDbLine
 10
11.9789440897
 20
3.2663815824
 30
0.0
 11
11.9789440897
 21
3.7844330776
 31
0.0
  0
LINE
  5
56
330
1F
100
AcDbEntity
  8
SLD-0
  6
CENTERX2
 62
   179
100
AcDbLine
 10
11.9789440897
 20
3.7844330776
 30
0.0
 11
11.3381526431
 21
3.7844330776
 31
0.0
  0
LINE
  5
57
330
1F
100
AcDbEntity
  8
SLD-0
  6
CENTERX2
 62
   179
100
AcDbLine
 10
11.407049309
 20
6.0
 30
0.0
 11
12.0570453907
 21
6.0
 31
0.0
  0
LINE
  5
58
330
1F
100
AcDbEntity
  8
SLD-0
 62
   179
100
AcDbLine
 10
10.7149407344
 20
1.0
 30
0.0
 11
10.7149407344
 21
3.4946749053
 31
0.0
  0
LINE
  5
59
330
1F
100
AcDbEntity
  8
SLD-0
  6
CENTERX2
 62
   179
100
AcDbLine
 10
13.0502880026
 20
1.0
 30
0.0
 11
13.687188415
 21
1.0
 31
0.0
  0
LINE
  5
5A
330
1F
100
AcDbEntity
  8
SLD-0
 62
   179
100
AcDbLine
 10
12.3448822596
 20
6.0
 30
0.0
 11
12.9813677055
 21
6.0
 31
0.0
  0
LINE
  5
5B
330
1F
100
AcDbEntity
  8
SLD-0
 62
   179
100
AcDbLine
 10
13.5587572894
 20
3.5131783289
 30
0.0
 11
13.5587572895
 21
6.0
 31
0.0
  0
LINE
  5
5C
330
1F
100
AcDbEntity
  8
SLD-0
 62
   179
100
AcDbLine
 10
13.5587572895
 20
6.0
 30
0.0
 11
19.6893203883
 21
6.0
 31
0.0
  0
LINE
  5
5D
330
1F
100
AcDbEntity
  8
SLD-0
 62
   179
100
AcDbLine
 10
19.6893203883
 20
6.0
 30
0.0
 11
19.6893203883
 21
1.0
 31
0.0
  0
LINE
  5
5E
330
1F
100
AcDbEntity
  8
SLD-0
 62
   179
100
AcDbLine
 10
9.3009708738
 20
6.0
 30
0.0
 11
8.6941747573
 21
6.0
 31
0.0
  0
LINE
  5
5F
330
1F
100
AcDbEntity
  8
SLD-0
 62
   179
100
AcDbLine
 10
8.6941747573
 20
6.0
 30
0.0
 11
8.6941747573
 21
1.0
 31
0.0
  0
LINE
  5
60
330
1F
100
AcDbEntity
  8
SLD-0
 62
   179
100
AcDbLine
 10
8.6941747573
 20
1.0
 30
0.0
 11
9.3009708738
 21
1.0
 31
0.0
  0
LINE
  5
61
330
1F
100
AcDbEntity
  8
SLD-0
 62
   179
100
AcDbLine
 10
9.3009708738
 20
1.0
 30
0.0
 11
9.3009708738
 21
6.0
 31
0.0
  0
LINE
  5
62
330
1F
100
AcDbEntity
  8
SLD-0
 62
   179
100
AcDbLine
 10
10.1045097839
 20
6.0
 30
0.0
 11
9.46431758
 21
6.0
 31
0.0
  0
LINE
  5
63
330
1F
100
AcDbEntity
  8
SLD-0
 62
   179
100
AcDbLine
 10
9.46431758
 20
3.4946782621
 30
0.0
 11
10.1045097839
 21
3.4946782621
 31
0.0
  0
LWPOLYLINE
  5
64
330
1F
100
AcDbEntity
  8
SLD-0
100
AcDbPolyline
 90
       31
 70
   128
 43
0.0
 10
7.0194174757
 20
1.0
 10
6.9264327505
 20
1.1363303879
 10
6.8396470069
 20
1.2743247715
 10
6.759060245
 20
1.4139831507
 10
6.6846724648
 20
1.5553055255
 10
6.6164836663
 20
1.698291896
 10
6.5544938495
 20
1.8429422622
 10
6.4987030144
 20
1.989256624
 10
6.4491111609
 20
2.1372349814
 10
6.4057182891
 20
2.2868773345
 10
6.368524399
 20
2.4381836832
 10
6.3375294906
 20
2.5911540276
 10
6.3127335639
 20
2.7457883676
 10
6.2941366188
 20
2.9020867032
 10
6.2817386555
 20
3.0600490345
 10
6.2755396738
 20
3.2196753614
 10
6.2755396738
 20
3.380965684
 10
6.2817386555
 20
3.5439200022
 10
6.2941366188
 20
3.7085383161
 10
6.3127335639
 20
3.8748206256
 10
6.3375294906
 20
4.0427669308
 10
6.368524399
 20
4.2123772316
 10
6.4057182891
 20
4.383651528
 10
6.4491111609
 20
4.5565898201
 10
6.4987030144
 20
4.7311921078
 10
6.5544938495
 20
4.9074583912
 10
6.6164836663
 20
5.0853886702
 10
6.6846724648
 20
5.2649829449
 10
6.759060245
 20
5.4462412152
 10
6.8396470069
 20
5.6291634812
 10
6.9264327505
 20
5.8137497428
  0
LWPOLYLINE
  5
65
330
1F
100
AcDbEntity
  8
SLD-0
100
AcDbPolyline
 90
       31
 70
   128
 43
0.0
 10
7.6504854369
 20
1.0
 10
7.5575007116
 20
1.1363303879
 10
7.4707149681
 20
1.2743247715
 10
7.3901282062
 20
1.4139831507
 10
7.315740426
 20
1.5553055255
 10
7.2475516275
 20
1.698291896
 10
7.1855618107
 20
1.8429422622
 10
7.1297709755
 20
1.989256624
 10
7.0801791221
 20
2.1372349814
 10
7.0367862503
 20
2.2868773345
 10
6.9995923602
 20
2.4381836832
 10
6.9685974518
 20
2.5911540276
 10
6.943801525
 20
2.7457883676
 10
6.92520458
 20
2.9020867032
 10
6.9128066166
 20
3.0600490345
 10
6.9066076349
 20
3.2196753614
 10
6.9066076349
 20
3.380965684
 10
6.9128066166
 20
3.5439200022
 10
6.92520458
 20
3.7085383161
 10
6.943801525
 20
3.8748206256
 10
6.9685974518
 20
4.0427669308
 10
6.9995923602
 20
4.2123772316
 10
7.0367862503
 20
4.383651528
 10
7.0801791221
 20
4.5565898201
 10
7.1297709755
 20
4.7311921078
 10
7.1855618107
 20
4.9074583912
 10
7.2475516275
 20
5.0853886702
 10
7.315740426
 20
5.2649829449
 10
7.3901282062
 20
5.4462412152
 10
7.4707149681
 20
5.6291634812
 10
7.5575007116
 20
5.8137497428
  0
LWPOLYLINE
  5
66
330
1F
100
AcDbEntity
  8
SLD-0
100
AcDbPolyline
 90
       15
 70
   128
 43
0.0
 10
8.281553398
 20
1.0
 10
8.1854887816
 20
1.1350874589
 10
8.0957505481
 20
1.272374629
 10
8.0123386978
 20
1.4118615102
 10
7.9352532304
 20
1.5535481026
 10
7.864494146
 20
1.6974344061
 10
7.8000614447
 20
1.8435204207
 10
7.7419551264
 20
1.9918061465
 10
7.6901751911
 20
2.1422915834
 10
7.6447216389
 20
2.2949767314
 10
7.6055944697
 20
2.4498615906
 10
7.5727936835
 20
2.6069461608
 10
7.5463192803
 20
2.7662304423
 10
7.5261712601
 20
2.9277144348
 10
7.512349623
 20
3.0913981385
  0
LWPOLYLINE
  5
67
330
1F
100
AcDbEntity
  8
SLD-0
100
AcDbPolyline
 90
       11
 70
   128
 43
0.0
 10
8.2815533981
 20
6.0
 10
8.171774333
 20
5.8116133145
 10
8.0707118929
 20
5.6207450958
 10
7.9783660779
 20
5.4273953439
 10
7.8947368878
 20
5.2315640589
 10
7.8198243228
 20
5.0332512408
 10
7.7536283828
 20
4.8324568895
 10
7.6961490679
 20
4.6291810051
 10
7.6473863779
 20
4.4234235875
 10
7.607340313
 20
4.2151846368
 10
7.5760108731
 20
4.0044641529
  0
LWPOLYLINE
  5
68
330
1F
100
AcDbEntity
  8
SLD-0
100
AcDbPolyline
 90
       40
 70
   128
 43
0.0
 10
9.46431758
 20
6.0
 10
9.513332383
 20
5.9361389261
 10
9.5598336063
 20
5.8723408281
 10
9.6038212499
 20
5.8086057061
 10
9.645295314
 20
5.7449335599
 10
9.6842557984
 20
5.6813243897
 10
9.7207027031
 20
5.6177781954
 10
9.7546360282
 20
5.554294977
 10
9.7860557737
 20
5.4908747346
 10
9.8149619396
 20
5.4275174681
 10
9.8413545258
 20
5.3642231774
 10
9.8652335323
 20
5.3009918628
 10
9.8865989592
 20
5.237823524
 10
9.9054508065
 20
5.1747181611
 10
9.9217890742
 20
5.1116757742
 10
9.9356137622
 20
5.0486963632
 10
9.9469248706
 20
4.9857799281
 10
9.9557223993
 20
4.9229264689
 10
9.9620063484
 20
4.8601359857
 10
9.9657767178
 20
4.7974084783
 10
9.9670335077
 20
4.7347439469
 10
9.9657767178
 20
4.6721423914
 10
9.9620063484
 20
4.6096038119
 10
9.9557223993
 20
4.5471282082
 10
9.9469248706
 20
4.4847155805
 10
9.9356137622
 20
4.4223659287
 10
9.9217890742
 20
4.3600792528
 10
9.9054508065
 20
4.2978555528
 10
9.8865989592
 20
4.2356948288
 10
9.8652335323
 20
4.1735970807
 10
9.8413545258
 20
4.1115623085
 10
9.8149619396
 20
4.0495905122
 10
9.7860557737
 20
3.9876816918
 10
9.7546360282
 20
3.9258358474
 10
9.7207027031
 20
3.8640529789
 10
9.6842557984
 20
3.8023330863
 10
9.645295314
 20
3.7406761696
 10
9.6038212499
 20
3.6790822288
 10
9.5598336063
 20
3.617551264
 10
9.513332383
 20
3.5560832751
  0
LWPOLYLINE
  5
69
330
1F
100
AcDbEntity
  8
SLD-0
100
AcDbPolyline
 90
       37
 70
   128
 43
0.0
 10
10.1045097839
 20
6.0
 10
10.154400426
 20
5.9318876819
 10
10.2015193657
 20
5.8637976371
 10
10.2458666031
 20
5.7957298656
 10
10.2874421381
 20
5.7276843674
 10
10.3262459708
 20
5.6596611426
 10
10.3622781012
 20
5.591660191
 10
10.3955385292
 20
5.5236815128
 10
10.4260272549
 20
5.455725108
 10
10.4537442783
 20
5.3877909764
 10
10.4786895993
 20
5.3198791182
 10
10.500863218
 20
5.2519895333
 10
10.5202651344
 20
5.1841222217
 10
10.5368953484
 20
5.1162771834
 10
10.5507538601
 20
5.0484544185
 10
10.5618406694
 20
4.9806539269
 10
10.5701557764
 20
4.9128757086
 10
10.5756991811
 20
4.8451197636
 10
10.5784708834
 20
4.777386092
 10
10.5784708834
 20
4.7096746937
 10
10.5756991811
 20
4.6419855687
 10
10.5701557764
 20
4.574318717
 10
10.5618406694
 20
4.5066741386
 10
10.5507538601
 20
4.4390518336
 10
10.5368953484
 20
4.3714518019
 10
10.5202651344
 20
4.3038740435
 10
10.500863218
 20
4.2363185584
 10
10.4786895993
 20
4.1687853467
 10
10.4537442783
 20
4.1012744083
 10
10.4260272549
 20
4.0337857432
 10
10.3955385292
 20
3.9663193514
 10
10.3622781012
 20
3.898875233
 10
10.3262459708
 20
3.8314533878
 10
10.2874421381
 20
3.764053816
 10
10.2458666031
 20
3.6966765176
 10
10.2015193657
 20
3.6293214924
 10
10.154400426
 20
3.5619887406
  0
LWPOLYLINE
  5
6A
330
1F
100
AcDbEntity
  8
SLD-0
100
AcDbPolyline
 90
       11
 70
   128
 43
0.0
 10
11.407049309
 20
6.0
 10
11.2946778949
 20
5.7845554052
 10
11.1921969714
 20
5.566648364
 10
11.0996065384
 20
5.3462788764
 10
11.016906596
 20
5.1234469424
 10
10.9440971441
 20
4.898152562
 10
10.8811781828
 20
4.6703957352
 10
10.828149712
 20
4.440176462
 10
10.7850117318
 20
4.2074947424
 10
10.7517642421
 20
3.9723505764
 10
10.728407243
 20
3.7347439641
  0
LWPOLYLINE
  5
6B
330
1F
100
AcDbEntity
  8
SLD-0
100
AcDbPolyline
 90
       12
 70
   128
 43
0.0
 10
12.0570453907
 20
6.0
 10
11.9539156802
 20
5.8302952104
 10
11.8586445118
 20
5.6578766413
 10
11.7712318855
 20
5.4827442927
 10
11.6916778013
 20
5.3048981645
 10
11.6199822592
 20
5.1243382569
 10
11.5561452592
 20
4.9410645698
 10
11.5001668012
 20
4.7550771032
 10
11.4520468854
 20
4.5663758571
 10
11.4117855117
 20
4.3749608315
 10
11.3793826801
 20
4.1808320263
 10
11.3548383906
 20
3.9839894417
  0
LWPOLYLINE
  5
6C
330
1F
100
AcDbEntity
  8
SLD-0
100
AcDbPolyline
 90
       14
 70
   128
 43
0.0
 10
12.3448822409
 20
3.4962440159
 10
12.3484812499
 20
3.3065889591
 10
12.3592782769
 20
3.1186803504
 10
12.3772733218
 20
2.9325181898
 10
12.4024663847
 20
2.7481024773
 10
12.4348574656
 20
2.565433213
 10
12.4744465645
 20
2.3845103968
 10
12.5212336813
 20
2.2053340287
 10
12.5752188161
 20
2.0279041088
 10
12.6364019689
 20
1.852220637
 10
12.7047831397
 20
1.6782836134
 10
12.7803623285
 20
1.5060930378
 10
12.8631395352
 20
1.3356489104
 10
12.9531147599
 20
1.1669512311
  0
LWPOLYLINE
  5
6D
330
1F
100
AcDbEntity
  8
SLD-0
100
AcDbPolyline
 90
       14
 70
   128
 43
0.0
 10
12.9813677055
 20
3.4958322642
 10
12.9833614551
 20
3.3070242358
 10
12.9928047455
 20
3.1198368682
 10
13.0096975768
 20
2.9342701614
 10
13.0340399489
 20
2.7503241155
 10
13.0658318618
 20
2.5679987303
 10
13.1050733155
 20
2.3872940059
 10
13.15176431
 20
2.2082099424
 10
13.2059048454
 20
2.0307465396
 10
13.2674949216
 20
1.8549037977
 10
13.3365345386
 20
1.6806817165
 10
13.4130236965
 20
1.5080802962
 10
13.4969623951
 20
1.3370995366
 10
13.5883506346
 20
1.1677394379
  0
LWPOLYLINE
  5
6E
330
1F
100
AcDbEntity
  8
SLD-0
100
AcDbPolyline
 90
       13
 70
   128
 43
0.0
 10
13.5587572894
 20
3.5131783289
 10
13.5635197447
 20
3.3069284049
 10
13.5765374409
 20
3.1028332333
 10
13.597810378
 20
2.900892814
 10
13.627338556
 20
2.701107147
 10
13.665121975
 20
2.5034762324
 10
13.7111606348
 20
2.3080000701
 10
13.7654545355
 20
2.1146786602
 10
13.8280036772
 20
1.9235120027
 10
13.8988080597
 20
1.7345000974
 10
13.9778676832
 20
1.5476429446
 10
14.0651825475
 20
1.362940544
 10
14.1607526528
 20
1.1803928958
  0
ENDSEC
  0
SECTION
  2
OBJECTS
  0
DICTIONARY
  5
C
330
0
100
AcDbDictionary
281
     1
  3
ACAD_GROUP
350
D
  3
ACAD_LAYOUT
350
1A
  3
ACAD_MLINESTYLE
350
17
  3
ACAD_PLOTSETTINGS
350
19
  3
ACAD_PLOTSTYLENAME
350
E
  0
DICTIONARY
  5
D
102
{ACAD_REACTORS
330
C
102
}
330
C
100
AcDbDictionary
281
     1
  0
DICTIONARY
  5
1A
102
{ACAD_REACTORS
330
C
102
}
330
C
100
AcDbDictionary
281
     1
  3
Layout1
350
1E
  3
Layout2
350
26
  3
Model
350
22
  0
DICTIONARY
  5
17
102
{ACAD_REACTORS
330
C
102
}
330
C
100
AcDbDictionary
281
     1
  3
Standard
350
18
  0
DICTIONARY
  5
19
102
{ACAD_REACTORS
330
C
102
}
330
C
100
AcDbDictionary
281
     1
  0
ACDBDICTIONARYWDFLT
  5
E
102
{ACAD_REACTORS
330
C
102
}
330
C
100
AcDbDictionary
281
     1
  3
Normal
350
F
100
AcDbDictionaryWithDefault
340
F
  0
LAYOUT
  5
1E
102
{ACAD_REACTORS
330
1A
102
}
330
1A
100
AcDbPlotSettings
  1

  2
none_device
  4

  6

 40
0.0
 41
0.0
 42
0.0
 43
0.0
 44
0.0
 45
0.0
 46
0.0
 47
0.0
 48
0.0
 49
0.0
140
0.0
141
0.0
142
1.0
143
1.0
 70
   688
 72
     0
 73
     0
 74
     5
  7

 75
    16
147
1.0
148
0.0
149
0.0
100
AcDbLayout
  1
Layout1
 70
     1
 71
     1
 10
0.0
 20
0.0
 11
420.0
 21
297.0
 12
0.0
 22
0.0
 32
0.0
 14
1.0000000000E+20
 24
1.0000000000E+20
 34
1.0000000000E+20
 15
-1.0000000000E+20
 25
-1.0000000000E+20
 35
-1.0000000000E+20
146
0.0
 13
0.0
 23
0.0
 33
0.0
 16
1.0
 26
0.0
 36
0.0
 17
0.0
 27
1.0
 37
0.0
 76
     0
330
1B
  0
LAYOUT
  5
26
102
{ACAD_REACTORS
330
1A
102
}
330
1A
100
AcDbPlotSettings
  1

  2
none_device
  4

  6

 40
0.0
 41
0.0
 42
0.0
 43
0.0
 44
0.0
 45
0.0
 46
0.0
 47
0.0
 48
0.0
 49
0.0
140
0.0
141
0.0
142
1.0
143
1.0
 70
   688
 72
     0
 73
     0
 74
     5
  7

 75
    16
147
1.0
148
0.0
149
0.0
100
AcDbLayout
  1
Layout2
 70
     1
 71
     2
 10
0.0
 20
0.0
 11
0.0
 21
0.0
 12
0.0
 22
0.0
 32
0.0
 14
0.0
 24
0.0
 34
0.0
 15
0.0
 25
0.0
 35
0.0
146
0.0
 13
0.0
 23
0.0
 33
0.0
 16
1.0
 26
0.0
 36
0.0
 17
0.0
 27
1.0
 37
0.0
 76
     0
330
23
  0
LAYOUT
  5
22
102
{ACAD_REACTORS
330
1A
102
}
330
1A
100
AcDbPlotSettings
  1

  2
none_device
  4

  6

 40
0.0
 41
0.0
 42
0.0
 43
0.0
 44
0.0
 45
0.0
 46
0.0
 47
0.0
 48
0.0
 49
0.0
140
0.0
141
0.0
142
1.0
143
1.0
 70
  1712
 72
     0
 73
     0
 74
     0
  7

 75
     0
147
1.0
148
0.0
149
0.0
100
AcDbLayout
  1
Model
 70
     1
 71
     0
 10
0.0
 20
0.0
 11
210.0
 21
297.0
 12
0.0
 22
0.0
 32
0.0
 14
0.0
 24
0.0
 34
0.0
 15
210.0
 25
297.0
 35
0.0
146
0.0
 13
0.0
 23
0.0
 33
0.0
 16
1.0
 26
0.0
 36
0.0
 17
0.0
 27
1.0
 37
0.0
 76
     0
330
1F
331
29
  0
MLINESTYLE
  5
18
102
{ACAD_REACTORS
330
17
102
}
330
17
100
AcDbMlineStyle
  2
Standard
 70
     0
  3

 62
   256
 51
90.0
 52
90.0
 71
     2
 49
0.5
 62
   256
  6
BYLAYER
 49
-0.5
 62
   256
  6
BYLAYER
  0
ACDBPLACEHOLDER
  5
F
102
{ACAD_REACTORS
330
E
102
}
330
E
  0
ENDSEC
  0
EOF
