  0
SECTION
  2
HEADER
  9
$ACADVER
  1
AC1015
  9
$ACADMAINTVER
 70
     6
  9
$DWGCODEPAGE
  3
ANSI_1254
  9
$INSBASE
 10
0.0
 20
0.0
 30
0.0
  9
$EXTMIN
 10
0.0
 20
0.0
 30
0.0
  9
$EXTMAX
 10
210.0
 20
297.0
 30
0.0
  9
$LIMMIN
 10
0.0
 20
0.0
  9
$LIMMAX
 10
210.0
 20
297.0
  9
$ORTHOMODE
 70
     0
  9
$REGENMODE
 70
     1
  9
$FILLMODE
 70
     1
  9
$QTEXTMODE
 70
     0
  9
$MIRRTEXT
 70
     1
  9
$LTSCALE
 40
1.0
  9
$ATTMODE
 70
     1
  9
$TEXTSIZE
 40
3.5
  9
$TRACEWID
 40
1.0
  9
$TEXTSTYLE
  7
Standard
  9
$CLAYER
  8
0
  9
$CELTYPE
  6
ByLayer
  9
$CECOLOR
 62
   256
  9
$CELTSCALE
 40
1.0
  9
$DISPSILH
 70
     0
  9
$DIMSCALE
 40
1.0
  9
$DIMASZ
 40
3.302
  9
$DIMEXO
 40
1.0
  9
$DIMDLI
 40
3.75
  9
$DIMRND
 40
0.0
  9
$DIMDLE
 40
0.0
  9
$DIMEXE
 40
1.0
  9
$DIMTP
 40
0.0
  9
$DIMTM
 40
0.0
  9
$DIMTXT
 40
3.5
  9
$DIMCEN
 40
2.5
  9
$DIMTSZ
 40
0.0
  9
$DIMTOL
 70
     0
  9
$DIMLIM
 70
     0
  9
$DIMTIH
 70
     1
  9
$DIMTOH
 70
     1
  9
$DIMSE1
 70
     0
  9
$DIMSE2
 70
     0
  9
$DIMTAD
 70
     1
  9
$DIMZIN
 70
     1
  9
$DIMBLK
  1

  9
$DIMASO
 70
     1
  9
$DIMSHO
 70
     1
  9
$DIMPOST
  1

  9
$DIMAPOST
  1

  9
$DIMALT
 70
     0
  9
$DIMALTD
 70
     3
  9
$DIMALTF
 40
0.0393700787
  9
$DIMLFAC
 40
1.0
  9
$DIMTOFL
 70
     1
  9
$DIMTVP
 40
0.0
  9
$DIMTIX
 70
     0
  9
$DIMSOXD
 70
     0
  9
$DIMSAH
 70
     0
  9
$DIMBLK1
  1

  9
$DIMBLK2
  1

  9
$DIMSTYLE
  2
ISO-25
  9
$DIMCLRD
 70
     0
  9
$DIMCLRE
 70
     0
  9
$DIMCLRT
 70
     0
  9
$DIMTFAC
 40
1.0
  9
$DIMGAP
 40
1.524
  9
$DIMJUST
 70
     0
  9
$DIMSD1
 70
     0
  9
$DIMSD2
 70
     0
  9
$DIMTOLJ
 70
     0
  9
$DIMTZIN
 70
     1
  9
$DIMALTZ
 70
     0
  9
$DIMALTTZ
 70
     0
  9
$DIMUPT
 70
     0
  9
$DIMDEC
 70
     0
  9
$DIMTDEC
 70
     4
  9
$DIMALTU
 70
     2
  9
$DIMALTTD
 70
     3
  9
$DIMTXSTY
  7
Standard
  9
$DIMAUNIT
 70
     0
  9
$DIMADEC
 70
     0
  9
$DIMALTRND
 40
0.0
  9
$DIMAZIN
 70
     0
  9
$DIMDSEP
 70
    44
  9
$DIMATFIT
 70
     3
  9
$DIMFRAC
 70
     0
  9
$DIMLDRBLK
  1

  9
$DIMLUNIT
 70
     2
  9
$DIMLWD
 70
    -2
  9
$DIMLWE
 70
    -2
  9
$DIMTMOVE
 70
     0
  9
$LUNITS
 70
     2
  9
$LUPREC
 70
     4
  9
$SKETCHINC
 40
1.0
  9
$FILLETRAD
 40
10.0
  9
$AUNITS
 70
     0
  9
$AUPREC
 70
     0
  9
$MENU
  1
.
  9
$ELEVATION
 40
0.0
  9
$PELEVATION
 40
0.0
  9
$THICKNESS
 40
0.0
  9
$LIMCHECK
 70
     0
  9
$CHAMFERA
 40
10.0
  9
$CHAMFERB
 40
10.0
  9
$CHAMFERC
 40
20.0
  9
$CHAMFERD
 40
0.0
  9
$SKPOLY
 70
     0
  9
$TDCREATE
 40
2457075.825306864
  9
$TDUCREATE
 40
2457075.74197353
  9
$TDUPDATE
 40
2457075.825306956
  9
$TDUUPDATE
 40
2457075.741973623
  9
$TDINDWG
 40
0.0000000116
  9
$TDUSRTIMER
 40
0.0000000116
  9
$USRTIMER
 70
     1
  9
$ANGBASE
 50
0.0
  9
$ANGDIR
 70
     0
  9
$PDMODE
 70
     0
  9
$PDSIZE
 40
-1.0
  9
$PLINEWID
 40
0.0
  9
$SPLFRAME
 70
     0
  9
$SPLINETYPE
 70
     6
  9
$SPLINESEGS
 70
     8
  9
$HANDSEED
  5
6F
  9
$SURFTAB1
 70
     6
  9
$SURFTAB2
 70
     6
  9
$SURFTYPE
 70
     6
  9
$SURFU
 70
     6
  9
$SURFV
 70
     6
  9
$UCSBASE
  2

  9
$UCSNAME
  2

  9
$UCSORG
 10
0.0
 20
0.0
 30
0.0
  9
$UCSXDIR
 10
1.0
 20
0.0
 30
0.0
  9
$UCSYDIR
 10
0.0
 20
1.0
 30
0.0
  9
$UCSORTHOREF
  2

  9
$UCSORTHOVIEW
 70
     0
  9
$UCSORGTOP
 10
0.0
 20
0.0
 30
0.0
  9
$UCSORGBOTTOM
 10
0.0
 20
0.0
 30
0.0
  9
$UCSORGLEFT
 10
0.0
 20
0.0
 30
0.0
  9
$UCSORGRIGHT
 10
0.0
 20
0.0
 30
0.0
  9
$UCSORGFRONT
 10
0.0
 20
0.0
 30
0.0
  9
$UCSORGBACK
 10
0.0
 20
0.0
 30
0.0
  9
$PUCSBASE
  2

  9
$PUCSNAME
  2

  9
$PUCSORG
 10
0.0
 20
0.0
 30
0.0
  9
$PUCSXDIR
 10
1.0
 20
0.0
 30
0.0
  9
$PUCSYDIR
 10
0.0
 20
1.0
 30
0.0
  9
$PUCSORTHOREF
  2

  9
$PUCSORTHOVIEW
 70
     0
  9
$PUCSORGTOP
 10
0.0
 20
0.0
 30
0.0
  9
$PUCSORGBOTTOM
 10
0.0
 20
0.0
 30
0.0
  9
$PUCSORGLEFT
 10
0.0
 20
0.0
 30
0.0
  9
$PUCSORGRIGHT
 10
0.0
 20
0.0
 30
0.0
  9
$PUCSORGFRONT
 10
0.0
 20
0.0
 30
0.0
  9
$PUCSORGBACK
 10
0.0
 20
0.0
 30
0.0
  9
$USERI1
 70
     0
  9
$USERI2
 70
     0
  9
$USERI3
 70
     0
  9
$USERI4
 70
     0
  9
$USERI5
 70
     0
  9
$USERR1
 40
0.0
  9
$USERR2
 40
0.0
  9
$USERR3
 40
0.0
  9
$USERR4
 40
0.0
  9
$USERR5
 40
0.0
  9
$WORLDVIEW
 70
     1
  9
$SHADEDGE
 70
     3
  9
$SHADEDIF
 70
    70
  9
$TILEMODE
 70
     1
  9
$MAXACTVP
 70
    64
  9
$PINSBASE
 10
0.0
 20
0.0
 30
0.0
  9
$PLIMCHECK
 70
     0
  9
$PEXTMIN
 10
1.0000000000E+20
 20
1.0000000000E+20
 30
1.0000000000E+20
  9
$PEXTMAX
 10
-1.0000000000E+20
 20
-1.0000000000E+20
 30
-1.0000000000E+20
  9
$PLIMMIN
 10
0.0
 20
0.0
  9
$PLIMMAX
 10
420.0
 20
297.0
  9
$UNITMODE
 70
     0
  9
$VISRETAIN
 70
     1
  9
$PLINEGEN
 70
     0
  9
$PSLTSCALE
 70
     1
  9
$TREEDEPTH
 70
  3020
  9
$CMLSTYLE
  2
Standard
  9
$CMLJUST
 70
     0
  9
$CMLSCALE
 40
20.0
  9
$PROXYGRAPHICS
 70
     1
  9
$MEASUREMENT
 70
     1
  9
$CELWEIGHT
370
    -1
  9
$ENDCAPS
280
     0
  9
$JOINSTYLE
280
     0
  9
$LWDISPLAY
290
     1
  9
$INSUNITS
 70
     4
  9
$HYPERLINKBASE
  1

  9
$STYLESHEET
  1

  9
$XEDIT
290
     1
  9
$CEPSNTYPE
380
     0
  9
$PSTYLEMODE
290
     1
  9
$FINGERPRINTGUID
  2
{B685DB1E-0738-42CA-A92C-987289224EC2}
  9
$VERSIONGUID
  2
{FAEB1C32-E019-11D5-929B-00C0DF256EC4}
  9
$EXTNAMES
290
     1
  9
$PSVPSCALE
 40
0.0
  9
$OLESTARTUP
290
     0
  0
ENDSEC
  0
SECTION
  2
CLASSES
  0
CLASS
  1
ACDBDICTIONARYWDFLT
  2
AcDbDictionaryWithDefault
  3
ObjectDBX Classes
 90
        0
280
     0
281
     0
  0
CLASS
  1
VISUALSTYLE
  2
AcDbVisualStyle
  3
ObjectDBX Classes
 90
     4095
280
     0
281
     0
  0
CLASS
  1
MATERIAL
  2
AcDbMaterial
  3
ObjectDBX Classes
 90
     1153
280
     0
281
     0
  0
CLASS
  1
ACDBPLACEHOLDER
  2
AcDbPlaceHolder
  3
ObjectDBX Classes
 90
        0
280
     0
281
     0
  0
CLASS
  1
LAYOUT
  2
AcDbLayout
  3
ObjectDBX Classes
 90
        0
280
     0
281
     0
  0
ENDSEC
  0
SECTION
  2
TABLES
  0
TABLE
  2
VPORT
  5
8
330
0
100
AcDbSymbolTable
 70
     1
  0
VPORT
  5
29
330
8
100
AcDbSymbolTableRecord
100
AcDbViewportTableRecord
  2
*Active
 70
     0
 10
0.0
 20
0.0
 11
1.0
 21
1.0
 12
105.0
 22
148.5
 13
0.0
 23
0.0
 14
10.0
 24
10.0
 15
10.0
 25
10.0
 16
0.0
 26
0.0
 36
1.0
 17
0.0
 27
0.0
 37
0.0
 40
297.0
 41
0.7070707071
 42
50.0
 43
0.0
 44
0.0
 50
0.0
 51
0.0
 71
     0
 72
  2000
 73
     1
 74
     3
 75
     0
 76
     0
 77
     0
 78
     0
281
     0
 65
     1
110
0.0
120
0.0
130
0.0
111
1.0
121
0.0
131
0.0
112
0.0
122
1.0
132
0.0
 79
     0
146
0.0
  0
ENDTAB
  0
TABLE
  2
LTYPE
  5
5
330
0
100
AcDbSymbolTable
 70
     6
  0
LTYPE
  5
14
330
5
100
AcDbSymbolTableRecord
100
AcDbLinetypeTableRecord
  2
ByBlock
 70
     0
  3

 72
    65
 73
     0
 40
0.0
  0
LTYPE
  5
15
330
5
100
AcDbSymbolTableRecord
100
AcDbLinetypeTableRecord
  2
ByLayer
 70
     0
  3

 72
    65
 73
     0
 40
0.0
  0
LTYPE
  5
16
330
5
100
AcDbSymbolTableRecord
100
AcDbLinetypeTableRecord
  2
Continuous
 70
     0
  3
Solid line
 72
    65
 73
     0
 40
0.0
  0
LTYPE
  5
3F
330
5
100
AcDbSymbolTableRecord
100
AcDbLinetypeTableRecord
  2
HIDDEN
 70
     0
  3
Hidden __ __ __ __ __ __ __ __ __ __ __ __ __ __
 72
    65
 73
     2
 40
1.905
 49
1.27
 74
     0
 49
-0.635
 74
     0
  0
LTYPE
  5
40
330
5
100
AcDbSymbolTableRecord
100
AcDbLinetypeTableRecord
  2
PHANTOM
 70
     0
  3
Phantom ______  __  __  ______  __  __  ______
 72
    65
 73
     6
 40
12.7
 49
6.35
 74
     0
 49
-1.27
 74
     0
 49
1.27
 74
     0
 49
-1.27
 74
     0
 49
1.27
 74
     0
 49
-1.27
 74
     0
  0
LTYPE
  5
41
330
5
100
AcDbSymbolTableRecord
100
AcDbLinetypeTableRecord
  2
CENTER
 70
     0
  3
Center ____ _ ____ _ ____ _ ____ _ ____ _ ____
 72
    65
 73
     4
 40
10.16
 49
6.35
 74
     0
 49
-1.27
 74
     0
 49
1.27
 74
     0
 49
-1.27
 74
     0
  0
LTYPE
  5
42
330
5
100
AcDbSymbolTableRecord
100
AcDbLinetypeTableRecord
  2
CENTERX2
 70
     0
  3
Center (2x) ________  __  ________  __  _____
 72
    65
 73
     4
 40
20.32
 49
12.7
 74
     0
 49
-2.54
 74
     0
 49
2.54
 74
     0
 49
-2.54
 74
     0
  0
LTYPE
  5
43
330
5
100
AcDbSymbolTableRecord
100
AcDbLinetypeTableRecord
  2
DOT2
 70
     0
  3
Dot (.5x) ........................................
 72
    65
 73
     2
 40
0.635
 49
0.0
 74
     0
 49
-0.635
 74
     0
  0
ENDTAB
  0
TABLE
  2
LAYER
  5
2
330
0
100
AcDbSymbolTable
 70
     3
  0
LAYER
  5
10
330
2
100
AcDbSymbolTableRecord
100
AcDbLayerTableRecord
  2
0
 70
     0
 62
     7
  6
Continuous
370
    -3
390
F
  0
LAYER
  5
44
330
2
100
AcDbSymbolTableRecord
100
AcDbLayerTableRecord
  2
SLD-0
 70
     0
 62
   179
  6
Continuous
370
    -3
390
F
  0
LAYER
  5
45
330
2
100
AcDbSymbolTableRecord
100
AcDbLayerTableRecord
  2
FORMAT
 70
     0
 62
     7
  6
Continuous
370
    -3
390
F
  0
ENDTAB
  0
TABLE
  2
STYLE
  5
3
330
0
100
AcDbSymbolTable
 70
     1
  0
STYLE
  5
11
330
3
100
AcDbSymbolTableRecord
100
AcDbTextStyleTableRecord
  2
Standard
 70
     0
 40
0.0
 41
1.0
 50
0.0
 71
     0
 42
3.5
  3
txt
  4

  0
ENDTAB
  0
TABLE
  2
VIEW
  5
6
330
0
100
AcDbSymbolTable
 70
     0
  0
ENDTAB
  0
TABLE
  2
UCS
  5
7
330
0
100
AcDbSymbolTable
 70
     0
  0
ENDTAB
  0
TABLE
  2
APPID
  5
9
330
0
100
AcDbSymbolTable
 70
     1
  0
APPID
  5
12
330
9
100
AcDbSymbolTableRecord
100
AcDbRegAppTableRecord
  2
ACAD
 70
     0
  0
ENDTAB
  0
TABLE
  2
DIMSTYLE
  5
A
330
0
100
AcDbSymbolTable
 70
     1
100
AcDbDimStyleTable
  0
DIMSTYLE
105
27
330
A
100
AcDbSymbolTableRecord
100
AcDbDimStyleTableRecord
  2
ISO-25
 70
     0
 41
2.5
 42
0.625
 43
3.75
 44
1.25
 73
     0
 74
     0
 77
     1
 78
     8
140
2.5
141
2.5
143
0.0393700787
147
0.625
171
     3
172
     1
178
     0
271
     2
272
     2
274
     3
278
    44
283
     0
284
     8
340
11
  0
ENDTAB
  0
TABLE
  2
BLOCK_RECORD
  5
1
330
0
100
AcDbSymbolTable
 70
     1
  0
BLOCK_RECORD
  5
1F
330
1
100
AcDbSymbolTableRecord
100
AcDbBlockTableRecord
  2
*Model_Space
340
22
  0
BLOCK_RECORD
  5
1B
330
1
100
AcDbSymbolTableRecord
100
AcDbBlockTableRecord
  2
*Paper_Space
340
1E
  0
BLOCK_RECORD
  5
23
330
1
100
AcDbSymbolTableRecord
100
AcDbBlockTableRecord
  2
*Paper_Space0
340
26
  0
ENDTAB
  0
ENDSEC
  0
SECTION
  2
BLOCKS
  0
BLOCK
  5
20
330
1F
100
AcDbEntity
  8
0
100
AcDbBlockBegin
  2
*Model_Space
 70
     0
 10
0.0
 20
0.0
 30
0.0
  3
*Model_Space
  1

  0
ENDBLK
  5
21
330
1F
100
AcDbEntity
  8
0
100
AcDbBlockEnd
  0
BLOCK
  5
1C
330
1B
100
AcDbEntity
 67
     1
  8
0
100
AcDbBlockBegin
  2
*Paper_Space
 70
     0
 10
0.0
 20
0.0
 30
0.0
  3
*Paper_Space
  1

  0
ENDBLK
  5
1D
330
1B
100
AcDbEntity
 67
     1
  8
0
100
AcDbBlockEnd
  0
BLOCK
  5
24
330
23
100
AcDbEntity
  8
0
100
AcDbBlockBegin
  2
*Paper_Space0
 70
     0
 10
0.0
 20
0.0
 30
0.0
  3
*Paper_Space0
  1

  0
ENDBLK
  5
25
330
23
100
AcDbEntity
  8
0
100
AcDbBlockEnd
  0
ENDSEC
  0
SECTION
  2
ENTITIES
  0
LINE
  5
46
330
1F
100
AcDbEntity
  8
SLD-0
 62
   179
100
AcDbLine
 10
27.213592233
 20
12.1650485437
 30
0.0
 11
29.8349514565
 21
12.1650485437
 31
0.0
  0
LINE
  5
47
330
1F
100
AcDbEntity
  8
SLD-0
 62
   179
100
AcDbLine
 10
29.8349514565
 20
12.1650485437
 30
0.0
 11
29.8349514565
 21
10.0291262136
 31
0.0
  0
LINE
  5
48
330
1F
100
AcDbEntity
  8
SLD-0
 62
   179
100
AcDbLine
 10
29.8349514565
 20
10.0291262136
 30
0.0
 11
27.0194174757
 21
10.0291262136
 31
0.0
  0
LINE
  5
49
330
1F
100
AcDbEntity
  8
SLD-0
100
AcDbLine
 10
1.0
 20
1.0
 30
0.0
 11
1.0
 21
21.0
 31
0.0
  0
LINE
  5
4A
330
1F
100
AcDbEntity
  8
SLD-0
100
AcDbLine
 10
27.5872453298
 20
1.0
 30
0.0
 11
30.1115171745
 21
1.0
 31
0.0
  0
LINE
  5
4B
330
1F
100
AcDbEntity
  8
SLD-0
100
AcDbLine
 10
27.6019417476
 20
21.0
 30
0.0
 11
30.1262135922
 21
21.0
 31
0.0
  0
LINE
  5
4C
330
1F
100
AcDbEntity
  8
SLD-0
100
AcDbLine
 10
46.3795290386
 20
21.0
 30
0.0
 11
46.3795289637
 21
10.9849760637
 31
0.0
  0
LINE
  5
4D
330
1F
100
AcDbEntity
  8
SLD-0
100
AcDbLine
 10
48.9254708221
 20
21.0
 30
0.0
 11
48.9254708221
 21
10.9833290568
 31
0.0
  0
LINE
  5
4E
330
1F
100
AcDbEntity
  8
SLD-0
100
AcDbLine
 10
1.0
 20
21.0
 30
0.0
 11
25.0776699029
 21
21.0
 31
0.0
  0
LINE
  5
4F
330
1F
100
AcDbEntity
  8
SLD-0
 62
   179
100
AcDbLine
 10
1.0
 20
21.0
 30
0.0
 11
1.0
 21
1.0
 31
0.0
  0
LINE
  5
50
330
1F
100
AcDbEntity
  8
SLD-0
 62
   179
100
AcDbLine
 10
1.0
 20
1.0
 30
0.0
 11
25.0776699029
 21
1.0
 31
0.0
  0
LINE
  5
51
330
1F
100
AcDbEntity
  8
SLD-0
100
AcDbLine
 10
54.0583119958
 20
1.0
 30
0.0
 11
75.7572815534
 21
1.0
 31
0.0
  0
LINE
  5
52
330
1F
100
AcDbEntity
  8
SLD-0
  6
CENTERX2
 62
   179
100
AcDbLine
 10
39.8597629375
 20
1.0
 30
0.0
 11
42.3118620677
 21
1.0
 31
0.0
  0
LINE
  5
53
330
1F
100
AcDbEntity
  8
SLD-0
 62
   179
100
AcDbLine
 10
42.3118620677
 20
1.0
 30
0.0
 11
42.3118620677
 21
10.0655263298
 31
0.0
  0
LINE
  5
54
330
1F
100
AcDbEntity
  8
SLD-0
  6
CENTERX2
 62
   179
100
AcDbLine
 10
42.3118620677
 20
10.0655263298
 30
0.0
 11
44.915776359
 21
10.0655263298
 31
0.0
  0
LINE
  5
55
330
1F
100
AcDbEntity
  8
SLD-0
  6
CENTERX2
 62
   179
100
AcDbLine
 10
44.915776359
 20
10.0655263298
 30
0.0
 11
44.915776359
 21
12.1377323103
 31
0.0
  0
LINE
  5
56
330
1F
100
AcDbEntity
  8
SLD-0
  6
CENTERX2
 62
   179
100
AcDbLine
 10
44.915776359
 20
12.1377323103
 30
0.0
 11
42.3526105725
 21
12.1377323103
 31
0.0
  0
LINE
  5
57
330
1F
100
AcDbEntity
  8
SLD-0
  6
CENTERX2
 62
   179
100
AcDbLine
 10
42.628197236
 20
21.0
 30
0.0
 11
45.2281815628
 21
21.0
 31
0.0
  0
LINE
  5
58
330
1F
100
AcDbEntity
  8
SLD-0
 62
   179
100
AcDbLine
 10
39.8597629375
 20
1.0
 30
0.0
 11
39.8597629375
 21
10.9786996211
 31
0.0
  0
LINE
  5
59
330
1F
100
AcDbEntity
  8
SLD-0
  6
CENTERX2
 62
   179
100
AcDbLine
 10
49.2011520102
 20
1.0
 30
0.0
 11
51.7487536599
 21
1.0
 31
0.0
  0
LINE
  5
5A
330
1F
100
AcDbEntity
  8
SLD-0
 62
   179
100
AcDbLine
 10
46.3795290386
 20
21.0
 30
0.0
 11
48.9254708221
 21
21.0
 31
0.0
  0
LINE
  5
5B
330
1F
100
AcDbEntity
  8
SLD-0
 62
   179
100
AcDbLine
 10
51.2350291579
 20
11.0527131938
 30
0.0
 11
51.2350291579
 21
21.0
 31
0.0
  0
LINE
  5
5C
330
1F
100
AcDbEntity
  8
SLD-0
 62
   179
100
AcDbLine
 10
51.2350291579
 20
21.0
 30
0.0
 11
75.7572815534
 21
21.0
 31
0.0
  0
LINE
  5
5D
330
1F
100
AcDbEntity
  8
SLD-0
 62
   179
100
AcDbLine
 10
75.7572815534
 20
21.0
 30
0.0
 11
75.7572815534
 21
1.0
 31
0.0
  0
LINE
  5
5E
330
1F
100
AcDbEntity
  8
SLD-0
 62
   179
100
AcDbLine
 10
34.2038834951
 20
21.0
 30
0.0
 11
31.7766990291
 21
21.0
 31
0.0
  0
LINE
  5
5F
330
1F
100
AcDbEntity
  8
SLD-0
 62
   179
100
AcDbLine
 10
31.7766990291
 20
21.0
 30
0.0
 11
31.7766990291
 21
1.0
 31
0.0
  0
LINE
  5
60
330
1F
100
AcDbEntity
  8
SLD-0
 62
   179
100
AcDbLine
 10
31.7766990291
 20
1.0
 30
0.0
 11
34.2038834951
 21
1.0
 31
0.0
  0
LINE
  5
61
330
1F
100
AcDbEntity
  8
SLD-0
 62
   179
100
AcDbLine
 10
34.2038834951
 20
1.0
 30
0.0
 11
34.2038834951
 21
21.0
 31
0.0
  0
LINE
  5
62
330
1F
100
AcDbEntity
  8
SLD-0
 62
   179
100
AcDbLine
 10
37.4180391357
 20
21.0
 30
0.0
 11
34.8572703201
 21
21.0
 31
0.0
  0
LINE
  5
63
330
1F
100
AcDbEntity
  8
SLD-0
 62
   179
100
AcDbLine
 10
34.8572703201
 20
10.9787130482
 30
0.0
 11
37.4180391357
 21
10.9787130482
 31
0.0
  0
LWPOLYLINE
  5
64
330
1F
100
AcDbEntity
  8
SLD-0
100
AcDbPolyline
 90
       31
 70
   128
 43
0.0
 10
25.0776699028
 20
1.0
 10
24.7057310019
 20
1.5453215517
 10
24.3585880276
 20
2.0972990859
 10
24.0362409801
 20
2.6559326028
 10
23.7386898593
 20
3.2212221022
 10
23.4659346653
 20
3.7931675842
 10
23.217975398
 20
4.3717690488
 10
22.9948120574
 20
4.9570264959
 10
22.7964446436
 20
5.5489399256
 10
22.6228731564
 20
6.1475093379
 10
22.4740975961
 20
6.7527347328
 10
22.3501179624
 20
7.3646161102
 10
22.2509342555
 20
7.9831534702
 10
22.1765464753
 20
8.6083468128
 10
22.1269546218
 20
9.240196138
 10
22.1021586951
 20
9.8787014458
 10
22.1021586951
 20
10.5238627361
 10
22.1269546218
 20
11.175680009
 10
22.1765464753
 20
11.8341532645
 10
22.2509342555
 20
12.4992825025
 10
22.3501179624
 20
13.1710677231
 10
22.4740975961
 20
13.8495089263
 10
22.6228731564
 20
14.5346061121
 10
22.7964446436
 20
15.2263592805
 10
22.9948120574
 20
15.9247684314
 10
23.217975398
 20
16.6298335649
 10
23.4659346653
 20
17.341554681
 10
23.7386898594
 20
18.0599317796
 10
24.0362409801
 20
18.7849648608
 10
24.3585880276
 20
19.5166539246
 10
24.7057310019
 20
20.254998971
  0
LWPOLYLINE
  5
65
330
1F
100
AcDbEntity
  8
SLD-0
100
AcDbPolyline
 90
       31
 70
   128
 43
0.0
 10
27.6019417476
 20
1.0
 10
27.2300028466
 20
1.5453215517
 10
26.8828598723
 20
2.0972990859
 10
26.5605128248
 20
2.6559326028
 10
26.262961704
 20
3.2212221022
 10
25.99020651
 20
3.7931675842
 10
25.7422472427
 20
4.3717690487
 10
25.5190839021
 20
4.9570264959
 10
25.3207164882
 20
5.5489399256
 10
25.1471450011
 20
6.1475093379
 10
24.9983694407
 20
6.7527347328
 10
24.8743898071
 20
7.3646161102
 10
24.7752061001
 20
7.9831534702
 10
24.7008183199
 20
8.6083468128
 10
24.6512264665
 20
9.240196138
 10
24.6264305397
 20
9.8787014457
 10
24.6264305397
 20
10.5238627361
 10
24.6512264665
 20
11.175680009
 10
24.7008183199
 20
11.8341532644
 10
24.7752061001
 20
12.4992825025
 10
24.874389807
 20
13.1710677231
 10
24.9983694407
 20
13.8495089263
 10
25.1471450011
 20
14.5346061121
 10
25.3207164882
 20
15.2263592804
 10
25.5190839021
 20
15.9247684314
 10
25.7422472427
 20
16.6298335649
 10
25.99020651
 20
17.341554681
 10
26.262961704
 20
18.0599317796
 10
26.5605128248
 20
18.7849648608
 10
26.8828598723
 20
19.5166539247
 10
27.2300028466
 20
20.254998971
  0
LWPOLYLINE
  5
66
330
1F
100
AcDbEntity
  8
SLD-0
100
AcDbPolyline
 90
       15
 70
   128
 43
0.0
 10
30.126213592
 20
0.9999999999
 10
29.7419551263
 20
1.5403498357
 10
29.3830021926
 20
2.0894985161
 10
29.049354791
 20
2.647446041
 10
28.7410129215
 20
3.2141924104
 10
28.4579765842
 20
3.7897376244
 10
28.2002457789
 20
4.3740816829
 10
27.9678205057
 20
4.9672245859
 10
27.7607007646
 20
5.5691663335
 10
27.5788865556
 20
6.1799069256
 10
27.4223778786
 20
6.7994463622
 10
27.2911747338
 20
7.4277846434
 10
27.1852771211
 20
8.0649217691
 10
27.1046850404
 20
8.7108577394
 10
27.0493984919
 20
9.3655925542
  0
LWPOLYLINE
  5
67
330
1F
100
AcDbEntity
  8
SLD-0
100
AcDbPolyline
 90
       11
 70
   128
 43
0.0
 10
30.1262135923
 20
21.0
 10
29.6870973319
 20
20.2464532578
 10
29.2828475716
 20
19.482980383
 10
28.9134643114
 20
18.7095813757
 10
28.5789475513
 20
17.9262562357
 10
28.2792972913
 20
17.1330049632
 10
28.0145135314
 20
16.3298275581
 10
27.7845962715
 20
15.5167240203
 10
27.5895455118
 20
14.6936943501
 10
27.4293612521
 20
13.8607385472
 10
27.3040434925
 20
13.0178566117
  0
LWPOLYLINE
  5
68
330
1F
100
AcDbEntity
  8
SLD-0
100
AcDbPolyline
 90
       40
 70
   128
 43
0.0
 10
34.8572703201
 20
21.0
 10
35.0533295319
 20
20.7445557044
 10
35.2393344251
 20
20.4893633125
 10
35.4152849998
 20
20.2344228243
 10
35.5811812559
 20
19.9797342397
 10
35.7370231935
 20
19.7252975589
 10
35.8828108125
 20
19.4711127817
 10
36.018544113
 20
19.2171799082
 10
36.1442230949
 20
18.9634989384
 10
36.2598477582
 20
18.7100698722
 10
36.365418103
 20
18.4568927098
 10
36.4609341293
 20
18.203967451
 10
36.546395837
 20
17.9512940959
 10
36.6218032261
 20
17.6988726445
 10
36.6871562967
 20
17.4467030968
 10
36.7424550488
 20
17.1947854527
 10
36.7876994822
 20
16.9431197124
 10
36.8228895972
 20
16.6917058757
 10
36.8480253936
 20
16.4405439427
 10
36.8631068714
 20
16.1896339134
 10
36.8681340307
 20
15.9389757877
 10
36.8631068714
 20
15.6885695658
 10
36.8480253936
 20
15.4384152475
 10
36.8228895972
 20
15.1885128329
 10
36.7876994822
 20
14.938862322
 10
36.7424550488
 20
14.6894637148
 10
36.6871562967
 20
14.4403170112
 10
36.6218032261
 20
14.1914222114
 10
36.546395837
 20
13.9427793152
 10
36.4609341293
 20
13.6943883227
 10
36.365418103
 20
13.4462492339
 10
36.2598477582
 20
13.1983620487
 10
36.1442230949
 20
12.9507267673
 10
36.018544113
 20
12.7033433895
 10
35.8828108125
 20
12.4562119154
 10
35.7370231935
 20
12.209332345
 10
35.5811812559
 20
11.9627046783
 10
35.4152849998
 20
11.7163289153
 10
35.2393344251
 20
11.4702050559
 10
35.0533295319
 20
11.2243331002
  0
LWPOLYLINE
  5
69
330
1F
100
AcDbEntity
  8
SLD-0
100
AcDbPolyline
 90
       37
 70
   128
 43
0.0
 10
37.4180391356
 20
21.0
 10
37.6176017038
 20
20.7275507275
 10
37.8060774627
 20
20.4551905482
 10
37.9834664122
 20
20.1829194623
 10
38.1497685524
 20
19.9107374696
 10
38.3049838833
 20
19.6386445702
 10
38.4491124047
 20
19.3666407642
 10
38.5821541169
 20
19.0947260514
 10
38.7041090197
 20
18.8229004319
 10
38.8149771131
 20
18.5511639057
 10
38.9147583972
 20
18.2795164728
 10
39.003452872
 20
18.0079581331
 10
39.0810605374
 20
17.7364888868
 10
39.1475813935
 20
17.4651087338
 10
39.2030154402
 20
17.193817674
 10
39.2473626776
 20
16.9226157076
 10
39.2806231056
 20
16.6515028344
 10
39.3027967243
 20
16.3804790545
 10
39.3138835337
 20
16.1095443679
 10
39.3138835337
 20
15.8386987746
 10
39.3027967243
 20
15.5679422746
 10
39.2806231057
 20
15.2972748679
 10
39.2473626776
 20
15.0266965545
 10
39.2030154402
 20
14.7562073344
 10
39.1475813935
 20
14.4858072076
 10
39.0810605374
 20
14.215496174
 10
39.003452872
 20
13.9452742338
 10
38.9147583973
 20
13.6751413868
 10
38.8149771132
 20
13.4050976331
 10
38.7041090197
 20
13.1351429728
 10
38.5821541169
 20
12.8652774057
 10
38.4491124048
 20
12.5955009319
 10
38.3049838833
 20
12.3258135514
 10
38.1497685525
 20
12.0562152642
 10
37.9834664123
 20
11.7867060702
 10
37.8060774628
 20
11.5172859696
 10
37.6176017039
 20
11.2479549623
  0
LWPOLYLINE
  5
6A
330
1F
100
AcDbEntity
  8
SLD-0
100
AcDbPolyline
 90
       11
 70
   128
 43
0.0
 10
42.628197236
 20
21.0
 10
42.1787115797
 20
20.1382216208
 10
41.7687878857
 20
19.266593456
 10
41.3984261538
 20
18.3851155056
 10
41.0676263841
 20
17.4937877696
 10
40.7763885766
 20
16.592610248
 10
40.5247127312
 20
15.6815829408
 10
40.3125988481
 20
14.7607058481
 10
40.1400469272
 20
13.8299789697
 10
40.0070569684
 20
12.8894023058
 10
39.9136289718
 20
11.9389758563
  0
LWPOLYLINE
  5
6B
330
1F
100
AcDbEntity
  8
SLD-0
100
AcDbPolyline
 90
       12
 70
   128
 43
0.0
 10
45.2281815629
 20
21.0
 10
44.8156627208
 20
20.3211808415
 10
44.4345780472
 20
19.6315065651
 10
44.084927542
 20
18.9309771706
 10
43.7667112051
 20
18.2195926582
 10
43.4799290367
 20
17.4973530277
 10
43.2245810366
 20
16.7642582792
 10
43.000667205
 20
16.0203084128
 10
42.8081875417
 20
15.2655034283
 10
42.6471420468
 20
14.4998433258
 10
42.5175307203
 20
13.7233281053
 10
42.4193535622
 20
12.9359577668
  0
LWPOLYLINE
  5
6C
330
1F
100
AcDbEntity
  8
SLD-0
100
AcDbPolyline
 90
       14
 70
   128
 43
0.0
 10
46.3795289637
 20
10.9849760637
 10
46.3939249996
 20
10.2263558363
 10
46.4371131075
 20
9.4747214014
 10
46.5090932872
 20
8.7300727591
 10
46.6098655389
 20
7.9924099093
 10
46.7394298625
 20
7.261732852
 10
46.8977862579
 20
6.5380415872
 10
47.0849347253
 20
5.821336115
 10
47.3008752646
 20
5.1116164353
 10
47.5456078758
 20
4.4088825481
 10
47.8191325588
 20
3.7131344534
 10
48.1214493138
 20
3.0243721513
 10
48.4525581407
 20
2.3425956417
 10
48.8124590395
 20
1.6678049246
  0
LWPOLYLINE
  5
6D
330
1F
100
AcDbEntity
  8
SLD-0
100
AcDbPolyline
 90
       14
 70
   128
 43
0.0
 10
48.925470822
 20
10.9833290568
 10
48.9334458204
 20
10.2280969432
 10
48.9712189821
 20
9.4793474729
 10
49.0387903071
 20
8.7370806457
 10
49.1361597954
 20
8.0012964618
 10
49.2633274471
 20
7.2719949211
 10
49.420293262
 20
6.5491760237
 10
49.6070572402
 20
5.8328397694
 10
49.8236193817
 20
5.1229861584
 10
50.0699796864
 20
4.4196151906
 10
50.3461381545
 20
3.7227268661
 10
50.6520947859
 20
3.0323211847
 10
50.9878495806
 20
2.3483981466
 10
51.3534025386
 20
1.6709577517
  0
LWPOLYLINE
  5
6E
330
1F
100
AcDbEntity
  8
SLD-0
100
AcDbPolyline
 90
       13
 70
   128
 43
0.0
 10
51.2350291579
 20
11.0527131938
 10
51.2540789836
 20
10.2277135084
 10
51.3061497722
 20
9.4113328322
 10
51.3912415236
 20
8.6035711651
 10
51.5093542379
 20
7.8044285072
 10
51.660487915
 20
7.0139048586
 10
51.8446425551
 20
6.2320002191
 10
52.061818158
 20
5.4587145888
 10
52.3120147238
 20
4.6940479677
 10
52.5952322524
 20
3.9380003558
 10
52.911470744
 20
3.190571753
 10
53.2607301984
 20
2.4517621595
 10
53.6430106156
 20
1.7215715752
  0
ENDSEC
  0
SECTION
  2
OBJECTS
  0
DICTIONARY
  5
C
330
0
100
AcDbDictionary
281
     1
  3
ACAD_GROUP
350
D
  3
ACAD_LAYOUT
350
1A
  3
ACAD_MLINESTYLE
350
17
  3
ACAD_PLOTSETTINGS
350
19
  3
ACAD_PLOTSTYLENAME
350
E
  0
DICTIONARY
  5
D
102
{ACAD_REACTORS
330
C
102
}
330
C
100
AcDbDictionary
281
     1
  0
DICTIONARY
  5
1A
102
{ACAD_REACTORS
330
C
102
}
330
C
100
AcDbDictionary
281
     1
  3
Layout1
350
1E
  3
Layout2
350
26
  3
Model
350
22
  0
DICTIONARY
  5
17
102
{ACAD_REACTORS
330
C
102
}
330
C
100
AcDbDictionary
281
     1
  3
Standard
350
18
  0
DICTIONARY
  5
19
102
{ACAD_REACTORS
330
C
102
}
330
C
100
AcDbDictionary
281
     1
  0
ACDBDICTIONARYWDFLT
  5
E
102
{ACAD_REACTORS
330
C
102
}
330
C
100
AcDbDictionary
281
     1
  3
Normal
350
F
100
AcDbDictionaryWithDefault
340
F
  0
LAYOUT
  5
1E
102
{ACAD_REACTORS
330
1A
102
}
330
1A
100
AcDbPlotSettings
  1

  2
none_device
  4

  6

 40
0.0
 41
0.0
 42
0.0
 43
0.0
 44
0.0
 45
0.0
 46
0.0
 47
0.0
 48
0.0
 49
0.0
140
0.0
141
0.0
142
1.0
143
1.0
 70
   688
 72
     0
 73
     0
 74
     5
  7

 75
    16
147
1.0
148
0.0
149
0.0
100
AcDbLayout
  1
Layout1
 70
     1
 71
     1
 10
0.0
 20
0.0
 11
420.0
 21
297.0
 12
0.0
 22
0.0
 32
0.0
 14
1.0000000000E+20
 24
1.0000000000E+20
 34
1.0000000000E+20
 15
-1.0000000000E+20
 25
-1.0000000000E+20
 35
-1.0000000000E+20
146
0.0
 13
0.0
 23
0.0
 33
0.0
 16
1.0
 26
0.0
 36
0.0
 17
0.0
 27
1.0
 37
0.0
 76
     0
330
1B
  0
LAYOUT
  5
26
102
{ACAD_REACTORS
330
1A
102
}
330
1A
100
AcDbPlotSettings
  1

  2
none_device
  4

  6

 40
0.0
 41
0.0
 42
0.0
 43
0.0
 44
0.0
 45
0.0
 46
0.0
 47
0.0
 48
0.0
 49
0.0
140
0.0
141
0.0
142
1.0
143
1.0
 70
   688
 72
     0
 73
     0
 74
     5
  7

 75
    16
147
1.0
148
0.0
149
0.0
100
AcDbLayout
  1
Layout2
 70
     1
 71
     2
 10
0.0
 20
0.0
 11
0.0
 21
0.0
 12
0.0
 22
0.0
 32
0.0
 14
0.0
 24
0.0
 34
0.0
 15
0.0
 25
0.0
 35
0.0
146
0.0
 13
0.0
 23
0.0
 33
0.0
 16
1.0
 26
0.0
 36
0.0
 17
0.0
 27
1.0
 37
0.0
 76
     0
330
23
  0
LAYOUT
  5
22
102
{ACAD_REACTORS
330
1A
102
}
330
1A
100
AcDbPlotSettings
  1

  2
none_device
  4

  6

 40
0.0
 41
0.0
 42
0.0
 43
0.0
 44
0.0
 45
0.0
 46
0.0
 47
0.0
 48
0.0
 49
0.0
140
0.0
141
0.0
142
1.0
143
1.0
 70
  1712
 72
     0
 73
     0
 74
     0
  7

 75
     0
147
1.0
148
0.0
149
0.0
100
AcDbLayout
  1
Model
 70
     1
 71
     0
 10
0.0
 20
0.0
 11
210.0
 21
297.0
 12
0.0
 22
0.0
 32
0.0
 14
0.0
 24
0.0
 34
0.0
 15
210.0
 25
297.0
 35
0.0
146
0.0
 13
0.0
 23
0.0
 33
0.0
 16
1.0
 26
0.0
 36
0.0
 17
0.0
 27
1.0
 37
0.0
 76
     0
330
1F
331
29
  0
MLINESTYLE
  5
18
102
{ACAD_REACTORS
330
17
102
}
330
17
100
AcDbMlineStyle
  2
Standard
 70
     0
  3

 62
   256
 51
90.0
 52
90.0
 71
     2
 49
0.5
 62
   256
  6
BYLAYER
 49
-0.5
 62
   256
  6
BYLAYER
  0
ACDBPLACEHOLDER
  5
F
102
{ACAD_REACTORS
330
E
102
}
330
E
  0
ENDSEC
  0
EOF
