  0
SECTION
  2
HEADER
  9
$ACADVER
  1
AC1015
  9
$ACADMAINTVER
 70
     6
  9
$DWGCODEPAGE
  3
ANSI_1254
  9
$INSBASE
 10
0.0
 20
0.0
 30
0.0
  9
$EXTMIN
 10
0.0
 20
0.0
 30
0.0
  9
$EXTMAX
 10
210.0
 20
297.0
 30
0.0
  9
$LIMMIN
 10
0.0
 20
0.0
  9
$LIMMAX
 10
210.0
 20
297.0
  9
$ORTHOMODE
 70
     0
  9
$REGENMODE
 70
     1
  9
$FILLMODE
 70
     1
  9
$QTEXTMODE
 70
     0
  9
$MIRRTEXT
 70
     1
  9
$LTSCALE
 40
1.0
  9
$ATTMODE
 70
     1
  9
$TEXTSIZE
 40
3.5
  9
$TRACEWID
 40
1.0
  9
$TEXTSTYLE
  7
Standard
  9
$CLAYER
  8
0
  9
$CELTYPE
  6
ByLayer
  9
$CECOLOR
 62
   256
  9
$CELTSCALE
 40
1.0
  9
$DISPSILH
 70
     0
  9
$DIMSCALE
 40
1.0
  9
$DIMASZ
 40
3.302
  9
$DIMEXO
 40
1.0
  9
$DIMDLI
 40
3.75
  9
$DIMRND
 40
0.0
  9
$DIMDLE
 40
0.0
  9
$DIMEXE
 40
1.0
  9
$DIMTP
 40
0.0
  9
$DIMTM
 40
0.0
  9
$DIMTXT
 40
3.5
  9
$DIMCEN
 40
2.5
  9
$DIMTSZ
 40
0.0
  9
$DIMTOL
 70
     0
  9
$DIMLIM
 70
     0
  9
$DIMTIH
 70
     1
  9
$DIMTOH
 70
     1
  9
$DIMSE1
 70
     0
  9
$DIMSE2
 70
     0
  9
$DIMTAD
 70
     1
  9
$DIMZIN
 70
     1
  9
$DIMBLK
  1

  9
$DIMASO
 70
     1
  9
$DIMSHO
 70
     1
  9
$DIMPOST
  1

  9
$DIMAPOST
  1

  9
$DIMALT
 70
     0
  9
$DIMALTD
 70
     3
  9
$DIMALTF
 40
0.0393700787
  9
$DIMLFAC
 40
1.0
  9
$DIMTOFL
 70
     1
  9
$DIMTVP
 40
0.0
  9
$DIMTIX
 70
     0
  9
$DIMSOXD
 70
     0
  9
$DIMSAH
 70
     0
  9
$DIMBLK1
  1

  9
$DIMBLK2
  1

  9
$DIMSTYLE
  2
ISO-25
  9
$DIMCLRD
 70
     0
  9
$DIMCLRE
 70
     0
  9
$DIMCLRT
 70
     0
  9
$DIMTFAC
 40
1.0
  9
$DIMGAP
 40
1.524
  9
$DIMJUST
 70
     0
  9
$DIMSD1
 70
     0
  9
$DIMSD2
 70
     0
  9
$DIMTOLJ
 70
     0
  9
$DIMTZIN
 70
     1
  9
$DIMALTZ
 70
     0
  9
$DIMALTTZ
 70
     0
  9
$DIMUPT
 70
     0
  9
$DIMDEC
 70
     0
  9
$DIMTDEC
 70
     4
  9
$DIMALTU
 70
     2
  9
$DIMALTTD
 70
     3
  9
$DIMTXSTY
  7
Standard
  9
$DIMAUNIT
 70
     0
  9
$DIMADEC
 70
     0
  9
$DIMALTRND
 40
0.0
  9
$DIMAZIN
 70
     0
  9
$DIMDSEP
 70
    44
  9
$DIMATFIT
 70
     3
  9
$DIMFRAC
 70
     0
  9
$DIMLDRBLK
  1

  9
$DIMLUNIT
 70
     2
  9
$DIMLWD
 70
    -2
  9
$DIMLWE
 70
    -2
  9
$DIMTMOVE
 70
     0
  9
$LUNITS
 70
     2
  9
$LUPREC
 70
     4
  9
$SKETCHINC
 40
1.0
  9
$FILLETRAD
 40
10.0
  9
$AUNITS
 70
     0
  9
$AUPREC
 70
     0
  9
$MENU
  1
.
  9
$ELEVATION
 40
0.0
  9
$PELEVATION
 40
0.0
  9
$THICKNESS
 40
0.0
  9
$LIMCHECK
 70
     0
  9
$CHAMFERA
 40
10.0
  9
$CHAMFERB
 40
10.0
  9
$CHAMFERC
 40
20.0
  9
$CHAMFERD
 40
0.0
  9
$SKPOLY
 70
     0
  9
$TDCREATE
 40
2457075.859305602
  9
$TDUCREATE
 40
2457075.775972269
  9
$TDUPDATE
 40
2457075.859305694
  9
$TDUUPDATE
 40
2457075.775972361
  9
$TDINDWG
 40
0.0000000116
  9
$TDUSRTIMER
 40
0.0000000116
  9
$USRTIMER
 70
     1
  9
$ANGBASE
 50
0.0
  9
$ANGDIR
 70
     0
  9
$PDMODE
 70
     0
  9
$PDSIZE
 40
-1.0
  9
$PLINEWID
 40
0.0
  9
$SPLFRAME
 70
     0
  9
$SPLINETYPE
 70
     6
  9
$SPLINESEGS
 70
     8
  9
$HANDSEED
  5
6F
  9
$SURFTAB1
 70
     6
  9
$SURFTAB2
 70
     6
  9
$SURFTYPE
 70
     6
  9
$SURFU
 70
     6
  9
$SURFV
 70
     6
  9
$UCSBASE
  2

  9
$UCSNAME
  2

  9
$UCSORG
 10
0.0
 20
0.0
 30
0.0
  9
$UCSXDIR
 10
1.0
 20
0.0
 30
0.0
  9
$UCSYDIR
 10
0.0
 20
1.0
 30
0.0
  9
$UCSORTHOREF
  2

  9
$UCSORTHOVIEW
 70
     0
  9
$UCSORGTOP
 10
0.0
 20
0.0
 30
0.0
  9
$UCSORGBOTTOM
 10
0.0
 20
0.0
 30
0.0
  9
$UCSORGLEFT
 10
0.0
 20
0.0
 30
0.0
  9
$UCSORGRIGHT
 10
0.0
 20
0.0
 30
0.0
  9
$UCSORGFRONT
 10
0.0
 20
0.0
 30
0.0
  9
$UCSORGBACK
 10
0.0
 20
0.0
 30
0.0
  9
$PUCSBASE
  2

  9
$PUCSNAME
  2

  9
$PUCSORG
 10
0.0
 20
0.0
 30
0.0
  9
$PUCSXDIR
 10
1.0
 20
0.0
 30
0.0
  9
$PUCSYDIR
 10
0.0
 20
1.0
 30
0.0
  9
$PUCSORTHOREF
  2

  9
$PUCSORTHOVIEW
 70
     0
  9
$PUCSORGTOP
 10
0.0
 20
0.0
 30
0.0
  9
$PUCSORGBOTTOM
 10
0.0
 20
0.0
 30
0.0
  9
$PUCSORGLEFT
 10
0.0
 20
0.0
 30
0.0
  9
$PUCSORGRIGHT
 10
0.0
 20
0.0
 30
0.0
  9
$PUCSORGFRONT
 10
0.0
 20
0.0
 30
0.0
  9
$PUCSORGBACK
 10
0.0
 20
0.0
 30
0.0
  9
$USERI1
 70
     0
  9
$USERI2
 70
     0
  9
$USERI3
 70
     0
  9
$USERI4
 70
     0
  9
$USERI5
 70
     0
  9
$USERR1
 40
0.0
  9
$USERR2
 40
0.0
  9
$USERR3
 40
0.0
  9
$USERR4
 40
0.0
  9
$USERR5
 40
0.0
  9
$WORLDVIEW
 70
     1
  9
$SHADEDGE
 70
     3
  9
$SHADEDIF
 70
    70
  9
$TILEMODE
 70
     1
  9
$MAXACTVP
 70
    64
  9
$PINSBASE
 10
0.0
 20
0.0
 30
0.0
  9
$PLIMCHECK
 70
     0
  9
$PEXTMIN
 10
1.0000000000E+20
 20
1.0000000000E+20
 30
1.0000000000E+20
  9
$PEXTMAX
 10
-1.0000000000E+20
 20
-1.0000000000E+20
 30
-1.0000000000E+20
  9
$PLIMMIN
 10
0.0
 20
0.0
  9
$PLIMMAX
 10
420.0
 20
297.0
  9
$UNITMODE
 70
     0
  9
$VISRETAIN
 70
     1
  9
$PLINEGEN
 70
     0
  9
$PSLTSCALE
 70
     1
  9
$TREEDEPTH
 70
  3020
  9
$CMLSTYLE
  2
Standard
  9
$CMLJUST
 70
     0
  9
$CMLSCALE
 40
20.0
  9
$PROXYGRAPHICS
 70
     1
  9
$MEASUREMENT
 70
     1
  9
$CELWEIGHT
370
    -1
  9
$ENDCAPS
280
     0
  9
$JOINSTYLE
280
     0
  9
$LWDISPLAY
290
     1
  9
$INSUNITS
 70
     4
  9
$HYPERLINKBASE
  1

  9
$STYLESHEET
  1

  9
$XEDIT
290
     1
  9
$CEPSNTYPE
380
     0
  9
$PSTYLEMODE
290
     1
  9
$FINGERPRINTGUID
  2
{E591FC7E-4EAC-4826-B750-5B62D7CA7AEA}
  9
$VERSIONGUID
  2
{FAEB1C32-E019-11D5-929B-00C0DF256EC4}
  9
$EXTNAMES
290
     1
  9
$PSVPSCALE
 40
0.0
  9
$OLESTARTUP
290
     0
  0
ENDSEC
  0
SECTION
  2
CLASSES
  0
CLASS
  1
ACDBDICTIONARYWDFLT
  2
AcDbDictionaryWithDefault
  3
ObjectDBX Classes
 90
        0
280
     0
281
     0
  0
CLASS
  1
VISUALSTYLE
  2
AcDbVisualStyle
  3
ObjectDBX Classes
 90
     4095
280
     0
281
     0
  0
CLASS
  1
MATERIAL
  2
AcDbMaterial
  3
ObjectDBX Classes
 90
     1153
280
     0
281
     0
  0
CLASS
  1
ACDBPLACEHOLDER
  2
AcDbPlaceHolder
  3
ObjectDBX Classes
 90
        0
280
     0
281
     0
  0
CLASS
  1
LAYOUT
  2
AcDbLayout
  3
ObjectDBX Classes
 90
        0
280
     0
281
     0
  0
ENDSEC
  0
SECTION
  2
TABLES
  0
TABLE
  2
VPORT
  5
8
330
0
100
AcDbSymbolTable
 70
     1
  0
VPORT
  5
29
330
8
100
AcDbSymbolTableRecord
100
AcDbViewportTableRecord
  2
*Active
 70
     0
 10
0.0
 20
0.0
 11
1.0
 21
1.0
 12
105.0
 22
148.5
 13
0.0
 23
0.0
 14
10.0
 24
10.0
 15
10.0
 25
10.0
 16
0.0
 26
0.0
 36
1.0
 17
0.0
 27
0.0
 37
0.0
 40
297.0
 41
0.7070707071
 42
50.0
 43
0.0
 44
0.0
 50
0.0
 51
0.0
 71
     0
 72
  2000
 73
     1
 74
     3
 75
     0
 76
     0
 77
     0
 78
     0
281
     0
 65
     1
110
0.0
120
0.0
130
0.0
111
1.0
121
0.0
131
0.0
112
0.0
122
1.0
132
0.0
 79
     0
146
0.0
  0
ENDTAB
  0
TABLE
  2
LTYPE
  5
5
330
0
100
AcDbSymbolTable
 70
     6
  0
LTYPE
  5
14
330
5
100
AcDbSymbolTableRecord
100
AcDbLinetypeTableRecord
  2
ByBlock
 70
     0
  3

 72
    65
 73
     0
 40
0.0
  0
LTYPE
  5
15
330
5
100
AcDbSymbolTableRecord
100
AcDbLinetypeTableRecord
  2
ByLayer
 70
     0
  3

 72
    65
 73
     0
 40
0.0
  0
LTYPE
  5
16
330
5
100
AcDbSymbolTableRecord
100
AcDbLinetypeTableRecord
  2
Continuous
 70
     0
  3
Solid line
 72
    65
 73
     0
 40
0.0
  0
LTYPE
  5
3F
330
5
100
AcDbSymbolTableRecord
100
AcDbLinetypeTableRecord
  2
HIDDEN
 70
     0
  3
Hidden __ __ __ __ __ __ __ __ __ __ __ __ __ __
 72
    65
 73
     2
 40
1.905
 49
1.27
 74
     0
 49
-0.635
 74
     0
  0
LTYPE
  5
40
330
5
100
AcDbSymbolTableRecord
100
AcDbLinetypeTableRecord
  2
PHANTOM
 70
     0
  3
Phantom ______  __  __  ______  __  __  ______
 72
    65
 73
     6
 40
12.7
 49
6.35
 74
     0
 49
-1.27
 74
     0
 49
1.27
 74
     0
 49
-1.27
 74
     0
 49
1.27
 74
     0
 49
-1.27
 74
     0
  0
LTYPE
  5
41
330
5
100
AcDbSymbolTableRecord
100
AcDbLinetypeTableRecord
  2
CENTER
 70
     0
  3
Center ____ _ ____ _ ____ _ ____ _ ____ _ ____
 72
    65
 73
     4
 40
10.16
 49
6.35
 74
     0
 49
-1.27
 74
     0
 49
1.27
 74
     0
 49
-1.27
 74
     0
  0
LTYPE
  5
42
330
5
100
AcDbSymbolTableRecord
100
AcDbLinetypeTableRecord
  2
CENTERX2
 70
     0
  3
Center (2x) ________  __  ________  __  _____
 72
    65
 73
     4
 40
20.32
 49
12.7
 74
     0
 49
-2.54
 74
     0
 49
2.54
 74
     0
 49
-2.54
 74
     0
  0
LTYPE
  5
43
330
5
100
AcDbSymbolTableRecord
100
AcDbLinetypeTableRecord
  2
DOT2
 70
     0
  3
Dot (.5x) ........................................
 72
    65
 73
     2
 40
0.635
 49
0.0
 74
     0
 49
-0.635
 74
     0
  0
ENDTAB
  0
TABLE
  2
LAYER
  5
2
330
0
100
AcDbSymbolTable
 70
     3
  0
LAYER
  5
10
330
2
100
AcDbSymbolTableRecord
100
AcDbLayerTableRecord
  2
0
 70
     0
 62
     7
  6
Continuous
370
    -3
390
F
  0
LAYER
  5
44
330
2
100
AcDbSymbolTableRecord
100
AcDbLayerTableRecord
  2
SLD-0
 70
     0
 62
   179
  6
Continuous
370
    -3
390
F
  0
LAYER
  5
45
330
2
100
AcDbSymbolTableRecord
100
AcDbLayerTableRecord
  2
FORMAT
 70
     0
 62
     7
  6
Continuous
370
    -3
390
F
  0
ENDTAB
  0
TABLE
  2
STYLE
  5
3
330
0
100
AcDbSymbolTable
 70
     1
  0
STYLE
  5
11
330
3
100
AcDbSymbolTableRecord
100
AcDbTextStyleTableRecord
  2
Standard
 70
     0
 40
0.0
 41
1.0
 50
0.0
 71
     0
 42
3.5
  3
txt
  4

  0
ENDTAB
  0
TABLE
  2
VIEW
  5
6
330
0
100
AcDbSymbolTable
 70
     0
  0
ENDTAB
  0
TABLE
  2
UCS
  5
7
330
0
100
AcDbSymbolTable
 70
     0
  0
ENDTAB
  0
TABLE
  2
APPID
  5
9
330
0
100
AcDbSymbolTable
 70
     1
  0
APPID
  5
12
330
9
100
AcDbSymbolTableRecord
100
AcDbRegAppTableRecord
  2
ACAD
 70
     0
  0
ENDTAB
  0
TABLE
  2
DIMSTYLE
  5
A
330
0
100
AcDbSymbolTable
 70
     1
100
AcDbDimStyleTable
  0
DIMSTYLE
105
27
330
A
100
AcDbSymbolTableRecord
100
AcDbDimStyleTableRecord
  2
ISO-25
 70
     0
 41
2.5
 42
0.625
 43
3.75
 44
1.25
 73
     0
 74
     0
 77
     1
 78
     8
140
2.5
141
2.5
143
0.0393700787
147
0.625
171
     3
172
     1
178
     0
271
     2
272
     2
274
     3
278
    44
283
     0
284
     8
340
11
  0
ENDTAB
  0
TABLE
  2
BLOCK_RECORD
  5
1
330
0
100
AcDbSymbolTable
 70
     1
  0
BLOCK_RECORD
  5
1F
330
1
100
AcDbSymbolTableRecord
100
AcDbBlockTableRecord
  2
*Model_Space
340
22
  0
BLOCK_RECORD
  5
1B
330
1
100
AcDbSymbolTableRecord
100
AcDbBlockTableRecord
  2
*Paper_Space
340
1E
  0
BLOCK_RECORD
  5
23
330
1
100
AcDbSymbolTableRecord
100
AcDbBlockTableRecord
  2
*Paper_Space0
340
26
  0
ENDTAB
  0
ENDSEC
  0
SECTION
  2
BLOCKS
  0
BLOCK
  5
20
330
1F
100
AcDbEntity
  8
0
100
AcDbBlockBegin
  2
*Model_Space
 70
     0
 10
0.0
 20
0.0
 30
0.0
  3
*Model_Space
  1

  0
ENDBLK
  5
21
330
1F
100
AcDbEntity
  8
0
100
AcDbBlockEnd
  0
BLOCK
  5
1C
330
1B
100
AcDbEntity
 67
     1
  8
0
100
AcDbBlockBegin
  2
*Paper_Space
 70
     0
 10
0.0
 20
0.0
 30
0.0
  3
*Paper_Space
  1

  0
ENDBLK
  5
1D
330
1B
100
AcDbEntity
 67
     1
  8
0
100
AcDbBlockEnd
  0
BLOCK
  5
24
330
23
100
AcDbEntity
  8
0
100
AcDbBlockBegin
  2
*Paper_Space0
 70
     0
 10
0.0
 20
0.0
 30
0.0
  3
*Paper_Space0
  1

  0
ENDBLK
  5
25
330
23
100
AcDbEntity
  8
0
100
AcDbBlockEnd
  0
ENDSEC
  0
SECTION
  2
ENTITIES
  0
LINE
  5
46
330
1F
100
AcDbEntity
  8
SLD-0
 62
   179
100
AcDbLine
 10
4.2766990291
 20
2.395631068
 30
0.0
 11
4.6043689321
 21
2.395631068
 31
0.0
  0
LINE
  5
47
330
1F
100
AcDbEntity
  8
SLD-0
 62
   179
100
AcDbLine
 10
4.6043689321
 20
2.395631068
 30
0.0
 11
4.6043689321
 21
2.1286407767
 31
0.0
  0
LINE
  5
48
330
1F
100
AcDbEntity
  8
SLD-0
 62
   179
100
AcDbLine
 10
4.6043689321
 20
2.1286407767
 30
0.0
 11
4.2524271845
 21
2.1286407767
 31
0.0
  0
LINE
  5
49
330
1F
100
AcDbEntity
  8
SLD-0
100
AcDbLine
 10
1.0
 20
1.0
 30
0.0
 11
1.0
 21
3.5
 31
0.0
  0
LINE
  5
4A
330
1F
100
AcDbEntity
  8
SLD-0
100
AcDbLine
 10
4.3234056662
 20
1.0
 30
0.0
 11
4.6389396468
 21
1.0
 31
0.0
  0
LINE
  5
4B
330
1F
100
AcDbEntity
  8
SLD-0
100
AcDbLine
 10
4.3252427184
 20
3.5
 30
0.0
 11
4.640776699
 21
3.5
 31
0.0
  0
LINE
  5
4C
330
1F
100
AcDbEntity
  8
SLD-0
100
AcDbLine
 10
6.6724411298
 20
3.5
 30
0.0
 11
6.6724411205
 21
2.248122008
 31
0.0
  0
LINE
  5
4D
330
1F
100
AcDbEntity
  8
SLD-0
100
AcDbLine
 10
6.9906838528
 20
3.5
 30
0.0
 11
6.9906838528
 21
2.2479161321
 31
0.0
  0
LINE
  5
4E
330
1F
100
AcDbEntity
  8
SLD-0
100
AcDbLine
 10
1.0
 20
3.5
 30
0.0
 11
4.0097087379
 21
3.5
 31
0.0
  0
LINE
  5
4F
330
1F
100
AcDbEntity
  8
SLD-0
 62
   179
100
AcDbLine
 10
1.0
 20
3.5
 30
0.0
 11
1.0
 21
1.0
 31
0.0
  0
LINE
  5
50
330
1F
100
AcDbEntity
  8
SLD-0
 62
   179
100
AcDbLine
 10
1.0
 20
1.0
 30
0.0
 11
4.0097087379
 21
1.0
 31
0.0
  0
LINE
  5
51
330
1F
100
AcDbEntity
  8
SLD-0
100
AcDbLine
 10
7.6322889995
 20
1.0
 30
0.0
 11
10.3446601942
 21
1.0
 31
0.0
  0
LINE
  5
52
330
1F
100
AcDbEntity
  8
SLD-0
  6
CENTERX2
 62
   179
100
AcDbLine
 10
5.8574703672
 20
1.0
 30
0.0
 11
6.1639827585
 21
1.0
 31
0.0
  0
LINE
  5
53
330
1F
100
AcDbEntity
  8
SLD-0
 62
   179
100
AcDbLine
 10
6.1639827585
 20
1.0
 30
0.0
 11
6.1639827585
 21
2.1331907912
 31
0.0
  0
LINE
  5
54
330
1F
100
AcDbEntity
  8
SLD-0
  6
CENTERX2
 62
   179
100
AcDbLine
 10
6.1639827585
 20
2.1331907912
 30
0.0
 11
6.4894720449
 21
2.1331907912
 31
0.0
  0
LINE
  5
55
330
1F
100
AcDbEntity
  8
SLD-0
  6
CENTERX2
 62
   179
100
AcDbLine
 10
6.4894720449
 20
2.1331907912
 30
0.0
 11
6.4894720449
 21
2.3922165388
 31
0.0
  0
LINE
  5
56
330
1F
100
AcDbEntity
  8
SLD-0
  6
CENTERX2
 62
   179
100
AcDbLine
 10
6.4894720449
 20
2.3922165388
 30
0.0
 11
6.1690763216
 21
2.3922165388
 31
0.0
  0
LINE
  5
57
330
1F
100
AcDbEntity
  8
SLD-0
  6
CENTERX2
 62
   179
100
AcDbLine
 10
6.2035246545
 20
3.5
 30
0.0
 11
6.5285226954
 21
3.5
 31
0.0
  0
LINE
  5
58
330
1F
100
AcDbEntity
  8
SLD-0
 62
   179
100
AcDbLine
 10
5.8574703672
 20
1.0
 30
0.0
 11
5.8574703672
 21
2.2473374526
 31
0.0
  0
LINE
  5
59
330
1F
100
AcDbEntity
  8
SLD-0
  6
CENTERX2
 62
   179
100
AcDbLine
 10
7.0251440013
 20
1.0
 30
0.0
 11
7.3435942075
 21
1.0
 31
0.0
  0
LINE
  5
5A
330
1F
100
AcDbEntity
  8
SLD-0
 62
   179
100
AcDbLine
 10
6.6724411298
 20
3.5
 30
0.0
 11
6.9906838528
 21
3.5
 31
0.0
  0
LINE
  5
5B
330
1F
100
AcDbEntity
  8
SLD-0
 62
   179
100
AcDbLine
 10
7.2793786447
 20
2.256589125
 30
0.0
 11
7.2793786447
 21
3.5
 31
0.0
  0
LINE
  5
5C
330
1F
100
AcDbEntity
  8
SLD-0
 62
   179
100
AcDbLine
 10
7.2793786447
 20
3.5
 30
0.0
 11
10.3446601942
 21
3.5
 31
0.0
  0
LINE
  5
5D
330
1F
100
AcDbEntity
  8
SLD-0
 62
   179
100
AcDbLine
 10
10.3446601942
 20
3.5
 30
0.0
 11
10.3446601942
 21
1.0
 31
0.0
  0
LINE
  5
5E
330
1F
100
AcDbEntity
  8
SLD-0
 62
   179
100
AcDbLine
 10
5.1504854369
 20
3.5
 30
0.0
 11
4.8470873786
 21
3.5
 31
0.0
  0
LINE
  5
5F
330
1F
100
AcDbEntity
  8
SLD-0
 62
   179
100
AcDbLine
 10
4.8470873786
 20
3.5
 30
0.0
 11
4.8470873786
 21
1.0
 31
0.0
  0
LINE
  5
60
330
1F
100
AcDbEntity
  8
SLD-0
 62
   179
100
AcDbLine
 10
4.8470873786
 20
1.0
 30
0.0
 11
5.1504854369
 21
1.0
 31
0.0
  0
LINE
  5
61
330
1F
100
AcDbEntity
  8
SLD-0
 62
   179
100
AcDbLine
 10
5.1504854369
 20
1.0
 30
0.0
 11
5.1504854369
 21
3.5
 31
0.0
  0
LINE
  5
62
330
1F
100
AcDbEntity
  8
SLD-0
 62
   179
100
AcDbLine
 10
5.552254892
 20
3.5
 30
0.0
 11
5.23215879
 21
3.5
 31
0.0
  0
LINE
  5
63
330
1F
100
AcDbEntity
  8
SLD-0
 62
   179
100
AcDbLine
 10
5.23215879
 20
2.247339131
 30
0.0
 11
5.552254892
 21
2.247339131
 31
0.0
  0
LWPOLYLINE
  5
64
330
1F
100
AcDbEntity
  8
SLD-0
100
AcDbPolyline
 90
       31
 70
   128
 43
0.0
 10
4.0097087379
 20
1.0
 10
3.9632163752
 20
1.068165194
 10
3.9198235035
 20
1.1371623857
 10
3.8795301225
 20
1.2069915753
 10
3.8423362324
 20
1.2776527628
 10
3.8082418332
 20
1.349145948
 10
3.7772469247
 20
1.4214711311
 10
3.7493515072
 20
1.494628312
 10
3.7245555804
 20
1.5686174907
 10
3.7028591446
 20
1.6434386672
 10
3.6842621995
 20
1.7190918416
 10
3.6687647453
 20
1.7955770138
 10
3.6563667819
 20
1.8728941838
 10
3.6470683094
 20
1.9510433516
 10
3.6408693277
 20
2.0300245173
 10
3.6377698369
 20
2.1098376807
 10
3.6377698369
 20
2.190482842
 10
3.6408693277
 20
2.2719600011
 10
3.6470683094
 20
2.3542691581
 10
3.6563667819
 20
2.4374103128
 10
3.6687647453
 20
2.5213834654
 10
3.6842621995
 20
2.6061886158
 10
3.7028591446
 20
2.691825764
 10
3.7245555804
 20
2.7782949101
 10
3.7493515072
 20
2.8655960539
 10
3.7772469247
 20
2.9537291956
 10
3.8082418332
 20
3.0426943351
 10
3.8423362324
 20
3.1324914725
 10
3.8795301225
 20
3.2231206076
 10
3.9198235035
 20
3.3145817406
 10
3.9632163752
 20
3.4068748714
  0
LWPOLYLINE
  5
65
330
1F
100
AcDbEntity
  8
SLD-0
100
AcDbPolyline
 90
       31
 70
   128
 43
0.0
 10
4.3252427184
 20
1.0
 10
4.2787503558
 20
1.068165194
 10
4.235357484
 20
1.1371623857
 10
4.1950641031
 20
1.2069915753
 10
4.157870213
 20
1.2776527628
 10
4.1237758137
 20
1.349145948
 10
4.0927809053
 20
1.4214711311
 10
4.0648854878
 20
1.494628312
 10
4.040089561
 20
1.5686174907
 10
4.0183931251
 20
1.6434386672
 10
3.9997961801
 20
1.7190918416
 10
3.9842987259
 20
1.7955770138
 10
3.9719007625
 20
1.8728941838
 10
3.96260229
 20
1.9510433516
 10
3.9564033083
 20
2.0300245172
 10
3.9533038175
 20
2.1098376807
 10
3.9533038175
 20
2.190482842
 10
3.9564033083
 20
2.2719600011
 10
3.96260229
 20
2.3542691581
 10
3.9719007625
 20
2.4374103128
 10
3.9842987259
 20
2.5213834654
 10
3.9997961801
 20
2.6061886158
 10
4.0183931251
 20
2.691825764
 10
4.040089561
 20
2.7782949101
 10
4.0648854878
 20
2.8655960539
 10
4.0927809053
 20
2.9537291956
 10
4.1237758137
 20
3.0426943351
 10
4.157870213
 20
3.1324914725
 10
4.1950641031
 20
3.2231206076
 10
4.235357484
 20
3.3145817406
 10
4.2787503558
 20
3.4068748714
  0
LWPOLYLINE
  5
66
330
1F
100
AcDbEntity
  8
SLD-0
100
AcDbPolyline
 90
       15
 70
   128
 43
0.0
 10
4.640776699
 20
1.0
 10
4.5927443908
 20
1.0675437295
 10
4.5478752741
 20
1.1361873145
 10
4.5061693489
 20
1.2059307551
 10
4.4676266152
 20
1.2767740513
 10
4.432247073
 20
1.348717203
 10
4.4000307224
 20
1.4217602104
 10
4.3709775632
 20
1.4959030732
 10
4.3450875956
 20
1.5711457917
 10
4.3223608194
 20
1.6474883657
 10
4.3027972348
 20
1.7249307953
 10
4.2863968417
 20
1.8034730804
 10
4.2731596401
 20
1.8831152211
 10
4.2630856301
 20
1.9638572174
 10
4.2561748115
 20
2.0456990693
  0
LWPOLYLINE
  5
67
330
1F
100
AcDbEntity
  8
SLD-0
100
AcDbPolyline
 90
       11
 70
   128
 43
0.0
 10
4.640776699
 20
3.5
 10
4.5858871665
 20
3.4058066572
 10
4.5353559465
 20
3.3103725479
 10
4.4891830389
 20
3.213697672
 10
4.4473684439
 20
3.1157820295
 10
4.4099121614
 20
3.0166256204
 10
4.3768141914
 20
2.9162284448
 10
4.3480745339
 20
2.8145905025
 10
4.323693189
 20
2.7117117938
 10
4.3036701565
 20
2.6075923184
 10
4.2880054366
 20
2.5022320765
  0
LWPOLYLINE
  5
68
330
1F
100
AcDbEntity
  8
SLD-0
100
AcDbPolyline
 90
       40
 70
   128
 43
0.0
 10
5.23215879
 20
3.5
 10
5.2566661915
 20
3.4680694631
 10
5.2799168031
 20
3.4361704141
 10
5.301910625
 20
3.404302853
 10
5.322647657
 20
3.37246678
 10
5.3421278992
 20
3.3406621949
 10
5.3603513516
 20
3.3088890977
 10
5.3773180141
 20
3.2771474885
 10
5.3930278869
 20
3.2454373673
 10
5.4074809698
 20
3.213758734
 10
5.4206772629
 20
3.1821115887
 10
5.4326167662
 20
3.1504959314
 10
5.4432994796
 20
3.118911762
 10
5.4527254033
 20
3.0873590806
 10
5.4608945371
 20
3.0558378871
 10
5.4678068811
 20
3.0243481816
 10
5.4734624353
 20
2.992889964
 10
5.4778611996
 20
2.9614632345
 10
5.4810031742
 20
2.9300679928
 10
5.4828883589
 20
2.8987042392
 10
5.4835167538
 20
2.8673719735
 10
5.4828883589
 20
2.8360711957
 10
5.4810031742
 20
2.8048019059
 10
5.4778611996
 20
2.7735641041
 10
5.4734624353
 20
2.7423577903
 10
5.4678068811
 20
2.7111829643
 10
5.4608945371
 20
2.6800396264
 10
5.4527254033
 20
2.6489277764
 10
5.4432994796
 20
2.6178474144
 10
5.4326167662
 20
2.5867985403
 10
5.4206772629
 20
2.5557811542
 10
5.4074809698
 20
2.5247952561
 10
5.3930278869
 20
2.4938408459
 10
5.3773180141
 20
2.4629179237
 10
5.3603513516
 20
2.4320264894
 10
5.3421278992
 20
2.4011665431
 10
5.322647657
 20
2.3703380848
 10
5.301910625
 20
2.3395411144
 10
5.2799168031
 20
2.308775632
 10
5.2566661915
 20
2.2780416375
  0
LWPOLYLINE
  5
69
330
1F
100
AcDbEntity
  8
SLD-0
100
AcDbPolyline
 90
       37
 70
   128
 43
0.0
 10
5.552254892
 20
3.5
 10
5.577200213
 20
3.4659438409
 10
5.6007596828
 20
3.4318988185
 10
5.6229333015
 20
3.3978649328
 10
5.6437210691
 20
3.3638421837
 10
5.6631229854
 20
3.3298305713
 10
5.6811390506
 20
3.2958300955
 10
5.6977692646
 20
3.2618407564
 10
5.7130136275
 20
3.227862554
 10
5.7268721391
 20
3.1938954882
 10
5.7393447997
 20
3.1599395591
 10
5.750431609
 20
3.1259947666
 10
5.7601325672
 20
3.0920611109
 10
5.7684476742
 20
3.0581385917
 10
5.77537693
 20
3.0242272093
 10
5.7809203347
 20
2.9903269634
 10
5.7850778882
 20
2.9564378543
 10
5.7878495905
 20
2.9225598818
 10
5.7892354417
 20
2.888693046
 10
5.7892354417
 20
2.8548373468
 10
5.7878495905
 20
2.8209927843
 10
5.7850778882
 20
2.7871593585
 10
5.7809203347
 20
2.7533370693
 10
5.77537693
 20
2.7195259168
 10
5.7684476742
 20
2.6857259009
 10
5.7601325672
 20
2.6519370218
 10
5.750431609
 20
2.6181592792
 10
5.7393447997
 20
2.5843926734
 10
5.7268721391
 20
2.5506372041
 10
5.7130136275
 20
2.5168928716
 10
5.6977692646
 20
2.4831596757
 10
5.6811390506
 20
2.4494376165
 10
5.6631229854
 20
2.4157266939
 10
5.6437210691
 20
2.382026908
 10
5.6229333015
 20
2.3483382588
 10
5.6007596828
 20
2.3146607462
 10
5.577200213
 20
2.2809943703
  0
LWPOLYLINE
  5
6A
330
1F
100
AcDbEntity
  8
SLD-0
100
AcDbPolyline
 90
       11
 70
   128
 43
0.0
 10
6.2035246545
 20
3.5
 10
6.1473389475
 20
3.3922777026
 10
6.0960984857
 20
3.283324182
 10
6.0498032692
 20
3.1731394382
 10
6.008453298
 20
3.0617234712
 10
5.9720485721
 20
2.949076281
 10
5.9405890914
 20
2.8351978676
 10
5.914074856
 20
2.720088231
 10
5.8925058659
 20
2.6037473712
 10
5.8758821211
 20
2.4861752882
 10
5.8642036215
 20
2.367371982
  0
LWPOLYLINE
  5
6B
330
1F
100
AcDbEntity
  8
SLD-0
100
AcDbPolyline
 90
       12
 70
   128
 43
0.0
 10
6.5285226954
 20
3.5
 10
6.4769578401
 20
3.4151476052
 10
6.4293222559
 20
3.3289383206
 10
6.3856159427
 20
3.2413721463
 10
6.3458389006
 20
3.1524490823
 10
6.3099911296
 20
3.0621691285
 10
6.2780726296
 20
2.9705322849
 10
6.2500834006
 20
2.8775385516
 10
6.2260234427
 20
2.7831879285
 10
6.2058927559
 20
2.6874804157
 10
6.18969134
 20
2.5904160132
 10
6.1774191953
 20
2.4919947209
  0
LWPOLYLINE
  5
6C
330
1F
100
AcDbEntity
  8
SLD-0
100
AcDbPolyline
 90
       14
 70
   128
 43
0.0
 10
6.6724411205
 20
2.248122008
 10
6.674240625
 20
2.1532944795
 10
6.6796391384
 20
2.0593401752
 10
6.6886366609
 20
1.9662590949
 10
6.7012331924
 20
1.8740512387
 10
6.7174287328
 20
1.7827166065
 10
6.7372232822
 20
1.6922551984
 10
6.7606168407
 20
1.6026670144
 10
6.7876094081
 20
1.5139520544
 10
6.8182009845
 20
1.4261103185
 10
6.8523915699
 20
1.3391418067
 10
6.8901811642
 20
1.2530465189
 10
6.9315697676
 20
1.1678244552
 10
6.9765573799
 20
1.0834756156
  0
LWPOLYLINE
  5
6D
330
1F
100
AcDbEntity
  8
SLD-0
100
AcDbPolyline
 90
       14
 70
   128
 43
0.0
 10
6.9906838527
 20
2.2479161321
 10
6.9916807275
 20
2.1535121179
 10
6.9964023728
 20
2.0599184341
 10
7.0048487884
 20
1.9671350807
 10
7.0170199744
 20
1.8751620577
 10
7.0329159309
 20
1.7839993651
 10
7.0525366577
 20
1.693647003
 10
7.075882155
 20
1.6041049712
 10
7.1029524227
 20
1.5153732698
 10
7.1337474608
 20
1.4274518988
 10
7.1682672693
 20
1.3403408583
 10
7.2065118482
 20
1.2540401481
 10
7.2484811976
 20
1.1685497683
 10
7.2941753173
 20
1.083869719
  0
LWPOLYLINE
  5
6E
330
1F
100
AcDbEntity
  8
SLD-0
100
AcDbPolyline
 90
       13
 70
   128
 43
0.0
 10
7.2793786448
 20
2.256589125
 10
7.2817598739
 20
2.1534641664
 10
7.2882687232
 20
2.051416584
 10
7.2989051927
 20
1.9504463776
 10
7.3136692825
 20
1.8505535473
 10
7.3325609924
 20
1.7517380932
 10
7.3555803225
 20
1.6540000152
 10
7.3827272729
 20
1.5573393132
 10
7.4140018435
 20
1.4617559874
 10
7.4494040342
 20
1.3672500377
 10
7.4889338452
 20
1.2738214641
 10
7.5325912764
 20
1.1814702666
 10
7.5803763278
 20
1.0901964453
  0
ENDSEC
  0
SECTION
  2
OBJECTS
  0
DICTIONARY
  5
C
330
0
100
AcDbDictionary
281
     1
  3
ACAD_GROUP
350
D
  3
ACAD_LAYOUT
350
1A
  3
ACAD_MLINESTYLE
350
17
  3
ACAD_PLOTSETTINGS
350
19
  3
ACAD_PLOTSTYLENAME
350
E
  0
DICTIONARY
  5
D
102
{ACAD_REACTORS
330
C
102
}
330
C
100
AcDbDictionary
281
     1
  0
DICTIONARY
  5
1A
102
{ACAD_REACTORS
330
C
102
}
330
C
100
AcDbDictionary
281
     1
  3
Layout1
350
1E
  3
Layout2
350
26
  3
Model
350
22
  0
DICTIONARY
  5
17
102
{ACAD_REACTORS
330
C
102
}
330
C
100
AcDbDictionary
281
     1
  3
Standard
350
18
  0
DICTIONARY
  5
19
102
{ACAD_REACTORS
330
C
102
}
330
C
100
AcDbDictionary
281
     1
  0
ACDBDICTIONARYWDFLT
  5
E
102
{ACAD_REACTORS
330
C
102
}
330
C
100
AcDbDictionary
281
     1
  3
Normal
350
F
100
AcDbDictionaryWithDefault
340
F
  0
LAYOUT
  5
1E
102
{ACAD_REACTORS
330
1A
102
}
330
1A
100
AcDbPlotSettings
  1

  2
none_device
  4

  6

 40
0.0
 41
0.0
 42
0.0
 43
0.0
 44
0.0
 45
0.0
 46
0.0
 47
0.0
 48
0.0
 49
0.0
140
0.0
141
0.0
142
1.0
143
1.0
 70
   688
 72
     0
 73
     0
 74
     5
  7

 75
    16
147
1.0
148
0.0
149
0.0
100
AcDbLayout
  1
Layout1
 70
     1
 71
     1
 10
0.0
 20
0.0
 11
420.0
 21
297.0
 12
0.0
 22
0.0
 32
0.0
 14
1.0000000000E+20
 24
1.0000000000E+20
 34
1.0000000000E+20
 15
-1.0000000000E+20
 25
-1.0000000000E+20
 35
-1.0000000000E+20
146
0.0
 13
0.0
 23
0.0
 33
0.0
 16
1.0
 26
0.0
 36
0.0
 17
0.0
 27
1.0
 37
0.0
 76
     0
330
1B
  0
LAYOUT
  5
26
102
{ACAD_REACTORS
330
1A
102
}
330
1A
100
AcDbPlotSettings
  1

  2
none_device
  4

  6

 40
0.0
 41
0.0
 42
0.0
 43
0.0
 44
0.0
 45
0.0
 46
0.0
 47
0.0
 48
0.0
 49
0.0
140
0.0
141
0.0
142
1.0
143
1.0
 70
   688
 72
     0
 73
     0
 74
     5
  7

 75
    16
147
1.0
148
0.0
149
0.0
100
AcDbLayout
  1
Layout2
 70
     1
 71
     2
 10
0.0
 20
0.0
 11
0.0
 21
0.0
 12
0.0
 22
0.0
 32
0.0
 14
0.0
 24
0.0
 34
0.0
 15
0.0
 25
0.0
 35
0.0
146
0.0
 13
0.0
 23
0.0
 33
0.0
 16
1.0
 26
0.0
 36
0.0
 17
0.0
 27
1.0
 37
0.0
 76
     0
330
23
  0
LAYOUT
  5
22
102
{ACAD_REACTORS
330
1A
102
}
330
1A
100
AcDbPlotSettings
  1

  2
none_device
  4

  6

 40
0.0
 41
0.0
 42
0.0
 43
0.0
 44
0.0
 45
0.0
 46
0.0
 47
0.0
 48
0.0
 49
0.0
140
0.0
141
0.0
142
1.0
143
1.0
 70
  1712
 72
     0
 73
     0
 74
     0
  7

 75
     0
147
1.0
148
0.0
149
0.0
100
AcDbLayout
  1
Model
 70
     1
 71
     0
 10
0.0
 20
0.0
 11
210.0
 21
297.0
 12
0.0
 22
0.0
 32
0.0
 14
0.0
 24
0.0
 34
0.0
 15
210.0
 25
297.0
 35
0.0
146
0.0
 13
0.0
 23
0.0
 33
0.0
 16
1.0
 26
0.0
 36
0.0
 17
0.0
 27
1.0
 37
0.0
 76
     0
330
1F
331
29
  0
MLINESTYLE
  5
18
102
{ACAD_REACTORS
330
17
102
}
330
17
100
AcDbMlineStyle
  2
Standard
 70
     0
  3

 62
   256
 51
90.0
 52
90.0
 71
     2
 49
0.5
 62
   256
  6
BYLAYER
 49
-0.5
 62
   256
  6
BYLAYER
  0
ACDBPLACEHOLDER
  5
F
102
{ACAD_REACTORS
330
E
102
}
330
E
  0
ENDSEC
  0
EOF
