  0
SECTION
  2
HEADER
  9
$ACADVER
  1
AC1015
  9
$ACADMAINTVER
 70
     6
  9
$DWGCODEPAGE
  3
ANSI_1254
  9
$INSBASE
 10
0.0
 20
0.0
 30
0.0
  9
$EXTMIN
 10
0.0
 20
0.0
 30
0.0
  9
$EXTMAX
 10
210.0
 20
297.0
 30
0.0
  9
$LIMMIN
 10
0.0
 20
0.0
  9
$LIMMAX
 10
210.0
 20
297.0
  9
$ORTHOMODE
 70
     0
  9
$REGENMODE
 70
     1
  9
$FILLMODE
 70
     1
  9
$QTEXTMODE
 70
     0
  9
$MIRRTEXT
 70
     1
  9
$LTSCALE
 40
1.0
  9
$ATTMODE
 70
     1
  9
$TEXTSIZE
 40
3.5
  9
$TRACEWID
 40
1.0
  9
$TEXTSTYLE
  7
Standard
  9
$CLAYER
  8
0
  9
$CELTYPE
  6
ByLayer
  9
$CECOLOR
 62
   256
  9
$CELTSCALE
 40
1.0
  9
$DISPSILH
 70
     0
  9
$DIMSCALE
 40
1.0
  9
$DIMASZ
 40
3.302
  9
$DIMEXO
 40
1.0
  9
$DIMDLI
 40
3.75
  9
$DIMRND
 40
0.0
  9
$DIMDLE
 40
0.0
  9
$DIMEXE
 40
1.0
  9
$DIMTP
 40
0.0
  9
$DIMTM
 40
0.0
  9
$DIMTXT
 40
3.5
  9
$DIMCEN
 40
2.5
  9
$DIMTSZ
 40
0.0
  9
$DIMTOL
 70
     0
  9
$DIMLIM
 70
     0
  9
$DIMTIH
 70
     1
  9
$DIMTOH
 70
     1
  9
$DIMSE1
 70
     0
  9
$DIMSE2
 70
     0
  9
$DIMTAD
 70
     1
  9
$DIMZIN
 70
     1
  9
$DIMBLK
  1

  9
$DIMASO
 70
     1
  9
$DIMSHO
 70
     1
  9
$DIMPOST
  1

  9
$DIMAPOST
  1

  9
$DIMALT
 70
     0
  9
$DIMALTD
 70
     3
  9
$DIMALTF
 40
0.0393700787
  9
$DIMLFAC
 40
1.0
  9
$DIMTOFL
 70
     1
  9
$DIMTVP
 40
0.0
  9
$DIMTIX
 70
     0
  9
$DIMSOXD
 70
     0
  9
$DIMSAH
 70
     0
  9
$DIMBLK1
  1

  9
$DIMBLK2
  1

  9
$DIMSTYLE
  2
ISO-25
  9
$DIMCLRD
 70
     0
  9
$DIMCLRE
 70
     0
  9
$DIMCLRT
 70
     0
  9
$DIMTFAC
 40
1.0
  9
$DIMGAP
 40
1.524
  9
$DIMJUST
 70
     0
  9
$DIMSD1
 70
     0
  9
$DIMSD2
 70
     0
  9
$DIMTOLJ
 70
     0
  9
$DIMTZIN
 70
     1
  9
$DIMALTZ
 70
     0
  9
$DIMALTTZ
 70
     0
  9
$DIMUPT
 70
     0
  9
$DIMDEC
 70
     0
  9
$DIMTDEC
 70
     4
  9
$DIMALTU
 70
     2
  9
$DIMALTTD
 70
     3
  9
$DIMTXSTY
  7
Standard
  9
$DIMAUNIT
 70
     0
  9
$DIMADEC
 70
     0
  9
$DIMALTRND
 40
0.0
  9
$DIMAZIN
 70
     0
  9
$DIMDSEP
 70
    44
  9
$DIMATFIT
 70
     3
  9
$DIMFRAC
 70
     0
  9
$DIMLDRBLK
  1

  9
$DIMLUNIT
 70
     2
  9
$DIMLWD
 70
    -2
  9
$DIMLWE
 70
    -2
  9
$DIMTMOVE
 70
     0
  9
$LUNITS
 70
     2
  9
$LUPREC
 70
     4
  9
$SKETCHINC
 40
1.0
  9
$FILLETRAD
 40
10.0
  9
$AUNITS
 70
     0
  9
$AUPREC
 70
     0
  9
$MENU
  1
.
  9
$ELEVATION
 40
0.0
  9
$PELEVATION
 40
0.0
  9
$THICKNESS
 40
0.0
  9
$LIMCHECK
 70
     0
  9
$CHAMFERA
 40
10.0
  9
$CHAMFERB
 40
10.0
  9
$CHAMFERC
 40
20.0
  9
$CHAMFERD
 40
0.0
  9
$SKPOLY
 70
     0
  9
$TDCREATE
 40
2457075.847693148
  9
$TDUCREATE
 40
2457075.764359815
  9
$TDUPDATE
 40
2457075.847693241
  9
$TDUUPDATE
 40
2457075.764359907
  9
$TDINDWG
 40
0.0000000116
  9
$TDUSRTIMER
 40
0.0000000116
  9
$USRTIMER
 70
     1
  9
$ANGBASE
 50
0.0
  9
$ANGDIR
 70
     0
  9
$PDMODE
 70
     0
  9
$PDSIZE
 40
-1.0
  9
$PLINEWID
 40
0.0
  9
$SPLFRAME
 70
     0
  9
$SPLINETYPE
 70
     6
  9
$SPLINESEGS
 70
     8
  9
$HANDSEED
  5
6F
  9
$SURFTAB1
 70
     6
  9
$SURFTAB2
 70
     6
  9
$SURFTYPE
 70
     6
  9
$SURFU
 70
     6
  9
$SURFV
 70
     6
  9
$UCSBASE
  2

  9
$UCSNAME
  2

  9
$UCSORG
 10
0.0
 20
0.0
 30
0.0
  9
$UCSXDIR
 10
1.0
 20
0.0
 30
0.0
  9
$UCSYDIR
 10
0.0
 20
1.0
 30
0.0
  9
$UCSORTHOREF
  2

  9
$UCSORTHOVIEW
 70
     0
  9
$UCSORGTOP
 10
0.0
 20
0.0
 30
0.0
  9
$UCSORGBOTTOM
 10
0.0
 20
0.0
 30
0.0
  9
$UCSORGLEFT
 10
0.0
 20
0.0
 30
0.0
  9
$UCSORGRIGHT
 10
0.0
 20
0.0
 30
0.0
  9
$UCSORGFRONT
 10
0.0
 20
0.0
 30
0.0
  9
$UCSORGBACK
 10
0.0
 20
0.0
 30
0.0
  9
$PUCSBASE
  2

  9
$PUCSNAME
  2

  9
$PUCSORG
 10
0.0
 20
0.0
 30
0.0
  9
$PUCSXDIR
 10
1.0
 20
0.0
 30
0.0
  9
$PUCSYDIR
 10
0.0
 20
1.0
 30
0.0
  9
$PUCSORTHOREF
  2

  9
$PUCSORTHOVIEW
 70
     0
  9
$PUCSORGTOP
 10
0.0
 20
0.0
 30
0.0
  9
$PUCSORGBOTTOM
 10
0.0
 20
0.0
 30
0.0
  9
$PUCSORGLEFT
 10
0.0
 20
0.0
 30
0.0
  9
$PUCSORGRIGHT
 10
0.0
 20
0.0
 30
0.0
  9
$PUCSORGFRONT
 10
0.0
 20
0.0
 30
0.0
  9
$PUCSORGBACK
 10
0.0
 20
0.0
 30
0.0
  9
$USERI1
 70
     0
  9
$USERI2
 70
     0
  9
$USERI3
 70
     0
  9
$USERI4
 70
     0
  9
$USERI5
 70
     0
  9
$USERR1
 40
0.0
  9
$USERR2
 40
0.0
  9
$USERR3
 40
0.0
  9
$USERR4
 40
0.0
  9
$USERR5
 40
0.0
  9
$WORLDVIEW
 70
     1
  9
$SHADEDGE
 70
     3
  9
$SHADEDIF
 70
    70
  9
$TILEMODE
 70
     1
  9
$MAXACTVP
 70
    64
  9
$PINSBASE
 10
0.0
 20
0.0
 30
0.0
  9
$PLIMCHECK
 70
     0
  9
$PEXTMIN
 10
1.0000000000E+20
 20
1.0000000000E+20
 30
1.0000000000E+20
  9
$PEXTMAX
 10
-1.0000000000E+20
 20
-1.0000000000E+20
 30
-1.0000000000E+20
  9
$PLIMMIN
 10
0.0
 20
0.0
  9
$PLIMMAX
 10
420.0
 20
297.0
  9
$UNITMODE
 70
     0
  9
$VISRETAIN
 70
     1
  9
$PLINEGEN
 70
     0
  9
$PSLTSCALE
 70
     1
  9
$TREEDEPTH
 70
  3020
  9
$CMLSTYLE
  2
Standard
  9
$CMLJUST
 70
     0
  9
$CMLSCALE
 40
20.0
  9
$PROXYGRAPHICS
 70
     1
  9
$MEASUREMENT
 70
     1
  9
$CELWEIGHT
370
    -1
  9
$ENDCAPS
280
     0
  9
$JOINSTYLE
280
     0
  9
$LWDISPLAY
290
     1
  9
$INSUNITS
 70
     4
  9
$HYPERLINKBASE
  1

  9
$STYLESHEET
  1

  9
$XEDIT
290
     1
  9
$CEPSNTYPE
380
     0
  9
$PSTYLEMODE
290
     1
  9
$FINGERPRINTGUID
  2
{EBA29AF8-028C-49ED-8E3B-CA7B13C845C3}
  9
$VERSIONGUID
  2
{FAEB1C32-E019-11D5-929B-00C0DF256EC4}
  9
$EXTNAMES
290
     1
  9
$PSVPSCALE
 40
0.0
  9
$OLESTARTUP
290
     0
  0
ENDSEC
  0
SECTION
  2
CLASSES
  0
CLASS
  1
ACDBDICTIONARYWDFLT
  2
AcDbDictionaryWithDefault
  3
ObjectDBX Classes
 90
        0
280
     0
281
     0
  0
CLASS
  1
VISUALSTYLE
  2
AcDbVisualStyle
  3
ObjectDBX Classes
 90
     4095
280
     0
281
     0
  0
CLASS
  1
MATERIAL
  2
AcDbMaterial
  3
ObjectDBX Classes
 90
     1153
280
     0
281
     0
  0
CLASS
  1
ACDBPLACEHOLDER
  2
AcDbPlaceHolder
  3
ObjectDBX Classes
 90
        0
280
     0
281
     0
  0
CLASS
  1
LAYOUT
  2
AcDbLayout
  3
ObjectDBX Classes
 90
        0
280
     0
281
     0
  0
ENDSEC
  0
SECTION
  2
TABLES
  0
TABLE
  2
VPORT
  5
8
330
0
100
AcDbSymbolTable
 70
     1
  0
VPORT
  5
29
330
8
100
AcDbSymbolTableRecord
100
AcDbViewportTableRecord
  2
*Active
 70
     0
 10
0.0
 20
0.0
 11
1.0
 21
1.0
 12
105.0
 22
148.5
 13
0.0
 23
0.0
 14
10.0
 24
10.0
 15
10.0
 25
10.0
 16
0.0
 26
0.0
 36
1.0
 17
0.0
 27
0.0
 37
0.0
 40
297.0
 41
0.7070707071
 42
50.0
 43
0.0
 44
0.0
 50
0.0
 51
0.0
 71
     0
 72
  2000
 73
     1
 74
     3
 75
     0
 76
     0
 77
     0
 78
     0
281
     0
 65
     1
110
0.0
120
0.0
130
0.0
111
1.0
121
0.0
131
0.0
112
0.0
122
1.0
132
0.0
 79
     0
146
0.0
  0
ENDTAB
  0
TABLE
  2
LTYPE
  5
5
330
0
100
AcDbSymbolTable
 70
     6
  0
LTYPE
  5
14
330
5
100
AcDbSymbolTableRecord
100
AcDbLinetypeTableRecord
  2
ByBlock
 70
     0
  3

 72
    65
 73
     0
 40
0.0
  0
LTYPE
  5
15
330
5
100
AcDbSymbolTableRecord
100
AcDbLinetypeTableRecord
  2
ByLayer
 70
     0
  3

 72
    65
 73
     0
 40
0.0
  0
LTYPE
  5
16
330
5
100
AcDbSymbolTableRecord
100
AcDbLinetypeTableRecord
  2
Continuous
 70
     0
  3
Solid line
 72
    65
 73
     0
 40
0.0
  0
LTYPE
  5
3F
330
5
100
AcDbSymbolTableRecord
100
AcDbLinetypeTableRecord
  2
HIDDEN
 70
     0
  3
Hidden __ __ __ __ __ __ __ __ __ __ __ __ __ __
 72
    65
 73
     2
 40
1.905
 49
1.27
 74
     0
 49
-0.635
 74
     0
  0
LTYPE
  5
40
330
5
100
AcDbSymbolTableRecord
100
AcDbLinetypeTableRecord
  2
PHANTOM
 70
     0
  3
Phantom ______  __  __  ______  __  __  ______
 72
    65
 73
     6
 40
12.7
 49
6.35
 74
     0
 49
-1.27
 74
     0
 49
1.27
 74
     0
 49
-1.27
 74
     0
 49
1.27
 74
     0
 49
-1.27
 74
     0
  0
LTYPE
  5
41
330
5
100
AcDbSymbolTableRecord
100
AcDbLinetypeTableRecord
  2
CENTER
 70
     0
  3
Center ____ _ ____ _ ____ _ ____ _ ____ _ ____
 72
    65
 73
     4
 40
10.16
 49
6.35
 74
     0
 49
-1.27
 74
     0
 49
1.27
 74
     0
 49
-1.27
 74
     0
  0
LTYPE
  5
42
330
5
100
AcDbSymbolTableRecord
100
AcDbLinetypeTableRecord
  2
CENTERX2
 70
     0
  3
Center (2x) ________  __  ________  __  _____
 72
    65
 73
     4
 40
20.32
 49
12.7
 74
     0
 49
-2.54
 74
     0
 49
2.54
 74
     0
 49
-2.54
 74
     0
  0
LTYPE
  5
43
330
5
100
AcDbSymbolTableRecord
100
AcDbLinetypeTableRecord
  2
DOT2
 70
     0
  3
Dot (.5x) ........................................
 72
    65
 73
     2
 40
0.635
 49
0.0
 74
     0
 49
-0.635
 74
     0
  0
ENDTAB
  0
TABLE
  2
LAYER
  5
2
330
0
100
AcDbSymbolTable
 70
     3
  0
LAYER
  5
10
330
2
100
AcDbSymbolTableRecord
100
AcDbLayerTableRecord
  2
0
 70
     0
 62
     7
  6
Continuous
370
    -3
390
F
  0
LAYER
  5
44
330
2
100
AcDbSymbolTableRecord
100
AcDbLayerTableRecord
  2
SLD-0
 70
     0
 62
   179
  6
Continuous
370
    -3
390
F
  0
LAYER
  5
45
330
2
100
AcDbSymbolTableRecord
100
AcDbLayerTableRecord
  2
FORMAT
 70
     0
 62
     7
  6
Continuous
370
    -3
390
F
  0
ENDTAB
  0
TABLE
  2
STYLE
  5
3
330
0
100
AcDbSymbolTable
 70
     1
  0
STYLE
  5
11
330
3
100
AcDbSymbolTableRecord
100
AcDbTextStyleTableRecord
  2
Standard
 70
     0
 40
0.0
 41
1.0
 50
0.0
 71
     0
 42
3.5
  3
txt
  4

  0
ENDTAB
  0
TABLE
  2
VIEW
  5
6
330
0
100
AcDbSymbolTable
 70
     0
  0
ENDTAB
  0
TABLE
  2
UCS
  5
7
330
0
100
AcDbSymbolTable
 70
     0
  0
ENDTAB
  0
TABLE
  2
APPID
  5
9
330
0
100
AcDbSymbolTable
 70
     1
  0
APPID
  5
12
330
9
100
AcDbSymbolTableRecord
100
AcDbRegAppTableRecord
  2
ACAD
 70
     0
  0
ENDTAB
  0
TABLE
  2
DIMSTYLE
  5
A
330
0
100
AcDbSymbolTable
 70
     1
100
AcDbDimStyleTable
  0
DIMSTYLE
105
27
330
A
100
AcDbSymbolTableRecord
100
AcDbDimStyleTableRecord
  2
ISO-25
 70
     0
 41
2.5
 42
0.625
 43
3.75
 44
1.25
 73
     0
 74
     0
 77
     1
 78
     8
140
2.5
141
2.5
143
0.0393700787
147
0.625
171
     3
172
     1
178
     0
271
     2
272
     2
274
     3
278
    44
283
     0
284
     8
340
11
  0
ENDTAB
  0
TABLE
  2
BLOCK_RECORD
  5
1
330
0
100
AcDbSymbolTable
 70
     1
  0
BLOCK_RECORD
  5
1F
330
1
100
AcDbSymbolTableRecord
100
AcDbBlockTableRecord
  2
*Model_Space
340
22
  0
BLOCK_RECORD
  5
1B
330
1
100
AcDbSymbolTableRecord
100
AcDbBlockTableRecord
  2
*Paper_Space
340
1E
  0
BLOCK_RECORD
  5
23
330
1
100
AcDbSymbolTableRecord
100
AcDbBlockTableRecord
  2
*Paper_Space0
340
26
  0
ENDTAB
  0
ENDSEC
  0
SECTION
  2
BLOCKS
  0
BLOCK
  5
20
330
1F
100
AcDbEntity
  8
0
100
AcDbBlockBegin
  2
*Model_Space
 70
     0
 10
0.0
 20
0.0
 30
0.0
  3
*Model_Space
  1

  0
ENDBLK
  5
21
330
1F
100
AcDbEntity
  8
0
100
AcDbBlockEnd
  0
BLOCK
  5
1C
330
1B
100
AcDbEntity
 67
     1
  8
0
100
AcDbBlockBegin
  2
*Paper_Space
 70
     0
 10
0.0
 20
0.0
 30
0.0
  3
*Paper_Space
  1

  0
ENDBLK
  5
1D
330
1B
100
AcDbEntity
 67
     1
  8
0
100
AcDbBlockEnd
  0
BLOCK
  5
24
330
23
100
AcDbEntity
  8
0
100
AcDbBlockBegin
  2
*Paper_Space0
 70
     0
 10
0.0
 20
0.0
 30
0.0
  3
*Paper_Space0
  1

  0
ENDBLK
  5
25
330
23
100
AcDbEntity
  8
0
100
AcDbBlockEnd
  0
ENDSEC
  0
SECTION
  2
ENTITIES
  0
LINE
  5
46
330
1F
100
AcDbEntity
  8
SLD-0
 62
   179
100
AcDbLine
 10
20.6601941748
 20
9.3737864078
 30
0.0
 11
22.6262135924
 21
9.3737864078
 31
0.0
  0
LINE
  5
47
330
1F
100
AcDbEntity
  8
SLD-0
 62
   179
100
AcDbLine
 10
22.6262135924
 20
9.3737864078
 30
0.0
 11
22.6262135924
 21
7.7718446602
 31
0.0
  0
LINE
  5
48
330
1F
100
AcDbEntity
  8
SLD-0
 62
   179
100
AcDbLine
 10
22.6262135924
 20
7.7718446602
 30
0.0
 11
20.5145631068
 21
7.7718446602
 31
0.0
  0
LINE
  5
49
330
1F
100
AcDbEntity
  8
SLD-0
100
AcDbLine
 10
1.0
 20
1.0
 30
0.0
 11
1.0
 21
16.0
 31
0.0
  0
LINE
  5
4A
330
1F
100
AcDbEntity
  8
SLD-0
100
AcDbLine
 10
20.9404339974
 20
1.0
 30
0.0
 11
22.8336378809
 21
1.0
 31
0.0
  0
LINE
  5
4B
330
1F
100
AcDbEntity
  8
SLD-0
100
AcDbLine
 10
20.9514563107
 20
16.0
 30
0.0
 11
22.8446601942
 21
16.0
 31
0.0
  0
LINE
  5
4C
330
1F
100
AcDbEntity
  8
SLD-0
100
AcDbLine
 10
35.0346467789
 20
16.0
 30
0.0
 11
35.0346467227
 21
8.4887320478
 31
0.0
  0
LINE
  5
4D
330
1F
100
AcDbEntity
  8
SLD-0
100
AcDbLine
 10
36.9441031165
 20
16.0
 30
0.0
 11
36.9441031165
 21
8.4874967926
 31
0.0
  0
LINE
  5
4E
330
1F
100
AcDbEntity
  8
SLD-0
100
AcDbLine
 10
1.0
 20
16.0
 30
0.0
 11
19.0582524272
 21
16.0
 31
0.0
  0
LINE
  5
4F
330
1F
100
AcDbEntity
  8
SLD-0
 62
   179
100
AcDbLine
 10
1.0
 20
16.0
 30
0.0
 11
1.0
 21
1.0
 31
0.0
  0
LINE
  5
50
330
1F
100
AcDbEntity
  8
SLD-0
 62
   179
100
AcDbLine
 10
1.0
 20
1.0
 30
0.0
 11
19.0582524272
 21
1.0
 31
0.0
  0
LINE
  5
51
330
1F
100
AcDbEntity
  8
SLD-0
100
AcDbLine
 10
40.7937339968
 20
1.0
 30
0.0
 11
57.067961165
 21
1.0
 31
0.0
  0
LINE
  5
52
330
1F
100
AcDbEntity
  8
SLD-0
  6
CENTERX2
 62
   179
100
AcDbLine
 10
30.1448222031
 20
1.0
 30
0.0
 11
31.9838965508
 21
1.0
 31
0.0
  0
LINE
  5
53
330
1F
100
AcDbEntity
  8
SLD-0
 62
   179
100
AcDbLine
 10
31.9838965508
 20
1.0
 30
0.0
 11
31.9838965508
 21
7.7991447473
 31
0.0
  0
LINE
  5
54
330
1F
100
AcDbEntity
  8
SLD-0
  6
CENTERX2
 62
   179
100
AcDbLine
 10
31.9838965508
 20
7.7991447473
 30
0.0
 11
33.9368322692
 21
7.7991447473
 31
0.0
  0
LINE
  5
55
330
1F
100
AcDbEntity
  8
SLD-0
  6
CENTERX2
 62
   179
100
AcDbLine
 10
33.9368322692
 20
7.7991447473
 30
0.0
 11
33.9368322692
 21
9.3532992327
 31
0.0
  0
LINE
  5
56
330
1F
100
AcDbEntity
  8
SLD-0
  6
CENTERX2
 62
   179
100
AcDbLine
 10
33.9368322692
 20
9.3532992327
 30
0.0
 11
32.0144579294
 21
9.3532992327
 31
0.0
  0
LINE
  5
57
330
1F
100
AcDbEntity
  8
SLD-0
  6
CENTERX2
 62
   179
100
AcDbLine
 10
32.221147927
 20
16.0
 30
0.0
 11
34.1711361721
 21
16.0
 31
0.0
  0
LINE
  5
58
330
1F
100
AcDbEntity
  8
SLD-0
 62
   179
100
AcDbLine
 10
30.1448222031
 20
1.0
 30
0.0
 11
30.1448222031
 21
8.4840247159
 31
0.0
  0
LINE
  5
59
330
1F
100
AcDbEntity
  8
SLD-0
  6
CENTERX2
 62
   179
100
AcDbLine
 10
37.1508640077
 20
1.0
 30
0.0
 11
39.0615652449
 21
1.0
 31
0.0
  0
LINE
  5
5A
330
1F
100
AcDbEntity
  8
SLD-0
 62
   179
100
AcDbLine
 10
35.0346467789
 20
16.0
 30
0.0
 11
36.9441031165
 21
16.0
 31
0.0
  0
LINE
  5
5B
330
1F
100
AcDbEntity
  8
SLD-0
 62
   179
100
AcDbLine
 10
38.6762718684
 20
8.5395349539
 30
0.0
 11
38.6762718684
 21
16.0
 31
0.0
  0
LINE
  5
5C
330
1F
100
AcDbEntity
  8
SLD-0
 62
   179
100
AcDbLine
 10
38.6762718684
 20
16.0
 30
0.0
 11
57.067961165
 21
16.0
 31
0.0
  0
LINE
  5
5D
330
1F
100
AcDbEntity
  8
SLD-0
 62
   179
100
AcDbLine
 10
57.067961165
 20
16.0
 30
0.0
 11
57.067961165
 21
1.0
 31
0.0
  0
LINE
  5
5E
330
1F
100
AcDbEntity
  8
SLD-0
 62
   179
100
AcDbLine
 10
25.9029126214
 20
16.0
 30
0.0
 11
24.0825242718
 21
16.0
 31
0.0
  0
LINE
  5
5F
330
1F
100
AcDbEntity
  8
SLD-0
 62
   179
100
AcDbLine
 10
24.0825242718
 20
16.0
 30
0.0
 11
24.0825242718
 21
1.0
 31
0.0
  0
LINE
  5
60
330
1F
100
AcDbEntity
  8
SLD-0
 62
   179
100
AcDbLine
 10
24.0825242718
 20
1.0
 30
0.0
 11
25.9029126214
 21
1.0
 31
0.0
  0
LINE
  5
61
330
1F
100
AcDbEntity
  8
SLD-0
 62
   179
100
AcDbLine
 10
25.9029126214
 20
1.0
 30
0.0
 11
25.9029126214
 21
16.0
 31
0.0
  0
LINE
  5
62
330
1F
100
AcDbEntity
  8
SLD-0
 62
   179
100
AcDbLine
 10
28.3135293517
 20
16.0
 30
0.0
 11
26.3929527401
 21
16.0
 31
0.0
  0
LINE
  5
63
330
1F
100
AcDbEntity
  8
SLD-0
 62
   179
100
AcDbLine
 10
26.3929527401
 20
8.4840347862
 30
0.0
 11
28.3135293517
 21
8.4840347862
 31
0.0
  0
LWPOLYLINE
  5
64
330
1F
100
AcDbEntity
  8
SLD-0
100
AcDbPolyline
 90
       31
 70
   128
 43
0.0
 10
19.0582524271
 20
1.0
 10
18.7792982514
 20
1.4089911638
 10
18.5189410207
 20
1.8229743145
 10
18.2771807351
 20
2.2419494521
 10
18.0540173945
 20
2.6659165766
 10
17.849450999
 20
3.0948756881
 10
17.6634815485
 20
3.5288267866
 10
17.4961090431
 20
3.9677698719
 10
17.3473334827
 20
4.4117049442
 10
17.2171548673
 20
4.8606320034
 10
17.105573197
 20
5.3145510496
 10
17.0125884718
 20
5.7734620827
 10
16.9382006916
 20
6.2373651027
 10
16.8824098565
 20
6.7062601096
 10
16.8452159664
 20
7.1801471035
 10
16.8266190213
 20
7.6590260843
 10
16.8266190213
 20
8.1428970521
 10
16.8452159664
 20
8.6317600067
 10
16.8824098565
 20
9.1256149483
 10
16.9382006916
 20
9.6244618769
 10
17.0125884718
 20
10.1283007923
 10
17.105573197
 20
10.6371316947
 10
17.2171548673
 20
11.1509545841
 10
17.3473334827
 20
11.6697694603
 10
17.4961090431
 20
12.1935763235
 10
17.6634815485
 20
12.7223751737
 10
17.849450999
 20
13.2561660107
 10
18.0540173945
 20
13.7949488347
 10
18.2771807351
 20
14.3387236456
 10
18.5189410207
 20
14.8874904435
 10
18.7792982514
 20
15.4412492283
  0
LWPOLYLINE
  5
65
330
1F
100
AcDbEntity
  8
SLD-0
100
AcDbPolyline
 90
       31
 70
   128
 43
0.0
 10
20.9514563107
 20
1.0
 10
20.6725021349
 20
1.4089911638
 10
20.4121449043
 20
1.8229743145
 10
20.1703846186
 20
2.2419494521
 10
19.947221278
 20
2.6659165766
 10
19.7426548825
 20
3.0948756881
 10
19.556685432
 20
3.5288267866
 10
19.3893129266
 20
3.9677698719
 10
19.2405373662
 20
4.4117049442
 10
19.1103587508
 20
4.8606320034
 10
18.9987770805
 20
5.3145510496
 10
18.9057923553
 20
5.7734620827
 10
18.8314045751
 20
6.2373651027
 10
18.7756137399
 20
6.7062601096
 10
18.7384198498
 20
7.1801471035
 10
18.7198229048
 20
7.6590260843
 10
18.7198229048
 20
8.142897052
 10
18.7384198498
 20
8.6317600067
 10
18.7756137399
 20
9.1256149483
 10
18.8314045751
 20
9.6244618769
 10
18.9057923553
 20
10.1283007923
 10
18.9987770805
 20
10.6371316947
 10
19.1103587508
 20
11.1509545841
 10
19.2405373662
 20
11.6697694603
 10
19.3893129266
 20
12.1935763235
 10
19.556685432
 20
12.7223751737
 10
19.7426548825
 20
13.2561660107
 10
19.947221278
 20
13.7949488347
 10
20.1703846186
 20
14.3387236456
 10
20.4121449042
 20
14.8874904435
 10
20.6725021349
 20
15.4412492283
  0
LWPOLYLINE
  5
66
330
1F
100
AcDbEntity
  8
SLD-0
100
AcDbPolyline
 90
       15
 70
   128
 43
0.0
 10
22.844660194
 20
0.9999999999
 10
22.5564663447
 20
1.4052623768
 10
22.2872516444
 20
1.8171238871
 10
22.0370160933
 20
2.2355845307
 10
21.8057596912
 20
2.6606443078
 10
21.5934824381
 20
3.0923032183
 10
21.4001843342
 20
3.5305612621
 10
21.2258653793
 20
3.9754184394
 10
21.0705255734
 20
4.4268747501
 10
20.9341649167
 20
4.8849301942
 10
20.816783409
 20
5.3495847717
 10
20.7183810504
 20
5.8208384825
 10
20.6389578408
 20
6.2986913268
 10
20.5785137803
 20
6.7831433045
 10
20.5370488689
 20
7.2741944156
  0
LWPOLYLINE
  5
67
330
1F
100
AcDbEntity
  8
SLD-0
100
AcDbPolyline
 90
       11
 70
   128
 43
0.0
 10
22.8446601942
 20
16.0
 10
22.5153229989
 20
15.4348399434
 10
22.2121356787
 20
14.8622352873
 10
21.9350982336
 20
14.2821860317
 10
21.6842106635
 20
13.6946921768
 10
21.4594729685
 20
13.0997537224
 10
21.2608851485
 20
12.4973706685
 10
21.0884472036
 20
11.8875430153
 10
20.9421591338
 20
11.2702707625
 10
20.8220209391
 20
10.6455539104
 10
20.7280326194
 20
10.0133924588
  0
LWPOLYLINE
  5
68
330
1F
100
AcDbEntity
  8
SLD-0
100
AcDbPolyline
 90
       40
 70
   128
 43
0.0
 10
26.3929527401
 20
16.0
 10
26.5399971489
 20
15.8084167783
 10
26.6795008188
 20
15.6170224844
 10
26.8114637498
 20
15.4258171182
 10
26.9358859419
 20
15.2348006798
 10
27.0527673951
 20
15.0439731691
 10
27.1621081094
 20
14.8533345863
 10
27.2639080847
 20
14.6628849311
 10
27.3581673212
 20
14.4726242038
 10
27.4448858187
 20
14.2825524042
 10
27.5240635773
 20
14.0926695323
 10
27.595700597
 20
13.9029755883
 10
27.6597968777
 20
13.7134705719
 10
27.7163524196
 20
13.5241544834
 10
27.7653672225
 20
13.3350273226
 10
27.8068412866
 20
13.1460890895
 10
27.8407746117
 20
12.9573397843
 10
27.8671671979
 20
12.7687794068
 10
27.8860190452
 20
12.580407957
 10
27.8973301535
 20
12.392225435
 10
27.901100523
 20
12.2042318408
 10
27.8973301535
 20
12.0164271743
 10
27.8860190452
 20
11.8288114356
 10
27.8671671979
 20
11.6413846247
 10
27.8407746117
 20
11.4541467415
 10
27.8068412866
 20
11.2670977861
 10
27.7653672225
 20
11.0802377584
 10
27.7163524196
 20
10.8935666585
 10
27.6597968777
 20
10.7070844864
 10
27.595700597
 20
10.520791242
 10
27.5240635773
 20
10.3346869254
 10
27.4448858187
 20
10.1487715366
 10
27.3581673212
 20
9.9630450755
 10
27.2639080847
 20
9.7775075421
 10
27.1621081094
 20
9.5921589366
 10
27.0527673951
 20
9.4069992588
 10
26.9358859419
 20
9.2220285087
 10
26.8114637498
 20
9.0372466864
 10
26.6795008188
 20
8.8526537919
 10
26.5399971489
 20
8.6682498252
  0
LWPOLYLINE
  5
69
330
1F
100
AcDbEntity
  8
SLD-0
100
AcDbPolyline
 90
       37
 70
   128
 43
0.0
 10
28.3135293517
 20
16.0
 10
28.4632012779
 20
15.7956630456
 10
28.604558097
 20
15.5913929112
 10
28.7375998092
 20
15.3871895967
 10
28.8623264143
 20
15.1830531022
 10
28.9787379124
 20
14.9789834277
 10
29.0868343036
 20
14.7749805731
 10
29.1866155877
 20
14.5710445385
 10
29.2780817648
 20
14.3671753239
 10
29.3612328349
 20
14.1633729293
 10
29.4360687979
 20
13.9596373546
 10
29.502589654
 20
13.7559685999
 10
29.5607954031
 20
13.5523666651
 10
29.6106860451
 20
13.3488315503
 10
29.6522615802
 20
13.1453632555
 10
29.6855220082
 20
12.9419617807
 10
29.7104673292
 20
12.7386271258
 10
29.7270975433
 20
12.5353592909
 10
29.7354126503
 20
12.332158276
 10
29.7354126503
 20
12.129024081
 10
29.7270975433
 20
11.925956706
 10
29.7104673292
 20
11.722956151
 10
29.6855220082
 20
11.5200224159
 10
29.6522615802
 20
11.3171555008
 10
29.6106860451
 20
11.1143554057
 10
29.5607954031
 20
10.9116221305
 10
29.502589654
 20
10.7089556753
 10
29.4360687979
 20
10.5063560401
 10
29.3612328349
 20
10.3038232249
 10
29.2780817648
 20
10.1013572296
 10
29.1866155877
 20
9.8989580543
 10
29.0868343036
 20
9.6966256989
 10
28.9787379125
 20
9.4943601635
 10
28.8623264143
 20
9.2921614481
 10
28.7375998092
 20
9.0900295527
 10
28.6045580971
 20
8.8879644772
 10
28.4632012779
 20
8.6859662217
  0
LWPOLYLINE
  5
6A
330
1F
100
AcDbEntity
  8
SLD-0
100
AcDbPolyline
 90
       11
 70
   128
 43
0.0
 10
32.221147927
 20
16.0
 10
31.8840336848
 20
15.3536662156
 10
31.5765909142
 20
14.699945092
 10
31.2988196153
 20
14.0388366292
 10
31.0507197881
 20
13.3703408272
 10
30.8322914324
 20
12.694457686
 10
30.6435345484
 20
12.0111872056
 10
30.4844491361
 20
11.3205293861
 10
30.3550351954
 20
10.6224842273
 10
30.2552927263
 20
9.9170517293
 10
30.1852217289
 20
9.2042318922
  0
LWPOLYLINE
  5
6B
330
1F
100
AcDbEntity
  8
SLD-0
100
AcDbPolyline
 90
       12
 70
   128
 43
0.0
 10
34.1711361721
 20
16.0
 10
33.8617470406
 20
15.4908856312
 10
33.5759335354
 20
14.9736299238
 10
33.3136956565
 20
14.448232878
 10
33.0750334039
 20
13.9146944936
 10
32.8599467775
 20
13.3730147708
 10
32.6684357775
 20
12.8231937094
 10
32.5005004037
 20
12.2652313096
 10
32.3561406563
 20
11.6991275712
 10
32.2353565351
 20
11.1248824944
 10
32.1381480402
 20
10.542496079
 10
32.0645151717
 20
9.9519683251
  0
LWPOLYLINE
  5
6C
330
1F
100
AcDbEntity
  8
SLD-0
100
AcDbPolyline
 90
       14
 70
   128
 43
0.0
 10
35.0346467227
 20
8.4887320478
 10
35.0454437497
 20
7.9197668772
 10
35.0778348306
 20
7.3560410511
 10
35.1318199654
 20
6.7975545693
 10
35.2073991542
 20
6.244307432
 10
35.3045723968
 20
5.696299639
 10
35.4233396934
 20
5.1535311904
 10
35.563701044
 20
4.6160020862
 10
35.7256564484
 20
4.0837123265
 10
35.9092059068
 20
3.5566619111
 10
36.1143494191
 20
3.0348508401
 10
36.3410869854
 20
2.5182791135
 10
36.5894186055
 20
2.0069467312
 10
36.8593442796
 20
1.5008536934
  0
LWPOLYLINE
  5
6D
330
1F
100
AcDbEntity
  8
SLD-0
100
AcDbPolyline
 90
       14
 70
   128
 43
0.0
 10
36.9441031165
 20
8.4874967926
 10
36.9500843653
 20
7.9210727074
 10
36.9784142366
 20
7.3595106046
 10
37.0290927303
 20
6.8028104843
 10
37.1021198466
 20
6.2509723464
 10
37.1974955853
 20
5.7039961909
 10
37.3152199465
 20
5.1618820178
 10
37.4552929301
 20
4.6246298271
 10
37.6177145362
 20
4.0922396188
 10
37.8024847648
 20
3.564711393
 10
38.0096036159
 20
3.0420451495
 10
38.2390710894
 20
2.5242408885
 10
38.4908871854
 20
2.0112986099
 10
38.7650519039
 20
1.5032183137
  0
LWPOLYLINE
  5
6E
330
1F
100
AcDbEntity
  8
SLD-0
100
AcDbPolyline
 90
       13
 70
   128
 43
0.0
 10
38.6762718683
 20
8.5395349538
 10
38.6905592354
 20
7.9207851847
 10
38.729612325
 20
7.3084996726
 10
38.7934311372
 20
6.7026784174
 10
38.8820156718
 20
6.1033214192
 10
38.995365929
 20
5.510428678
 10
39.1334819087
 20
4.9240001938
 10
39.2963636109
 20
4.3440359666
 10
39.4840110356
 20
3.7705359964
 10
39.6964241828
 20
3.2035002831
 10
39.9336030526
 20
2.6429288269
 10
40.1955476448
 20
2.0888216276
 10
40.4822579596
 20
1.5411786853
  0
ENDSEC
  0
SECTION
  2
OBJECTS
  0
DICTIONARY
  5
C
330
0
100
AcDbDictionary
281
     1
  3
ACAD_GROUP
350
D
  3
ACAD_LAYOUT
350
1A
  3
ACAD_MLINESTYLE
350
17
  3
ACAD_PLOTSETTINGS
350
19
  3
ACAD_PLOTSTYLENAME
350
E
  0
DICTIONARY
  5
D
102
{ACAD_REACTORS
330
C
102
}
330
C
100
AcDbDictionary
281
     1
  0
DICTIONARY
  5
1A
102
{ACAD_REACTORS
330
C
102
}
330
C
100
AcDbDictionary
281
     1
  3
Layout1
350
1E
  3
Layout2
350
26
  3
Model
350
22
  0
DICTIONARY
  5
17
102
{ACAD_REACTORS
330
C
102
}
330
C
100
AcDbDictionary
281
     1
  3
Standard
350
18
  0
DICTIONARY
  5
19
102
{ACAD_REACTORS
330
C
102
}
330
C
100
AcDbDictionary
281
     1
  0
ACDBDICTIONARYWDFLT
  5
E
102
{ACAD_REACTORS
330
C
102
}
330
C
100
AcDbDictionary
281
     1
  3
Normal
350
F
100
AcDbDictionaryWithDefault
340
F
  0
LAYOUT
  5
1E
102
{ACAD_REACTORS
330
1A
102
}
330
1A
100
AcDbPlotSettings
  1

  2
none_device
  4

  6

 40
0.0
 41
0.0
 42
0.0
 43
0.0
 44
0.0
 45
0.0
 46
0.0
 47
0.0
 48
0.0
 49
0.0
140
0.0
141
0.0
142
1.0
143
1.0
 70
   688
 72
     0
 73
     0
 74
     5
  7

 75
    16
147
1.0
148
0.0
149
0.0
100
AcDbLayout
  1
Layout1
 70
     1
 71
     1
 10
0.0
 20
0.0
 11
420.0
 21
297.0
 12
0.0
 22
0.0
 32
0.0
 14
1.0000000000E+20
 24
1.0000000000E+20
 34
1.0000000000E+20
 15
-1.0000000000E+20
 25
-1.0000000000E+20
 35
-1.0000000000E+20
146
0.0
 13
0.0
 23
0.0
 33
0.0
 16
1.0
 26
0.0
 36
0.0
 17
0.0
 27
1.0
 37
0.0
 76
     0
330
1B
  0
LAYOUT
  5
26
102
{ACAD_REACTORS
330
1A
102
}
330
1A
100
AcDbPlotSettings
  1

  2
none_device
  4

  6

 40
0.0
 41
0.0
 42
0.0
 43
0.0
 44
0.0
 45
0.0
 46
0.0
 47
0.0
 48
0.0
 49
0.0
140
0.0
141
0.0
142
1.0
143
1.0
 70
   688
 72
     0
 73
     0
 74
     5
  7

 75
    16
147
1.0
148
0.0
149
0.0
100
AcDbLayout
  1
Layout2
 70
     1
 71
     2
 10
0.0
 20
0.0
 11
0.0
 21
0.0
 12
0.0
 22
0.0
 32
0.0
 14
0.0
 24
0.0
 34
0.0
 15
0.0
 25
0.0
 35
0.0
146
0.0
 13
0.0
 23
0.0
 33
0.0
 16
1.0
 26
0.0
 36
0.0
 17
0.0
 27
1.0
 37
0.0
 76
     0
330
23
  0
LAYOUT
  5
22
102
{ACAD_REACTORS
330
1A
102
}
330
1A
100
AcDbPlotSettings
  1

  2
none_device
  4

  6

 40
0.0
 41
0.0
 42
0.0
 43
0.0
 44
0.0
 45
0.0
 46
0.0
 47
0.0
 48
0.0
 49
0.0
140
0.0
141
0.0
142
1.0
143
1.0
 70
  1712
 72
     0
 73
     0
 74
     0
  7

 75
     0
147
1.0
148
0.0
149
0.0
100
AcDbLayout
  1
Model
 70
     1
 71
     0
 10
0.0
 20
0.0
 11
210.0
 21
297.0
 12
0.0
 22
0.0
 32
0.0
 14
0.0
 24
0.0
 34
0.0
 15
210.0
 25
297.0
 35
0.0
146
0.0
 13
0.0
 23
0.0
 33
0.0
 16
1.0
 26
0.0
 36
0.0
 17
0.0
 27
1.0
 37
0.0
 76
     0
330
1F
331
29
  0
MLINESTYLE
  5
18
102
{ACAD_REACTORS
330
17
102
}
330
17
100
AcDbMlineStyle
  2
Standard
 70
     0
  3

 62
   256
 51
90.0
 52
90.0
 71
     2
 49
0.5
 62
   256
  6
BYLAYER
 49
-0.5
 62
   256
  6
BYLAYER
  0
ACDBPLACEHOLDER
  5
F
102
{ACAD_REACTORS
330
E
102
}
330
E
  0
ENDSEC
  0
EOF
